<?xml version="1.0" encoding="utf-8"?>
<!-- Generator: Adobe Illustrator 16.0.0, SVG Export Plug-In . SVG Version: 6.00 Build 0)  -->
<!DOCTYPE svg PUBLIC "-//W3C//DTD SVG 1.1//EN" "http://www.w3.org/Graphics/SVG/1.1/DTD/svg11.dtd">
<svg version="1.1" id="logo" xmlns="http://www.w3.org/2000/svg" xmlns:xlink="http://www.w3.org/1999/xlink" x="0px" y="0px"
	 width="94.504px" height="107.994px" viewBox="0 0 94.504 107.994" style="enable-background:new 0 0 94.504 107.994;"
	 xml:space="preserve">
<style type="text/css">
<![CDATA[
	.st0{fill:#443F35;}
]]>
</style>
<g id="head">
	<polygon id="beard" class="st0" points="14.755,67.243 19.499,89.751 31.98,102.765 43.803,107.994 56.535,104.582 68.812,90.715 
		75.947,68.662 60.855,87.532 54.035,95.717 47.668,95.49 45.849,90.487 43.348,95.49 37.892,95.49 28.062,87.304 	"/>
	<polygon id="mustache" class="st0" points="30.844,83.894 37.665,76.847 50.168,77.074 58.354,82.984 44.94,78.666 	"/>
	<polygon id="hear" class="st0" points="12.896,86.15 9.018,83.667 0,57.13 0.377,29.101 15.061,7.27 37.105,0 54.262,0 
		76.996,10.685 92.23,31.83 94.504,53.428 82.227,83.213 77.906,89.35 72.504,89.438 69.988,86.643 76.651,56.194 63.561,42.351 
		47.213,36.149 22.659,40.015 12.427,57.976 16.684,81.848 	"/>
</g>
</svg>
