<?xml version="1.0" encoding="utf-8"?>
<!-- Generator: Adobe Illustrator 16.0.0, SVG Export Plug-In . SVG Version: 6.00 Build 0)  -->
<!DOCTYPE svg PUBLIC "-//W3C//DTD SVG 1.1//EN" "http://www.w3.org/Graphics/SVG/1.1/DTD/svg11.dtd">
<svg version="1.1" id="belle-vue-logo" xmlns="http://www.w3.org/2000/svg" xmlns:xlink="http://www.w3.org/1999/xlink" x="0px"
	 y="0px" width="960px" height="339px" viewBox="0 0 960 339" style="enable-background:new 0 0 960 339;" xml:space="preserve">
<style type="text/css">
<![CDATA[
	.st0{fill:#FFFFFF;}
]]>
</style>
<g id="Effra_Heavy">
	<path class="st0" d="M4,4.929h63.575c10.945,0,20.017,1.214,27.212,3.638c7.192,2.425,12.902,5.553,17.126,9.383
		c4.224,3.833,7.154,8.21,8.797,13.137c1.642,4.926,2.464,9.817,2.464,14.662c0,4.537-0.745,8.604-2.23,12.2
		c-1.488,3.599-3.365,6.765-5.629,9.499c-2.27,2.739-4.732,5.045-7.39,6.922c-2.662,1.876-5.161,3.208-7.508,3.987
		c2.969,0.939,6.253,2.347,9.853,4.223c3.596,1.877,6.958,4.381,10.087,7.507c3.129,3.131,5.787,6.884,7.977,11.261
		c2.189,4.381,3.285,9.465,3.285,15.249c0,15.642-5.436,27.016-16.303,34.132c-10.872,7.118-26.785,10.674-47.74,10.674H4V4.929z
		 M62.648,67.801c4.845,0,9.186-1.21,13.02-3.636c3.831-2.424,5.747-6.607,5.747-12.552c0-3.284-0.55-6.059-1.642-8.329
		c-1.096-2.264-2.544-4.024-4.34-5.278c-1.799-1.25-3.834-2.148-6.098-2.698c-2.27-0.546-4.499-0.821-6.687-0.821H44.584v33.313
		H62.648z M65.698,131.845c2.345,0,4.926-0.194,7.741-0.589c2.814-0.387,5.396-1.207,7.743-2.462c2.344-1.25,4.299-3.126,5.863-5.63
		c1.562-2.498,2.346-5.865,2.346-10.087c0-3.907-0.784-7.076-2.346-9.501c-1.564-2.423-3.52-4.259-5.863-5.514
		c-2.347-1.249-4.928-2.111-7.743-2.581c-2.815-0.469-5.396-0.703-7.741-0.703H44.584v37.066H65.698z"/>
	<path class="st0" d="M254.075,153.428c-1.876,1.095-4.264,2.308-7.155,3.637c-2.896,1.33-6.296,2.578-10.205,3.754
		c-3.912,1.173-8.292,2.186-13.138,3.048c-4.848,0.856-10.01,1.289-15.483,1.289c-20.333,0-35.893-5.117-46.684-15.364
		c-10.792-10.242-16.187-24.592-16.187-43.047c0-7.349,1.172-14.581,3.519-21.7c2.345-7.115,5.9-13.449,10.672-19.001
		c4.77-5.55,10.791-10.049,18.064-13.489c7.273-3.438,15.753-5.162,25.454-5.162c7.505,0,14.58,1.289,21.23,3.871
		c6.646,2.581,12.432,6.491,17.36,11.729c4.924,5.243,8.797,11.812,11.612,19.706c2.814,7.899,4.222,17.165,4.222,27.8v7.508
		h-74.601c0.153,1.875,0.664,3.832,1.525,5.864c0.858,2.034,2.346,3.951,4.457,5.749c2.111,1.799,4.928,3.246,8.446,4.339
		c3.518,1.096,7.859,1.641,13.019,1.641c6.722,0,12.863-0.859,18.416-2.583c5.55-1.718,9.891-3.519,13.02-5.394L254.075,153.428z
		 M222.169,94.544c0-1.878-0.392-3.831-1.173-5.865c-0.785-2.03-1.993-3.907-3.636-5.629c-1.643-1.719-3.677-3.168-6.1-4.34
		c-2.427-1.174-5.358-1.759-8.798-1.759c-3.282,0-6.18,0.585-8.678,1.759c-2.504,1.172-4.538,2.621-6.1,4.34
		c-1.566,1.722-2.739,3.599-3.52,5.629c-0.784,2.034-1.172,3.986-1.172,5.865H222.169z"/>
	<path class="st0" d="M274.951,4.929h39.646v156.474h-39.646V4.929z"/>
	<path class="st0" d="M337.588,4.929h39.645v156.474h-39.645V4.929z"/>
	<path class="st0" d="M504.381,153.428c-1.877,1.095-4.262,2.308-7.155,3.637c-2.896,1.33-6.298,2.578-10.203,3.754
		c-3.912,1.173-8.292,2.186-13.138,3.048c-4.848,0.856-10.009,1.289-15.481,1.289c-20.334,0-35.894-5.117-46.685-15.364
		c-10.792-10.242-16.187-24.592-16.187-43.047c0-7.349,1.173-14.581,3.519-21.7c2.346-7.115,5.9-13.449,10.673-19.001
		c4.77-5.55,10.791-10.049,18.064-13.489c7.272-3.438,15.753-5.162,25.453-5.162c7.507,0,14.581,1.289,21.231,3.871
		c6.644,2.581,12.431,6.491,17.36,11.729c4.924,5.243,8.797,11.812,11.61,19.706c2.815,7.899,4.225,17.165,4.225,27.8v7.508h-74.603
		c0.153,1.875,0.664,3.832,1.527,5.864c0.856,2.034,2.345,3.951,4.457,5.749c2.111,1.799,4.927,3.246,8.445,4.339
		c3.518,1.096,7.858,1.641,13.02,1.641c6.722,0,12.862-0.859,18.415-2.583c5.55-1.718,9.892-3.519,13.021-5.394L504.381,153.428z
		 M472.477,94.544c0-1.878-0.392-3.831-1.173-5.865c-0.785-2.03-1.993-3.907-3.635-5.629c-1.643-1.719-3.678-3.168-6.101-4.34
		c-2.426-1.174-5.358-1.759-8.797-1.759c-3.284,0-6.181,0.585-8.68,1.759c-2.502,1.172-4.538,2.621-6.099,4.34
		c-1.565,1.722-2.738,3.599-3.519,5.629c-0.785,2.034-1.172,3.986-1.172,5.865H472.477z"/>
	<path class="st0" d="M553.643,4.929h45.274l35.188,108.853L666.95,4.929h44.336l-57.005,156.474h-43.869L553.643,4.929z"/>
	<path class="st0" d="M712.93,51.145h39.646v60.289c0,5.478,1.133,9.854,3.4,13.138c2.265,3.285,6.293,4.925,12.082,4.925
		c3.126,0,5.747-0.544,7.859-1.64c2.111-1.094,3.829-2.581,5.16-4.456c1.328-1.877,2.266-3.95,2.813-6.218
		c0.547-2.266,0.821-4.574,0.821-6.92V51.145h39.648v110.257h-38.238l-1.41-11.259c-2.189,2.662-4.689,4.928-7.506,6.803
		c-2.814,1.878-5.711,3.365-8.68,4.456c-2.973,1.094-5.827,1.876-8.562,2.349c-2.739,0.468-5.125,0.701-7.155,0.701
		c-5.789,0-11.107-0.823-15.953-2.461c-4.848-1.642-9.032-4.225-12.551-7.743c-3.52-3.52-6.297-8.012-8.326-13.489
		c-2.037-5.472-3.051-12.118-3.051-19.94V51.145z"/>
	<path class="st0" d="M951.509,153.428c-1.876,1.095-4.261,2.308-7.155,3.637c-2.895,1.33-6.297,2.578-10.204,3.754
		c-3.911,1.173-8.292,2.186-13.137,3.048c-4.85,0.856-10.011,1.289-15.483,1.289c-20.332,0-35.894-5.117-46.684-15.364
		c-10.792-10.242-16.188-24.592-16.188-43.047c0-7.349,1.173-14.581,3.52-21.7c2.346-7.115,5.9-13.449,10.674-19.001
		c4.768-5.55,10.791-10.049,18.063-13.489c7.273-3.438,15.754-5.162,25.451-5.162c7.509,0,14.582,1.289,21.233,3.871
		c6.644,2.581,12.432,6.491,17.358,11.729c4.927,5.243,8.798,11.812,11.612,19.706c2.814,7.899,4.224,17.165,4.224,27.8v7.508
		h-74.602c0.153,1.875,0.664,3.832,1.525,5.864c0.858,2.034,2.346,3.951,4.457,5.749c2.111,1.799,4.927,3.246,8.446,4.339
		c3.517,1.096,7.857,1.641,13.02,1.641c6.721,0,12.863-0.859,18.416-2.583c5.55-1.718,9.89-3.519,13.02-5.394L951.509,153.428z
		 M919.604,94.544c0-1.878-0.394-3.831-1.172-5.865c-0.784-2.03-1.994-3.907-3.637-5.629c-1.644-1.719-3.676-3.168-6.101-4.34
		c-2.426-1.174-5.359-1.759-8.797-1.759c-3.284,0-6.181,0.585-8.68,1.759c-2.504,1.172-4.538,2.621-6.099,4.34
		c-1.567,1.722-2.739,3.599-3.519,5.629c-0.785,2.034-1.174,3.986-1.174,5.865H919.604z"/>
</g>
<g id="wine-icon">
	<g>
		<path class="st0" d="M910.018,274.263h19.192l23.976-41.483l-10.971-18.681h-75.108l-9.814,18.681l23.97,41.483h17.411v45.555
			l-32.236,11.752h77.12l-33.539-11.976V274.263z M866.463,233.559l28.552-3.238l22.862,4.61l26.417-1.121l-18.6,34.642h-40.278
			L866.463,233.559z"/>
	</g>
</g>
<path id="beer-icon" class="st0" d="M719.657,213.089l3.916,50.419h12.6l3.629,68.062h58.364l3.634-68.062h12.6l3.917-50.419
	H719.657z M808.644,257.485l-12.119,0.488l-3.555,67.333l-48.845-0.118l-3.794-67.46l-11.753-0.118l-1.84-25.956l22.42-1.692
	l30.351,6.958l31.218-6.613L808.644,257.485z"/>
<g id="speaker-icon">
	<g>
		<path class="st0" d="M673.474,212.509l-35.46,34.494h-21.163v48.277h21.108l34.037,36.289l11.216-62.287L673.474,212.509z
			 M666.64,316.898l-26.276-26.875h-18.977v-37.812h19.02l27.375-27.499l-14.689,44.431L666.64,316.898z"/>
	</g>
</g>
</svg>
