<?xml version="1.0" encoding="utf-8"?>
<!-- Generator: Adobe Illustrator 16.0.0, SVG Export Plug-In . SVG Version: 6.00 Build 0)  -->
<!DOCTYPE svg PUBLIC "-//W3C//DTD SVG 1.1//EN" "http://www.w3.org/Graphics/SVG/1.1/DTD/svg11.dtd">
<svg version="1.1" xmlns="http://www.w3.org/2000/svg" xmlns:xlink="http://www.w3.org/1999/xlink" x="0px" y="0px" width="1200px"
	 height="400px" viewBox="0 0 1200 400" enable-background="new 0 0 1200 400" xml:space="preserve">
<g id="logo_1_">
	<g id="logo">
		<g>
			<g>
				<radialGradient id="SVGID_1_" cx="244.0303" cy="173.46" r="28.01" gradientUnits="userSpaceOnUse">
					<stop  offset="0" style="stop-color:#D37E74"/>
					<stop  offset="0.1025" style="stop-color:#BE716D"/>
					<stop  offset="0.4083" style="stop-color:#854C59"/>
					<stop  offset="0.6706" style="stop-color:#5C314A"/>
					<stop  offset="0.8763" style="stop-color:#422141"/>
					<stop  offset="1" style="stop-color:#391B3E"/>
				</radialGradient>
				<path fill="url(#SVGID_1_)" d="M218.994,142.763h24.944c4.295,0,7.854,0.476,10.678,1.426c2.82,0.953,5.062,2.179,6.718,3.68
					c1.658,1.505,2.809,3.224,3.452,5.155c0.644,1.932,0.967,3.852,0.967,5.753c0,1.779-0.292,3.376-0.875,4.787
					c-0.583,1.412-1.322,2.654-2.208,3.726c-0.891,1.074-1.856,1.98-2.9,2.715c-1.045,0.736-2.025,1.26-2.946,1.565
					c1.165,0.369,2.453,0.919,3.866,1.657c1.41,0.738,2.729,1.72,3.957,2.947c1.227,1.228,2.27,2.699,3.128,4.418
					c0.86,1.717,1.291,3.712,1.291,5.982c0,6.138-2.133,10.6-6.396,13.393c-4.267,2.793-10.511,4.188-18.733,4.188h-24.944V142.763z
					 M242.005,167.432c1.899,0,3.603-0.477,5.108-1.426c1.504-0.953,2.256-2.594,2.256-4.925c0-1.289-0.217-2.378-0.644-3.268
					c-0.433-0.889-1-1.58-1.706-2.071c-0.706-0.49-1.503-0.844-2.392-1.06c-0.891-0.213-1.765-0.322-2.624-0.322h-7.087v13.072
					H242.005z M243.201,192.557c0.921,0,1.933-0.075,3.039-0.229c1.104-0.153,2.118-0.473,3.037-0.964
					c0.921-0.491,1.687-1.228,2.301-2.212c0.613-0.978,0.92-2.298,0.92-3.956c0-1.533-0.307-2.776-0.92-3.726
					c-0.614-0.954-1.379-1.674-2.301-2.164c-0.919-0.492-1.932-0.829-3.037-1.015c-1.106-0.184-2.118-0.275-3.039-0.275h-8.283
					v14.541H243.201z"/>
				<radialGradient id="SVGID_2_" cx="296.4033" cy="182.5249" r="22.5573" gradientUnits="userSpaceOnUse">
					<stop  offset="0" style="stop-color:#D37E74"/>
					<stop  offset="0.1025" style="stop-color:#BE716D"/>
					<stop  offset="0.4083" style="stop-color:#854C59"/>
					<stop  offset="0.6706" style="stop-color:#5C314A"/>
					<stop  offset="0.8763" style="stop-color:#422141"/>
					<stop  offset="1" style="stop-color:#391B3E"/>
				</radialGradient>
				<path fill="url(#SVGID_2_)" d="M317.112,201.024c-0.736,0.433-1.672,0.908-2.806,1.429c-1.137,0.523-2.471,1.012-4.002,1.473
					c-1.537,0.461-3.253,0.86-5.156,1.196c-1.903,0.337-3.928,0.506-6.074,0.506c-7.979,0-14.083-2.008-18.318-6.027
					c-4.233-4.019-6.349-9.648-6.349-16.89c0-2.884,0.46-5.722,1.38-8.515c0.919-2.79,2.314-5.277,4.187-7.455
					c1.87-2.178,4.234-3.942,7.088-5.294c2.854-1.348,6.181-2.025,9.987-2.025c2.944,0,5.722,0.506,8.329,1.52
					c2.608,1.013,4.879,2.547,6.813,4.601c1.931,2.058,3.452,4.636,4.553,7.733c1.105,3.1,1.659,6.735,1.659,10.908v2.943h-29.27
					c0.06,0.737,0.259,1.505,0.599,2.301c0.338,0.801,0.921,1.551,1.748,2.256c0.829,0.708,1.935,1.275,3.316,1.704
					c1.378,0.43,3.081,0.644,5.106,0.644c2.639,0,5.048-0.337,7.225-1.012c2.18-0.676,3.881-1.378,5.111-2.119L317.112,201.024z
					 M304.596,177.924c0-0.737-0.156-1.504-0.46-2.302c-0.31-0.796-0.784-1.53-1.428-2.208c-0.645-0.674-1.444-1.243-2.394-1.705
					c-0.951-0.458-2.101-0.691-3.45-0.691c-1.289,0-2.424,0.232-3.407,0.691c-0.98,0.461-1.78,1.03-2.391,1.705
					c-0.616,0.677-1.075,1.412-1.383,2.208c-0.308,0.798-0.459,1.565-0.459,2.302H304.596z"/>
				<radialGradient id="SVGID_3_" cx="333.082" cy="173.46" r="22.3917" gradientUnits="userSpaceOnUse">
					<stop  offset="0" style="stop-color:#D37E74"/>
					<stop  offset="0.1025" style="stop-color:#BE716D"/>
					<stop  offset="0.4083" style="stop-color:#854C59"/>
					<stop  offset="0.6706" style="stop-color:#5C314A"/>
					<stop  offset="0.8763" style="stop-color:#422141"/>
					<stop  offset="1" style="stop-color:#391B3E"/>
				</radialGradient>
				<path fill="url(#SVGID_3_)" d="M325.305,142.763h15.554v61.394h-15.554V142.763z"/>
				<radialGradient id="SVGID_4_" cx="357.6592" cy="173.46" r="22.3916" gradientUnits="userSpaceOnUse">
					<stop  offset="0" style="stop-color:#D37E74"/>
					<stop  offset="0.1025" style="stop-color:#BE716D"/>
					<stop  offset="0.4083" style="stop-color:#854C59"/>
					<stop  offset="0.6706" style="stop-color:#5C314A"/>
					<stop  offset="0.8763" style="stop-color:#422141"/>
					<stop  offset="1" style="stop-color:#391B3E"/>
				</radialGradient>
				<path fill="url(#SVGID_4_)" d="M349.882,142.763h15.554v61.394h-15.554V142.763z"/>
				<radialGradient id="SVGID_5_" cx="394.6123" cy="182.5249" r="22.5575" gradientUnits="userSpaceOnUse">
					<stop  offset="0" style="stop-color:#D37E74"/>
					<stop  offset="0.1025" style="stop-color:#BE716D"/>
					<stop  offset="0.4083" style="stop-color:#854C59"/>
					<stop  offset="0.6706" style="stop-color:#5C314A"/>
					<stop  offset="0.8763" style="stop-color:#422141"/>
					<stop  offset="1" style="stop-color:#391B3E"/>
				</radialGradient>
				<path fill="url(#SVGID_5_)" d="M415.323,201.024c-0.735,0.433-1.672,0.908-2.806,1.429c-1.137,0.523-2.47,1.012-4.004,1.473
					c-1.535,0.461-3.254,0.86-5.156,1.196c-1.901,0.337-3.926,0.506-6.075,0.506c-7.976,0-14.083-2.008-18.316-6.027
					c-4.232-4.019-6.351-9.648-6.351-16.89c0-2.884,0.46-5.722,1.382-8.515c0.92-2.79,2.313-5.277,4.186-7.455
					s4.237-3.942,7.09-5.294c2.851-1.348,6.18-2.025,9.986-2.025c2.945,0,5.721,0.506,8.33,1.52
					c2.606,1.013,4.878,2.547,6.812,4.601c1.933,2.058,3.45,4.636,4.554,7.733c1.105,3.1,1.658,6.735,1.658,10.908v2.943h-29.268
					c0.06,0.737,0.259,1.505,0.596,2.301c0.339,0.801,0.921,1.551,1.751,2.256c0.829,0.708,1.933,1.275,3.312,1.704
					c1.381,0.43,3.083,0.644,5.108,0.644c2.639,0,5.047-0.337,7.226-1.012c2.177-0.676,3.88-1.378,5.111-2.119L415.323,201.024z
					 M402.804,177.924c0-0.737-0.153-1.504-0.458-2.302c-0.311-0.796-0.784-1.53-1.428-2.208c-0.646-0.674-1.442-1.243-2.393-1.705
					c-0.951-0.458-2.102-0.691-3.453-0.691c-1.288,0-2.424,0.232-3.402,0.691c-0.984,0.461-1.784,1.03-2.395,1.705
					c-0.613,0.677-1.075,1.412-1.381,2.208c-0.308,0.798-0.46,1.565-0.46,2.302H402.804z"/>
				<radialGradient id="SVGID_6_" cx="465.5781" cy="173.46" r="30.812" gradientUnits="userSpaceOnUse">
					<stop  offset="0" style="stop-color:#D37E74"/>
					<stop  offset="0.1025" style="stop-color:#BE716D"/>
					<stop  offset="0.4083" style="stop-color:#854C59"/>
					<stop  offset="0.6706" style="stop-color:#5C314A"/>
					<stop  offset="0.8763" style="stop-color:#422141"/>
					<stop  offset="1" style="stop-color:#391B3E"/>
				</radialGradient>
				<path fill="url(#SVGID_6_)" d="M434.651,142.763h17.763l13.807,42.708l12.884-42.708h17.399l-22.369,61.394h-17.21
					L434.651,142.763z"/>
				<radialGradient id="SVGID_7_" cx="519.0098" cy="183.123" r="22.0454" gradientUnits="userSpaceOnUse">
					<stop  offset="0" style="stop-color:#D37E74"/>
					<stop  offset="0.1025" style="stop-color:#BE716D"/>
					<stop  offset="0.4083" style="stop-color:#854C59"/>
					<stop  offset="0.6706" style="stop-color:#5C314A"/>
					<stop  offset="0.8763" style="stop-color:#422141"/>
					<stop  offset="1" style="stop-color:#391B3E"/>
				</radialGradient>
				<path fill="url(#SVGID_7_)" d="M497.149,160.895h15.555v23.657c0,2.148,0.444,3.864,1.334,5.152
					c0.888,1.289,2.468,1.937,4.741,1.937c1.226,0,2.255-0.217,3.082-0.648c0.83-0.428,1.503-1.012,2.025-1.747
					c0.52-0.738,0.89-1.549,1.106-2.438c0.215-0.891,0.32-1.797,0.32-2.717v-23.196h15.558v43.262h-15.004l-0.554-4.417
					c-0.859,1.042-1.841,1.931-2.942,2.667c-1.106,0.736-2.243,1.321-3.409,1.75c-1.166,0.429-2.285,0.735-3.36,0.922
					c-1.073,0.183-2.01,0.272-2.806,0.272c-2.27,0-4.358-0.321-6.259-0.964s-3.542-1.657-4.924-3.04
					c-1.38-1.379-2.47-3.142-3.267-5.291c-0.799-2.147-1.197-4.756-1.197-7.824V160.895z"/>
				<radialGradient id="SVGID_8_" cx="570.0474" cy="182.5249" r="22.558" gradientUnits="userSpaceOnUse">
					<stop  offset="0" style="stop-color:#D37E74"/>
					<stop  offset="0.1025" style="stop-color:#BE716D"/>
					<stop  offset="0.4083" style="stop-color:#854C59"/>
					<stop  offset="0.6706" style="stop-color:#5C314A"/>
					<stop  offset="0.8763" style="stop-color:#422141"/>
					<stop  offset="1" style="stop-color:#391B3E"/>
				</radialGradient>
				<path fill="url(#SVGID_8_)" d="M590.758,201.024c-0.738,0.433-1.675,0.908-2.809,1.429c-1.134,0.523-2.47,1.012-4.002,1.473
					c-1.534,0.461-3.256,0.86-5.155,1.196c-1.903,0.337-3.927,0.506-6.073,0.506c-7.978,0-14.083-2.008-18.317-6.027
					c-4.234-4.019-6.353-9.648-6.353-16.89c0-2.884,0.46-5.722,1.381-8.515c0.919-2.79,2.317-5.277,4.188-7.455
					c1.87-2.178,4.232-3.942,7.086-5.294c2.855-1.348,6.183-2.025,9.987-2.025c2.946,0,5.723,0.506,8.332,1.52
					c2.61,1.013,4.875,2.547,6.81,4.601c1.932,2.058,3.454,4.636,4.553,7.733c1.106,3.1,1.661,6.735,1.661,10.908v2.943h-29.272
					c0.062,0.737,0.261,1.505,0.598,2.301c0.339,0.801,0.921,1.551,1.75,2.256c0.828,0.708,1.933,1.275,3.316,1.704
					c1.378,0.43,3.081,0.644,5.105,0.644c2.639,0,5.047-0.337,7.228-1.012c2.176-0.676,3.878-1.378,5.107-2.119L590.758,201.024z
					 M578.238,177.924c0-0.737-0.152-1.504-0.458-2.302c-0.309-0.796-0.784-1.53-1.427-2.208c-0.644-0.674-1.442-1.243-2.394-1.705
					c-0.951-0.458-2.103-0.691-3.45-0.691c-1.29,0-2.425,0.232-3.407,0.691c-0.982,0.461-1.779,1.03-2.392,1.705
					c-0.617,0.677-1.075,1.412-1.382,2.208c-0.306,0.798-0.459,1.565-0.459,2.302H578.238z"/>
			</g>
		</g>
		<g>
			<g>
				
					<radialGradient id="SVGID_9_" cx="467.5073" cy="84.1582" r="269.5747" gradientTransform="matrix(1 0 0 1 11 18)" gradientUnits="userSpaceOnUse">
					<stop  offset="0" style="stop-color:#D37E74"/>
					<stop  offset="0.1025" style="stop-color:#BE716D"/>
					<stop  offset="0.4083" style="stop-color:#854C59"/>
					<stop  offset="0.6706" style="stop-color:#5C314A"/>
					<stop  offset="0.8763" style="stop-color:#422141"/>
					<stop  offset="1" style="stop-color:#391B3E"/>
				</radialGradient>
				<path fill="url(#SVGID_9_)" d="M218.994,142.763h24.944c4.295,0,7.854,0.476,10.678,1.426c2.82,0.953,5.062,2.179,6.718,3.68
					c1.658,1.505,2.809,3.224,3.452,5.155c0.644,1.932,0.967,3.852,0.967,5.753c0,1.779-0.292,3.376-0.875,4.787
					c-0.583,1.412-1.322,2.654-2.208,3.726c-0.891,1.074-1.856,1.98-2.9,2.715c-1.045,0.736-2.025,1.26-2.946,1.565
					c1.165,0.369,2.453,0.919,3.866,1.657c1.41,0.738,2.729,1.72,3.957,2.947c1.227,1.228,2.27,2.699,3.128,4.418
					c0.86,1.717,1.291,3.712,1.291,5.982c0,6.138-2.133,10.6-6.396,13.393c-4.267,2.793-10.511,4.188-18.733,4.188h-24.944V142.763z
					 M242.005,167.432c1.899,0,3.603-0.477,5.108-1.426c1.504-0.953,2.256-2.594,2.256-4.925c0-1.289-0.217-2.378-0.644-3.268
					c-0.433-0.889-1-1.58-1.706-2.071c-0.706-0.49-1.503-0.844-2.392-1.06c-0.891-0.213-1.765-0.322-2.624-0.322h-7.087v13.072
					H242.005z M243.201,192.557c0.921,0,1.933-0.075,3.039-0.229c1.104-0.153,2.118-0.473,3.037-0.964
					c0.921-0.491,1.687-1.228,2.301-2.212c0.613-0.978,0.92-2.298,0.92-3.956c0-1.533-0.307-2.776-0.92-3.726
					c-0.614-0.954-1.379-1.674-2.301-2.164c-0.919-0.492-1.932-0.829-3.037-1.015c-1.106-0.184-2.118-0.275-3.039-0.275h-8.283
					v14.541H243.201z"/>
				
					<radialGradient id="SVGID_10_" cx="467.5073" cy="84.1582" r="269.5747" gradientTransform="matrix(1 0 0 1 11 18)" gradientUnits="userSpaceOnUse">
					<stop  offset="0" style="stop-color:#D37E74"/>
					<stop  offset="0.1025" style="stop-color:#BE716D"/>
					<stop  offset="0.4083" style="stop-color:#854C59"/>
					<stop  offset="0.6706" style="stop-color:#5C314A"/>
					<stop  offset="0.8763" style="stop-color:#422141"/>
					<stop  offset="1" style="stop-color:#391B3E"/>
				</radialGradient>
				<path fill="url(#SVGID_10_)" d="M317.112,201.024c-0.736,0.433-1.672,0.908-2.806,1.429c-1.137,0.523-2.471,1.012-4.002,1.473
					c-1.537,0.461-3.253,0.86-5.156,1.196c-1.903,0.337-3.928,0.506-6.074,0.506c-7.979,0-14.083-2.008-18.318-6.027
					c-4.233-4.019-6.349-9.648-6.349-16.89c0-2.884,0.46-5.722,1.38-8.515c0.919-2.79,2.314-5.277,4.187-7.455
					c1.87-2.178,4.234-3.942,7.088-5.294c2.854-1.348,6.181-2.025,9.987-2.025c2.944,0,5.722,0.506,8.329,1.52
					c2.608,1.013,4.879,2.547,6.813,4.601c1.931,2.058,3.452,4.636,4.553,7.733c1.105,3.1,1.659,6.735,1.659,10.908v2.943h-29.27
					c0.06,0.737,0.259,1.505,0.599,2.301c0.338,0.801,0.921,1.551,1.748,2.256c0.829,0.708,1.935,1.275,3.316,1.704
					c1.378,0.43,3.081,0.644,5.106,0.644c2.639,0,5.048-0.337,7.225-1.012c2.18-0.676,3.881-1.378,5.111-2.119L317.112,201.024z
					 M304.596,177.924c0-0.737-0.156-1.504-0.46-2.302c-0.31-0.796-0.784-1.53-1.428-2.208c-0.645-0.674-1.444-1.243-2.394-1.705
					c-0.951-0.458-2.101-0.691-3.45-0.691c-1.289,0-2.424,0.232-3.407,0.691c-0.98,0.461-1.78,1.03-2.391,1.705
					c-0.616,0.677-1.075,1.412-1.383,2.208c-0.308,0.798-0.459,1.565-0.459,2.302H304.596z"/>
				
					<radialGradient id="SVGID_11_" cx="467.5073" cy="84.1582" r="269.5747" gradientTransform="matrix(1 0 0 1 11 18)" gradientUnits="userSpaceOnUse">
					<stop  offset="0" style="stop-color:#D37E74"/>
					<stop  offset="0.1025" style="stop-color:#BE716D"/>
					<stop  offset="0.4083" style="stop-color:#854C59"/>
					<stop  offset="0.6706" style="stop-color:#5C314A"/>
					<stop  offset="0.8763" style="stop-color:#422141"/>
					<stop  offset="1" style="stop-color:#391B3E"/>
				</radialGradient>
				<path fill="url(#SVGID_11_)" d="M325.305,142.763h15.554v61.394h-15.554V142.763z"/>
				
					<radialGradient id="SVGID_12_" cx="467.5073" cy="84.1582" r="269.5747" gradientTransform="matrix(1 0 0 1 11 18)" gradientUnits="userSpaceOnUse">
					<stop  offset="0" style="stop-color:#D37E74"/>
					<stop  offset="0.1025" style="stop-color:#BE716D"/>
					<stop  offset="0.4083" style="stop-color:#854C59"/>
					<stop  offset="0.6706" style="stop-color:#5C314A"/>
					<stop  offset="0.8763" style="stop-color:#422141"/>
					<stop  offset="1" style="stop-color:#391B3E"/>
				</radialGradient>
				<path fill="url(#SVGID_12_)" d="M349.882,142.763h15.554v61.394h-15.554V142.763z"/>
				
					<radialGradient id="SVGID_13_" cx="467.5073" cy="84.1582" r="269.5747" gradientTransform="matrix(1 0 0 1 11 18)" gradientUnits="userSpaceOnUse">
					<stop  offset="0" style="stop-color:#D37E74"/>
					<stop  offset="0.1025" style="stop-color:#BE716D"/>
					<stop  offset="0.4083" style="stop-color:#854C59"/>
					<stop  offset="0.6706" style="stop-color:#5C314A"/>
					<stop  offset="0.8763" style="stop-color:#422141"/>
					<stop  offset="1" style="stop-color:#391B3E"/>
				</radialGradient>
				<path fill="url(#SVGID_13_)" d="M415.323,201.024c-0.735,0.433-1.672,0.908-2.806,1.429c-1.137,0.523-2.47,1.012-4.004,1.473
					c-1.535,0.461-3.254,0.86-5.156,1.196c-1.901,0.337-3.926,0.506-6.075,0.506c-7.976,0-14.083-2.008-18.316-6.027
					c-4.232-4.019-6.351-9.648-6.351-16.89c0-2.884,0.46-5.722,1.382-8.515c0.92-2.79,2.313-5.277,4.186-7.455
					s4.237-3.942,7.09-5.294c2.851-1.348,6.18-2.025,9.986-2.025c2.945,0,5.721,0.506,8.33,1.52
					c2.606,1.013,4.878,2.547,6.812,4.601c1.933,2.058,3.45,4.636,4.554,7.733c1.105,3.1,1.658,6.735,1.658,10.908v2.943h-29.268
					c0.06,0.737,0.259,1.505,0.596,2.301c0.339,0.801,0.921,1.551,1.751,2.256c0.829,0.708,1.933,1.275,3.312,1.704
					c1.381,0.43,3.083,0.644,5.108,0.644c2.639,0,5.047-0.337,7.226-1.012c2.177-0.676,3.88-1.378,5.111-2.119L415.323,201.024z
					 M402.804,177.924c0-0.737-0.153-1.504-0.458-2.302c-0.311-0.796-0.784-1.53-1.428-2.208c-0.646-0.674-1.442-1.243-2.393-1.705
					c-0.951-0.458-2.102-0.691-3.453-0.691c-1.288,0-2.424,0.232-3.402,0.691c-0.984,0.461-1.784,1.03-2.395,1.705
					c-0.613,0.677-1.075,1.412-1.381,2.208c-0.308,0.798-0.46,1.565-0.46,2.302H402.804z"/>
				
					<radialGradient id="SVGID_14_" cx="467.5073" cy="84.1582" r="269.5747" gradientTransform="matrix(1 0 0 1 11 18)" gradientUnits="userSpaceOnUse">
					<stop  offset="0" style="stop-color:#D37E74"/>
					<stop  offset="0.1025" style="stop-color:#BE716D"/>
					<stop  offset="0.4083" style="stop-color:#854C59"/>
					<stop  offset="0.6706" style="stop-color:#5C314A"/>
					<stop  offset="0.8763" style="stop-color:#422141"/>
					<stop  offset="1" style="stop-color:#391B3E"/>
				</radialGradient>
				<path fill="url(#SVGID_14_)" d="M434.651,142.763h17.763l13.807,42.708l12.884-42.708h17.399l-22.369,61.394h-17.21
					L434.651,142.763z"/>
				
					<radialGradient id="SVGID_15_" cx="467.5073" cy="84.1582" r="269.5747" gradientTransform="matrix(1 0 0 1 11 18)" gradientUnits="userSpaceOnUse">
					<stop  offset="0" style="stop-color:#D37E74"/>
					<stop  offset="0.1025" style="stop-color:#BE716D"/>
					<stop  offset="0.4083" style="stop-color:#854C59"/>
					<stop  offset="0.6706" style="stop-color:#5C314A"/>
					<stop  offset="0.8763" style="stop-color:#422141"/>
					<stop  offset="1" style="stop-color:#391B3E"/>
				</radialGradient>
				<path fill="url(#SVGID_15_)" d="M497.149,160.895h15.555v23.657c0,2.148,0.444,3.864,1.334,5.152
					c0.888,1.289,2.468,1.937,4.741,1.937c1.226,0,2.255-0.217,3.082-0.648c0.83-0.428,1.503-1.012,2.025-1.747
					c0.52-0.738,0.89-1.549,1.106-2.438c0.215-0.891,0.32-1.797,0.32-2.717v-23.196h15.558v43.262h-15.004l-0.554-4.417
					c-0.859,1.042-1.841,1.931-2.942,2.667c-1.106,0.736-2.243,1.321-3.409,1.75c-1.166,0.429-2.285,0.735-3.36,0.922
					c-1.073,0.183-2.01,0.272-2.806,0.272c-2.27,0-4.358-0.321-6.259-0.964s-3.542-1.657-4.924-3.04
					c-1.38-1.379-2.47-3.142-3.267-5.291c-0.799-2.147-1.197-4.756-1.197-7.824V160.895z"/>
				
					<radialGradient id="SVGID_16_" cx="467.5073" cy="84.1582" r="269.5747" gradientTransform="matrix(1 0 0 1 11 18)" gradientUnits="userSpaceOnUse">
					<stop  offset="0" style="stop-color:#D37E74"/>
					<stop  offset="0.1025" style="stop-color:#BE716D"/>
					<stop  offset="0.4083" style="stop-color:#854C59"/>
					<stop  offset="0.6706" style="stop-color:#5C314A"/>
					<stop  offset="0.8763" style="stop-color:#422141"/>
					<stop  offset="1" style="stop-color:#391B3E"/>
				</radialGradient>
				<path fill="url(#SVGID_16_)" d="M590.758,201.024c-0.738,0.433-1.675,0.908-2.809,1.429c-1.134,0.523-2.47,1.012-4.002,1.473
					c-1.534,0.461-3.256,0.86-5.155,1.196c-1.903,0.337-3.927,0.506-6.073,0.506c-7.978,0-14.083-2.008-18.317-6.027
					c-4.234-4.019-6.353-9.648-6.353-16.89c0-2.884,0.46-5.722,1.381-8.515c0.919-2.79,2.317-5.277,4.188-7.455
					c1.87-2.178,4.232-3.942,7.086-5.294c2.855-1.348,6.183-2.025,9.987-2.025c2.946,0,5.723,0.506,8.332,1.52
					c2.61,1.013,4.875,2.547,6.81,4.601c1.932,2.058,3.454,4.636,4.553,7.733c1.106,3.1,1.661,6.735,1.661,10.908v2.943h-29.272
					c0.062,0.737,0.261,1.505,0.598,2.301c0.339,0.801,0.921,1.551,1.75,2.256c0.828,0.708,1.933,1.275,3.316,1.704
					c1.378,0.43,3.081,0.644,5.105,0.644c2.639,0,5.047-0.337,7.228-1.012c2.176-0.676,3.878-1.378,5.107-2.119L590.758,201.024z
					 M578.238,177.924c0-0.737-0.152-1.504-0.458-2.302c-0.309-0.796-0.784-1.53-1.427-2.208c-0.644-0.674-1.442-1.243-2.394-1.705
					c-0.951-0.458-2.103-0.691-3.45-0.691c-1.29,0-2.425,0.232-3.407,0.691c-0.982,0.461-1.779,1.03-2.392,1.705
					c-0.617,0.677-1.075,1.412-1.382,2.208c-0.306,0.798-0.459,1.565-0.459,2.302H578.238z"/>
			</g>
			<g>
				<g>
					
						<radialGradient id="SVGID_17_" cx="467.5073" cy="84.1582" r="269.5747" gradientTransform="matrix(1 0 0 1 11 18)" gradientUnits="userSpaceOnUse">
						<stop  offset="0" style="stop-color:#D37E74"/>
						<stop  offset="0.1025" style="stop-color:#BE716D"/>
						<stop  offset="0.4083" style="stop-color:#854C59"/>
						<stop  offset="0.6706" style="stop-color:#5C314A"/>
						<stop  offset="0.8763" style="stop-color:#422141"/>
						<stop  offset="1" style="stop-color:#391B3E"/>
					</radialGradient>
					<path fill="url(#SVGID_17_)" d="M574.476,248.439h7.533l9.404-16.278l-4.302-7.326h-29.47l-3.851,7.326l9.405,16.278h6.83
						v17.874l-12.646,4.611h30.257l-13.16-4.699V248.439z M557.388,232.467l11.202-1.271l8.972,1.808l10.363-0.436l-7.296,13.588
						h-15.804L557.388,232.467z"/>
				</g>
				<g>
					
						<radialGradient id="SVGID_18_" cx="467.5073" cy="84.1582" r="269.5747" gradientTransform="matrix(1 0 0 1 11 18)" gradientUnits="userSpaceOnUse">
						<stop  offset="0" style="stop-color:#D37E74"/>
						<stop  offset="0.1025" style="stop-color:#BE716D"/>
						<stop  offset="0.4083" style="stop-color:#854C59"/>
						<stop  offset="0.6706" style="stop-color:#5C314A"/>
						<stop  offset="0.8763" style="stop-color:#422141"/>
						<stop  offset="1" style="stop-color:#391B3E"/>
					</radialGradient>
					<path fill="url(#SVGID_18_)" d="M587.111,224.835l4.302,7.326l-9.404,16.278h-7.533v17.786l13.16,4.699h-30.257l12.646-4.611
						v-17.874h-6.83l-9.405-16.278l3.851-7.326H587.111 M564.826,246.157h15.804l7.296-13.588l-10.363,0.436l-8.972-1.808
						l-11.202,1.271L564.826,246.157 M587.684,223.835h-0.572h-29.47h-0.604l-0.281,0.535l-3.851,7.326l-0.256,0.488l0.276,0.478
						l9.405,16.278l0.289,0.5h0.577h5.83v16.174l-11.989,4.372l-5.319,1.939h5.662h30.257h5.774l-5.438-1.942l-12.497-4.462v-16.081
						h6.533h0.577l0.289-0.5l9.404-16.278l0.292-0.504l-0.295-0.502l-4.302-7.326L587.684,223.835L587.684,223.835z
						 M558.975,233.294l9.572-1.086l8.818,1.777l0.118,0.024l0.121-0.005l8.61-0.362l-6.183,11.516H565.42L558.975,233.294
						L558.975,233.294z"/>
				</g>
			</g>
			<g>
				<g>
					
						<radialGradient id="SVGID_19_" cx="467.5073" cy="84.1582" r="269.5747" gradientTransform="matrix(1 0 0 1 11 18)" gradientUnits="userSpaceOnUse">
						<stop  offset="0" style="stop-color:#D37E74"/>
						<stop  offset="0.1025" style="stop-color:#BE716D"/>
						<stop  offset="0.4083" style="stop-color:#854C59"/>
						<stop  offset="0.6706" style="stop-color:#5C314A"/>
						<stop  offset="0.8763" style="stop-color:#422141"/>
						<stop  offset="1" style="stop-color:#391B3E"/>
					</radialGradient>
					<path fill="url(#SVGID_19_)" d="M481.666,223.764l-13.909,13.533h-8.307v18.943h8.283l13.354,14.238l4.402-24.439
						L481.666,223.764z M478.988,264.721l-10.312-10.545h-7.447v-14.834h7.462l10.743-10.791l-5.764,17.432L478.988,264.721z"/>
				</g>
				<g>
					
						<radialGradient id="SVGID_20_" cx="467.5073" cy="84.1582" r="269.5747" gradientTransform="matrix(1 0 0 1 11 18)" gradientUnits="userSpaceOnUse">
						<stop  offset="0" style="stop-color:#D37E74"/>
						<stop  offset="0.1025" style="stop-color:#BE716D"/>
						<stop  offset="0.4083" style="stop-color:#854C59"/>
						<stop  offset="0.6706" style="stop-color:#5C314A"/>
						<stop  offset="0.8763" style="stop-color:#422141"/>
						<stop  offset="1" style="stop-color:#391B3E"/>
					</radialGradient>
					<path fill="url(#SVGID_20_)" d="M481.666,223.764l3.823,22.275l-4.402,24.439l-13.354-14.238h-8.283v-18.943h8.307
						L481.666,223.764 M461.229,254.176h7.447l10.312,10.545l-5.318-18.738l5.764-17.432l-10.743,10.791h-7.462V254.176
						 M482.33,221.722l-1.361,1.325l-13.618,13.25h-7.901h-1v1v18.943v1h1h7.85l13.058,13.922l1.361,1.451l0.353-1.958l4.402-24.439
						l0.031-0.173l-0.03-0.173l-3.823-22.275L482.33,221.722L482.33,221.722z M462.229,240.342h6.462h0.416l0.293-0.294l7.755-7.79
						l-4.435,13.412l-0.097,0.292l0.084,0.295l4.243,14.952l-7.56-7.731l-0.294-0.301h-0.421h-6.447V240.342L462.229,240.342z"/>
				</g>
			</g>
			
				<radialGradient id="SVGID_21_" cx="467.5073" cy="84.1582" r="269.5747" gradientTransform="matrix(1 0 0 1 11 18)" gradientUnits="userSpaceOnUse">
				<stop  offset="0" style="stop-color:#D37E74"/>
				<stop  offset="0.1025" style="stop-color:#BE716D"/>
				<stop  offset="0.4083" style="stop-color:#854C59"/>
				<stop  offset="0.6706" style="stop-color:#5C314A"/>
				<stop  offset="0.8763" style="stop-color:#422141"/>
				<stop  offset="1" style="stop-color:#391B3E"/>
			</radialGradient>
			<path fill="url(#SVGID_21_)" d="M499.79,224.831l1.537,19.779h4.943l1.422,26.706h22.902l1.424-26.706h4.942l1.54-19.779H499.79z
				 M534.702,242.25l-4.755,0.191l-1.393,26.418l-19.166-0.047l-1.488-26.469l-4.612-0.045l-0.721-10.183l8.795-0.665l11.908,2.73
				l12.247-2.597L534.702,242.25z"/>
		</g>
	</g>
	<g id="wires_3_" opacity="0.8">
		<polyline fill="none" stroke="#391B3E" stroke-width="0.5" stroke-miterlimit="10" stroke-opacity="0.3" points="275.786,138.4 
			306.444,142.732 291.115,174.391 		"/>
		<polyline fill="none" stroke="#391B3E" stroke-width="0.5" stroke-miterlimit="10" stroke-opacity="0.3" points="274.452,96.743 
			306.444,142.732 327.106,158.729 359.1,124.737 		"/>
		<path fill="none" stroke="#391B3E" stroke-width="0.5" stroke-miterlimit="10" stroke-opacity="0.3" d="M318.775,118.738
			l-12.331,23.994L318.775,118.738z"/>
		
			<line fill="none" stroke="#391B3E" stroke-width="0.5" stroke-miterlimit="10" stroke-opacity="0.3" x1="327.106" y1="158.729" x2="318.775" y2="118.738"/>
		<polygon fill="none" stroke="#391B3E" stroke-width="0.5" stroke-miterlimit="10" stroke-opacity="0.3" points="359.1,124.737 
			394.423,108.74 458.741,129.069 424.416,145.065 431.504,171.653 408.42,171.059 377.427,180.723 424.416,145.065 394.423,108.74 
			384.759,129.403 377.427,180.723 		"/>
		<polyline fill="none" stroke="#391B3E" stroke-width="0.5" stroke-miterlimit="10" stroke-opacity="0.3" points="448.286,220.317 
			460.074,213.715 451.743,215.048 450.742,196.052 		"/>
		<polyline fill="none" stroke="#391B3E" stroke-width="0.5" stroke-miterlimit="10" stroke-opacity="0.3" points="563.375,173.924 
			549.719,163.727 563.049,207.717 548.386,229.711 563.375,245.785 539.688,248.154 548.386,229.711 539.688,173.924 
			549.719,163.727 563.716,158.395 551.053,150.064 		"/>
		<polyline fill="none" stroke="#391B3E" stroke-width="0.5" stroke-miterlimit="10" stroke-opacity="0.3" points="534.357,173.924 
			523.058,171.059 514.395,185.721 523.058,171.059 504.729,159.395 482.558,171.545 		"/>
		<polyline fill="none" stroke="#391B3E" stroke-width="0.5" stroke-miterlimit="10" stroke-opacity="0.3" points="589.043,165.726 
			583.711,158.063 603.706,151.731 590.375,134.067 569.713,142.065 573.713,110.407 544.72,123.737 498.398,131.069 
			476.569,111.24 458.741,129.069 456.409,149.731 498.398,131.069 537.055,141.733 534.357,173.924 514.395,185.721 
			482.558,171.545 498.398,131.069 504.729,159.395 537.055,141.733 544.72,123.737 569.713,142.065 537.055,141.733 
			549.719,163.727 551.053,150.064 569.713,142.065 583.711,158.063 568.706,173.924 563.716,158.395 583.711,158.063 
			603.706,151.731 605.426,172.542 589.043,165.726 592.042,177.058 568.706,173.924 		"/>
		<polygon fill="none" stroke="#391B3E" stroke-width="0.5" stroke-miterlimit="10" stroke-opacity="0.3" points="408.42,171.059 
			393.091,182.056 331.439,193.719 403.754,197.387 411.085,214.048 392.424,219.381 403.754,197.387 		"/>
		<polygon fill="none" stroke="#391B3E" stroke-width="0.5" stroke-miterlimit="10" stroke-opacity="0.3" points="411.085,214.048 
			408.42,171.059 419.417,179.39 431.361,171.545 419.417,179.39 		"/>
		<polyline fill="none" stroke="#391B3E" stroke-width="0.5" stroke-miterlimit="10" stroke-opacity="0.3" points="377.427,180.723 
			391.424,205.384 392.424,219.381 397.089,229.045 383.239,243.81 377.093,225.045 355.625,208.644 		"/>
		<polyline fill="none" stroke="#391B3E" stroke-width="0.5" stroke-miterlimit="10" stroke-opacity="0.3" points="377.427,180.723 
			393.091,182.056 402.421,198.052 391.424,205.384 378.094,212.715 339.115,173.924 377.093,225.045 397.089,229.045 
			397.352,244.699 383.239,243.81 389.091,262.37 397.352,244.699 414.084,275.7 420.75,264.036 427.083,249.706 452.408,248.706 
			448.286,220.317 402.188,246.969 420.75,264.036 462.074,278.366 427.083,249.706 411.444,214.455 452.408,248.706 
			460.723,246.969 462.074,278.366 482.337,245.785 465.56,244.699 473.071,232.378 482.337,171.555 424.416,145.065 
			384.759,129.403 359.1,124.737 		"/>
		
			<line fill="none" stroke="#391B3E" stroke-width="0.5" stroke-miterlimit="10" stroke-opacity="0.3" x1="397.089" y1="229.045" x2="411.085" y2="214.048"/>
		<polyline fill="none" stroke="#391B3E" stroke-width="0.5" stroke-miterlimit="10" stroke-opacity="0.3" points="514.395,185.721 
			527.058,195.387 509.728,193.387 482.337,171.555 		"/>
		<polyline fill="none" stroke="#391B3E" stroke-width="0.5" stroke-miterlimit="10" stroke-opacity="0.3" points="509.728,193.387 
			534.357,233.546 527.058,195.387 534.357,173.924 		"/>
		<polyline fill="none" stroke="#391B3E" stroke-width="0.5" stroke-miterlimit="10" stroke-opacity="0.3" points="592.042,177.058 
			570.285,207.683 568.706,173.924 		"/>
		
			<line fill="none" stroke="#391B3E" stroke-width="0.5" stroke-miterlimit="10" stroke-opacity="0.3" x1="456.409" y1="149.731" x2="424.416" y2="145.065"/>
		<polyline fill="none" stroke="#391B3E" stroke-width="0.5" stroke-miterlimit="10" stroke-opacity="0.3" points="267.75,173.924 
			241.46,143.065 275.786,138.4 274.452,96.743 318.775,118.738 359.1,124.737 339.115,173.924 327.106,158.729 309.408,181.999 
			309.111,182.389 338.047,174.226 339.115,173.924 331.439,193.719 320.441,198.052 339.099,215.126 331.439,193.719 
			331.439,193.719 309.408,181.999 		"/>
		<polyline fill="none" stroke="#391B3E" stroke-width="0.5" stroke-miterlimit="10" stroke-opacity="0.3" points="337.985,214.57 
			312.934,233.497 332.14,236.28 339.115,245.785 317.388,260.497 320.728,246.303 312.934,233.497 		"/>
		<polyline fill="none" stroke="#391B3E" stroke-width="0.5" stroke-miterlimit="10" stroke-opacity="0.3" points="291.779,246.022 
			283.986,273.859 269.79,264.673 267.75,245.785 221.357,301.972 277.026,303.642 256.986,280.817 269.79,264.673 256.986,280.817 
			283.986,273.859 317.388,260.497 291.779,246.022 320.728,246.303 332.14,236.28 339.099,215.126 		"/>
		<polygon fill="none" stroke="#391B3E" stroke-width="0.5" stroke-miterlimit="10" stroke-opacity="0.3" points="320.728,290.838 
			277.026,303.642 283.986,273.859 		"/>
		<polygon fill="none" stroke="#391B3E" stroke-width="0.5" stroke-miterlimit="10" stroke-opacity="0.3" points="308.48,275.807 
			320.728,290.838 331.027,268.569 317.388,260.497 		"/>
		<polyline fill="none" stroke="#391B3E" stroke-width="0.5" stroke-miterlimit="10" stroke-opacity="0.3" points="283.986,273.859 
			308.48,275.807 331.027,268.569 347.728,262.445 339.115,245.785 354.13,253.261 344.446,245.785 353.572,241.012 
			355.625,208.644 		"/>
		<polygon fill="none" stroke="#391B3E" stroke-width="0.5" stroke-miterlimit="10" stroke-opacity="0.3" points="353.572,241.012 
			379.487,247.562 360.811,249.642 354.13,253.261 370.831,267.456 347.728,262.445 354.13,253.261 		"/>
		<polygon fill="none" stroke="#391B3E" stroke-width="0.5" stroke-miterlimit="10" stroke-opacity="0.3" points="389.091,262.37 
			360.811,249.642 370.831,267.456 376.398,263.003 		"/>
		<polyline fill="none" stroke="#391B3E" stroke-width="0.5" stroke-miterlimit="10" stroke-opacity="0.3" points="376.398,263.003 
			390.037,281.374 414.084,275.7 389.091,262.37 		"/>
		<polyline fill="none" stroke="#391B3E" stroke-width="0.5" stroke-miterlimit="10" stroke-opacity="0.3" points="347.728,262.445 
			336.594,282.487 369.717,267.178 390.037,281.374 320.728,290.838 336.594,282.487 		"/>
		<polygon fill="none" stroke="#391B3E" stroke-width="0.5" stroke-miterlimit="10" stroke-opacity="0.3" points="487.821,245.71 
			511.676,269.684 517.521,239.342 		"/>
		<polyline fill="none" stroke="#391B3E" stroke-width="0.5" stroke-miterlimit="10" stroke-opacity="0.3" points="509.449,230.992 
			517.521,239.342 538.397,247.416 502.49,214.848 509.449,230.992 487.821,245.71 502.49,214.013 487.668,186.165 		"/>
		<path fill="none" stroke="#391B3E" stroke-width="0.5" stroke-miterlimit="10" stroke-opacity="0.3" d="M283.771,98.405
			l-23.973-4.089L283.771,98.405z"/>
		
			<line fill="none" stroke="#391B3E" stroke-width="0.5" stroke-miterlimit="10" stroke-opacity="0.3" x1="251.654" y1="116.419" x2="283.771" y2="98.405"/>
		<polygon fill="none" stroke="#391B3E" stroke-width="0.5" stroke-miterlimit="10" stroke-opacity="0.3" points="242.104,148.704 
			267.992,177.576 267.968,245.028 242.381,217.111 219.161,231.875 212.778,209.681 194.232,183.036 242.381,217.111 
			267.992,177.576 245.38,174.579 194.232,183.036 		"/>
		<polyline fill="none" stroke="#391B3E" stroke-width="0.5" stroke-miterlimit="10" stroke-opacity="0.3" points="227.954,261.881 
			240.469,245.644 265.345,245.352 282.398,253.663 268.505,209.651 265.345,245.352 253.015,232.862 268.875,209.535 		"/>
		<polygon fill="none" stroke="#391B3E" stroke-width="0.5" stroke-miterlimit="10" stroke-opacity="0.3" points="263.121,189.663 
			249.506,179.471 234.353,175.689 239.224,192.797 226.889,203.623 217.241,189.026 239.224,192.797 		"/>
		<polygon fill="none" stroke="#391B3E" stroke-width="0.5" stroke-miterlimit="10" stroke-opacity="0.3" points="226.889,203.623 
			263.121,189.663 258.943,201.379 268.929,209.518 258.943,201.379 		"/>
		
			<line fill="none" stroke="#391B3E" stroke-width="0.5" stroke-miterlimit="10" stroke-opacity="0.3" x1="461.563" y1="177.206" x2="456.893" y2="148.437"/>
		<polygon fill="none" stroke="#391B3E" stroke-width="0.5" stroke-miterlimit="10" stroke-opacity="0.3" points="220.988,212.802 
			222.391,236.856 215.535,221.364 210.611,216.604 202.94,234.812 200.978,213.594 210.611,216.604 		"/>
		<polygon fill="none" stroke="#391B3E" stroke-width="0.5" stroke-miterlimit="10" stroke-opacity="0.3" points="212.268,249.131 
			215.535,221.364 202.94,234.812 208.279,238.39 		"/>
		<polygon fill="none" stroke="#391B3E" stroke-width="0.5" stroke-miterlimit="10" stroke-opacity="0.3" points="475.178,214.348 
			472.125,193.249 462.029,176.472 451.199,195.966 430.667,194.646 435.035,173.151 451.199,195.966 		"/>
	</g>
	<g>
		<g>
			<g>
				<circle fill="#E63976" cx="938.299" cy="136.899" r="37.936"/>
				<circle fill="#FEFCE7" cx="1076.526" cy="263.487" r="37.936"/>
				<circle fill="#1B0E0E" cx="938.485" cy="263.487" r="37.937"/>
				<circle fill="#DCB43A" cx="1076.339" cy="136.899" r="37.936"/>
			</g>
		</g>
		<defs>
			<filter id="Adobe_OpacityMaskFilter" filterUnits="userSpaceOnUse" x="900.363" y="98.963" width="214.099" height="202.458">
				
					<feColorMatrix  type="matrix" values="-1 0 0 0 1  0 -1 0 0 1  0 0 -1 0 1  0 0 0 1 0" color-interpolation-filters="sRGB" result="source"/>
			</filter>
		</defs>
		<mask maskUnits="userSpaceOnUse" x="900.363" y="98.963" width="214.099" height="202.458" id="SVGID_22_">
			<g filter="url(#Adobe_OpacityMaskFilter)">
				<image overflow="visible" width="219" height="207" xlink:href="8B621517D2CCDC.jpg"  transform="matrix(1 0 0 1 898 96.5)">
				</image>
			</g>
		</mask>
		<g opacity="0.2" mask="url(#SVGID_22_)">
			<g>
				<circle fill="#0F0E0F" cx="938.299" cy="136.899" r="37.936"/>
				<circle fill="#0F0E0F" cx="1076.526" cy="263.487" r="37.936"/>
				<circle fill="#0F0E0F" cx="938.485" cy="263.487" r="37.937"/>
				<circle fill="#0F0E0F" cx="1076.339" cy="136.899" r="37.936"/>
			</g>
		</g>
	</g>
</g>
<g id="guides">
</g>
</svg>
