<?xml version="1.0" encoding="utf-8"?>
<!-- Generator: Adobe Illustrator 16.0.0, SVG Export Plug-In . SVG Version: 6.00 Build 0)  -->
<!DOCTYPE svg PUBLIC "-//W3C//DTD SVG 1.1//EN" "http://www.w3.org/Graphics/SVG/1.1/DTD/svg11.dtd">
<svg version="1.1" id="Layer_1" xmlns="http://www.w3.org/2000/svg" xmlns:xlink="http://www.w3.org/1999/xlink" x="0px" y="0px"
	 width="897.408px" height="398.161px" viewBox="0 0 897.408 398.161" enable-background="new 0 0 897.408 398.161"
	 xml:space="preserve">
<g id="Layer_1_1_">
	<g>
		<defs>
			<rect id="SVGID_1_" x="0.217" y="-472.746" width="900" height="401.234"/>
		</defs>
		<clipPath id="SVGID_2_">
			<use xlink:href="#SVGID_1_"  overflow="visible"/>
		</clipPath>
		
			<rect id="background_2_" x="-13.133" y="-474.456" display="none" clip-path="url(#SVGID_2_)" fill="#477182" width="906" height="405"/>
	</g>
	<g>
		<defs>
			<rect id="SVGID_3_" x="0.217" y="-472.746" width="900" height="401.234"/>
		</defs>
		<clipPath id="SVGID_4_">
			<use xlink:href="#SVGID_3_"  overflow="visible"/>
		</clipPath>
		<g id="festival_x5F_hands_1_" clip-path="url(#SVGID_4_)">
			<g>
				<g id="festival_x5F_hands_34_">
					<g id="festival_x5F_hands_35_">
						<g id="festival_x5F_hands_36_">
							<g id="festival_x5F_hands_37_">
								
									<image overflow="visible" enable-background="new    " width="3775" height="4060" id="festival_x5F_hands_38_" xlink:href="50F5D67EFF97DDD.png"  transform="matrix(0.2382 0 0 0.2382 0.1826 -996.9341)">
								</image>
							</g>
						</g>
					</g>
				</g>
			</g>
		</g>
	</g>
	<g>
		<defs>
			<rect id="SVGID_5_" x="0.217" y="-472.746" width="900" height="401.234"/>
		</defs>
		<clipPath id="SVGID_6_">
			<use xlink:href="#SVGID_5_"  overflow="visible"/>
		</clipPath>
		<g id="circles_3_" opacity="0.1" clip-path="url(#SVGID_6_)">
			
				<radialGradient id="SVGID_7_" cx="378.5986" cy="610.0591" r="18.5491" gradientTransform="matrix(1 0 0 -1 -76 333.1611)" gradientUnits="userSpaceOnUse">
				<stop  offset="0" style="stop-color:#3DB54A"/>
				<stop  offset="0.0786" style="stop-color:#51B349"/>
				<stop  offset="0.2094" style="stop-color:#74B144"/>
				<stop  offset="0.3763" style="stop-color:#9EAC3C"/>
				<stop  offset="0.5705" style="stop-color:#CDA230"/>
				<stop  offset="0.7416" style="stop-color:#F79421"/>
				<stop  offset="0.8652" style="stop-color:#D9E028"/>
				<stop  offset="1" style="stop-color:#F9ED32;stop-opacity:0.5"/>
			</radialGradient>
			<circle fill="url(#SVGID_7_)" cx="302.599" cy="-276.897" r="18.549"/>
			
				<radialGradient id="SVGID_8_" cx="293.0742" cy="529.6665" r="18.5493" gradientTransform="matrix(1 0 0 -1 -76 333.1611)" gradientUnits="userSpaceOnUse">
				<stop  offset="0" style="stop-color:#3DB54A"/>
				<stop  offset="0.0786" style="stop-color:#51B349"/>
				<stop  offset="0.2094" style="stop-color:#74B144"/>
				<stop  offset="0.3763" style="stop-color:#9EAC3C"/>
				<stop  offset="0.5705" style="stop-color:#CDA230"/>
				<stop  offset="0.7416" style="stop-color:#F79421"/>
				<stop  offset="0.8652" style="stop-color:#D9E028"/>
				<stop  offset="1" style="stop-color:#F9ED32;stop-opacity:0.5"/>
			</radialGradient>
			<circle fill="url(#SVGID_8_)" cx="217.074" cy="-196.506" r="18.549"/>
			
				<radialGradient id="SVGID_9_" cx="361.4521" cy="484.3774" r="43.8428" gradientTransform="matrix(1 0 0 -1 -76 333.1611)" gradientUnits="userSpaceOnUse">
				<stop  offset="0" style="stop-color:#3DB54A"/>
				<stop  offset="0.0786" style="stop-color:#51B349"/>
				<stop  offset="0.2094" style="stop-color:#74B144"/>
				<stop  offset="0.3763" style="stop-color:#9EAC3C"/>
				<stop  offset="0.5705" style="stop-color:#CDA230"/>
				<stop  offset="0.7416" style="stop-color:#F79421"/>
				<stop  offset="0.8652" style="stop-color:#D9E028"/>
				<stop  offset="1" style="stop-color:#F9ED32;stop-opacity:0.5"/>
			</radialGradient>
			<circle fill="url(#SVGID_9_)" cx="285.452" cy="-151.216" r="43.843"/>
			
				<radialGradient id="SVGID_10_" cx="422.7578" cy="662.3101" r="48.9019" gradientTransform="matrix(1 0 0 -1 -76 333.1611)" gradientUnits="userSpaceOnUse">
				<stop  offset="0" style="stop-color:#3DB54A"/>
				<stop  offset="0.0786" style="stop-color:#51B349"/>
				<stop  offset="0.2094" style="stop-color:#74B144"/>
				<stop  offset="0.3763" style="stop-color:#9EAC3C"/>
				<stop  offset="0.5705" style="stop-color:#CDA230"/>
				<stop  offset="0.7416" style="stop-color:#F79421"/>
				<stop  offset="0.8652" style="stop-color:#D9E028"/>
				<stop  offset="1" style="stop-color:#F9ED32;stop-opacity:0.5"/>
			</radialGradient>
			<circle fill="url(#SVGID_10_)" cx="346.758" cy="-329.149" r="48.902"/>
			
				<radialGradient id="SVGID_11_" cx="579.9736" cy="552.7329" r="16.5244" gradientTransform="matrix(1 0 0 -1 -76 333.1611)" gradientUnits="userSpaceOnUse">
				<stop  offset="0" style="stop-color:#3DB54A"/>
				<stop  offset="0.0786" style="stop-color:#51B349"/>
				<stop  offset="0.2094" style="stop-color:#74B144"/>
				<stop  offset="0.3763" style="stop-color:#9EAC3C"/>
				<stop  offset="0.5705" style="stop-color:#CDA230"/>
				<stop  offset="0.7416" style="stop-color:#F79421"/>
				<stop  offset="0.8652" style="stop-color:#D9E028"/>
				<stop  offset="1" style="stop-color:#F9ED32;stop-opacity:0.5"/>
			</radialGradient>
			<circle fill="url(#SVGID_11_)" cx="503.973" cy="-219.571" r="16.525"/>
			
				<radialGradient id="SVGID_12_" cx="623.3955" cy="486.2114" r="33.0513" gradientTransform="matrix(1 0 0 -1 -76 333.1611)" gradientUnits="userSpaceOnUse">
				<stop  offset="0" style="stop-color:#3DB54A"/>
				<stop  offset="0.0786" style="stop-color:#51B349"/>
				<stop  offset="0.2094" style="stop-color:#74B144"/>
				<stop  offset="0.3763" style="stop-color:#9EAC3C"/>
				<stop  offset="0.5705" style="stop-color:#CDA230"/>
				<stop  offset="0.7416" style="stop-color:#F79421"/>
				<stop  offset="0.8652" style="stop-color:#D9E028"/>
				<stop  offset="1" style="stop-color:#F9ED32;stop-opacity:0.5"/>
			</radialGradient>
			<circle fill="url(#SVGID_12_)" cx="547.396" cy="-153.05" r="33.051"/>
			
				<radialGradient id="SVGID_13_" cx="570.0752" cy="681.6841" r="9.106" gradientTransform="matrix(1 0 0 -1 -76 333.1611)" gradientUnits="userSpaceOnUse">
				<stop  offset="0" style="stop-color:#3DB54A"/>
				<stop  offset="0.0786" style="stop-color:#51B349"/>
				<stop  offset="0.2094" style="stop-color:#74B144"/>
				<stop  offset="0.3763" style="stop-color:#9EAC3C"/>
				<stop  offset="0.5705" style="stop-color:#CDA230"/>
				<stop  offset="0.7416" style="stop-color:#F79421"/>
				<stop  offset="0.8652" style="stop-color:#D9E028"/>
				<stop  offset="1" style="stop-color:#F9ED32;stop-opacity:0.5"/>
			</radialGradient>
			<circle fill="url(#SVGID_13_)" cx="494.076" cy="-348.523" r="9.106"/>
			
				<radialGradient id="SVGID_14_" cx="778.9121" cy="533.4927" r="21.248" gradientTransform="matrix(1 0 0 -1 -76 333.1611)" gradientUnits="userSpaceOnUse">
				<stop  offset="0" style="stop-color:#3DB54A"/>
				<stop  offset="0.0786" style="stop-color:#51B349"/>
				<stop  offset="0.2094" style="stop-color:#74B144"/>
				<stop  offset="0.3763" style="stop-color:#9EAC3C"/>
				<stop  offset="0.5705" style="stop-color:#CDA230"/>
				<stop  offset="0.7416" style="stop-color:#F79421"/>
				<stop  offset="0.8652" style="stop-color:#D9E028"/>
				<stop  offset="1" style="stop-color:#F9ED32;stop-opacity:0.5"/>
			</radialGradient>
			<circle fill="url(#SVGID_14_)" cx="702.912" cy="-200.331" r="21.248"/>
			
				<radialGradient id="SVGID_15_" cx="673.2139" cy="599.9438" r="9.1045" gradientTransform="matrix(1 0 0 -1 -76 333.1611)" gradientUnits="userSpaceOnUse">
				<stop  offset="0" style="stop-color:#3DB54A"/>
				<stop  offset="0.0786" style="stop-color:#51B349"/>
				<stop  offset="0.2094" style="stop-color:#74B144"/>
				<stop  offset="0.3763" style="stop-color:#9EAC3C"/>
				<stop  offset="0.5705" style="stop-color:#CDA230"/>
				<stop  offset="0.7416" style="stop-color:#F79421"/>
				<stop  offset="0.8652" style="stop-color:#D9E028"/>
				<stop  offset="1" style="stop-color:#F9ED32;stop-opacity:0.5"/>
			</radialGradient>
			<circle fill="url(#SVGID_15_)" cx="597.213" cy="-266.782" r="9.105"/>
			
				<radialGradient id="SVGID_16_" cx="737.1904" cy="642.4478" r="31.0269" gradientTransform="matrix(1 0 0 -1 -76 333.1611)" gradientUnits="userSpaceOnUse">
				<stop  offset="0" style="stop-color:#3DB54A"/>
				<stop  offset="0.0786" style="stop-color:#51B349"/>
				<stop  offset="0.2094" style="stop-color:#74B144"/>
				<stop  offset="0.3763" style="stop-color:#9EAC3C"/>
				<stop  offset="0.5705" style="stop-color:#CDA230"/>
				<stop  offset="0.7416" style="stop-color:#F79421"/>
				<stop  offset="0.8652" style="stop-color:#D9E028"/>
				<stop  offset="1" style="stop-color:#F9ED32;stop-opacity:0.5"/>
			</radialGradient>
			<circle fill="url(#SVGID_16_)" cx="661.191" cy="-309.286" r="31.027"/>
			
				<radialGradient id="SVGID_17_" cx="572.7354" cy="522.5747" r="5.7334" gradientTransform="matrix(1 0 0 -1 -76 333.1611)" gradientUnits="userSpaceOnUse">
				<stop  offset="0" style="stop-color:#3DB54A"/>
				<stop  offset="0.0786" style="stop-color:#51B349"/>
				<stop  offset="0.2094" style="stop-color:#74B144"/>
				<stop  offset="0.3763" style="stop-color:#9EAC3C"/>
				<stop  offset="0.5705" style="stop-color:#CDA230"/>
				<stop  offset="0.7416" style="stop-color:#F79421"/>
				<stop  offset="0.8652" style="stop-color:#D9E028"/>
				<stop  offset="1" style="stop-color:#F9ED32;stop-opacity:0.5"/>
			</radialGradient>
			<circle fill="url(#SVGID_17_)" cx="496.736" cy="-189.414" r="5.733"/>
			
				<radialGradient id="SVGID_18_" cx="756.6025" cy="554.938" r="6.0713" gradientTransform="matrix(1 0 0 -1 -76 333.1611)" gradientUnits="userSpaceOnUse">
				<stop  offset="0" style="stop-color:#3DB54A"/>
				<stop  offset="0.0786" style="stop-color:#51B349"/>
				<stop  offset="0.2094" style="stop-color:#74B144"/>
				<stop  offset="0.3763" style="stop-color:#9EAC3C"/>
				<stop  offset="0.5705" style="stop-color:#CDA230"/>
				<stop  offset="0.7416" style="stop-color:#F79421"/>
				<stop  offset="0.8652" style="stop-color:#D9E028"/>
				<stop  offset="1" style="stop-color:#F9ED32;stop-opacity:0.5"/>
			</radialGradient>
			<circle fill="url(#SVGID_18_)" cx="680.604" cy="-221.777" r="6.071"/>
			
				<radialGradient id="SVGID_19_" cx="580.0029" cy="640.5103" r="9.105" gradientTransform="matrix(1 0 0 -1 -76 333.1611)" gradientUnits="userSpaceOnUse">
				<stop  offset="0" style="stop-color:#3DB54A"/>
				<stop  offset="0.0786" style="stop-color:#51B349"/>
				<stop  offset="0.2094" style="stop-color:#74B144"/>
				<stop  offset="0.3763" style="stop-color:#9EAC3C"/>
				<stop  offset="0.5705" style="stop-color:#CDA230"/>
				<stop  offset="0.7416" style="stop-color:#F79421"/>
				<stop  offset="0.8652" style="stop-color:#D9E028"/>
				<stop  offset="1" style="stop-color:#F9ED32;stop-opacity:0.5"/>
			</radialGradient>
			<circle fill="url(#SVGID_19_)" cx="504.002" cy="-307.349" r="9.105"/>
			
				<radialGradient id="SVGID_20_" cx="404.4209" cy="622.2017" r="5.7332" gradientTransform="matrix(1 0 0 -1 -76 333.1611)" gradientUnits="userSpaceOnUse">
				<stop  offset="0" style="stop-color:#3DB54A"/>
				<stop  offset="0.0786" style="stop-color:#51B349"/>
				<stop  offset="0.2094" style="stop-color:#74B144"/>
				<stop  offset="0.3763" style="stop-color:#9EAC3C"/>
				<stop  offset="0.5705" style="stop-color:#CDA230"/>
				<stop  offset="0.7416" style="stop-color:#F79421"/>
				<stop  offset="0.8652" style="stop-color:#D9E028"/>
				<stop  offset="1" style="stop-color:#F9ED32;stop-opacity:0.5"/>
			</radialGradient>
			<circle fill="url(#SVGID_20_)" cx="328.421" cy="-289.041" r="5.733"/>
			
				<radialGradient id="SVGID_21_" cx="376.666" cy="559.6968" r="5.7332" gradientTransform="matrix(1 0 0 -1 -76 333.1611)" gradientUnits="userSpaceOnUse">
				<stop  offset="0" style="stop-color:#3DB54A"/>
				<stop  offset="0.0786" style="stop-color:#51B349"/>
				<stop  offset="0.2094" style="stop-color:#74B144"/>
				<stop  offset="0.3763" style="stop-color:#9EAC3C"/>
				<stop  offset="0.5705" style="stop-color:#CDA230"/>
				<stop  offset="0.7416" style="stop-color:#F79421"/>
				<stop  offset="0.8652" style="stop-color:#D9E028"/>
				<stop  offset="1" style="stop-color:#F9ED32;stop-opacity:0.5"/>
			</radialGradient>
			<circle fill="url(#SVGID_21_)" cx="300.666" cy="-226.536" r="5.733"/>
		</g>
	</g>
	<g>
		<defs>
			<rect id="SVGID_22_" x="0.217" y="-472.746" width="900" height="401.234"/>
		</defs>
		<clipPath id="SVGID_23_">
			<use xlink:href="#SVGID_22_"  overflow="visible"/>
		</clipPath>
		<g id="wires_3_" opacity="0.6" clip-path="url(#SVGID_23_)">
			
				<linearGradient id="SVGID_24_" gradientUnits="userSpaceOnUse" x1="350.2939" y1="683.606" x2="396.6787" y2="683.606" gradientTransform="matrix(1 0 0 -1 -76 333.1611)">
				<stop  offset="0" style="stop-color:#FFFFFF"/>
				<stop  offset="0.4872" style="stop-color:#FFFFFF;stop-opacity:0.3"/>
				<stop  offset="1" style="stop-color:#FFFFFF"/>
			</linearGradient>
			<polyline fill="none" stroke="url(#SVGID_24_)" stroke-width="0.5" stroke-miterlimit="10" stroke-opacity="0.3" points="
				274.329,-377.36 320.304,-370.864 297.316,-323.391 			"/>
			
				<linearGradient id="SVGID_25_" gradientUnits="userSpaceOnUse" x1="348.125" y1="726.4165" x2="475.4424" y2="726.4165" gradientTransform="matrix(1 0 0 -1 -76 333.1611)">
				<stop  offset="0" style="stop-color:#FFFFFF"/>
				<stop  offset="0.4872" style="stop-color:#FFFFFF;stop-opacity:0.3"/>
				<stop  offset="1" style="stop-color:#FFFFFF"/>
			</linearGradient>
			<polyline fill="none" stroke="url(#SVGID_25_)" stroke-width="0.5" stroke-miterlimit="10" stroke-opacity="0.3" points="
				272.33,-439.827 320.304,-370.864 351.288,-346.877 399.261,-397.849 			"/>
			
				<linearGradient id="SVGID_26_" gradientUnits="userSpaceOnUse" x1="396.082" y1="722.0151" x2="415.0161" y2="722.0151" gradientTransform="matrix(1 0 0 -1 -76 333.1611)">
				<stop  offset="0" style="stop-color:#FFFFFF"/>
				<stop  offset="0.4872" style="stop-color:#FFFFFF;stop-opacity:0.3"/>
				<stop  offset="1" style="stop-color:#FFFFFF"/>
			</linearGradient>
			<path fill="none" stroke="url(#SVGID_26_)" stroke-width="0.5" stroke-miterlimit="10" stroke-opacity="0.3" d="M338.794-406.844
				l-18.49,35.979L338.794-406.844z"/>
			
				<linearGradient id="SVGID_27_" gradientUnits="userSpaceOnUse" x1="414.5493" y1="710.021" x2="427.5327" y2="710.021" gradientTransform="matrix(1 0 0 -1 -76 333.1611)">
				<stop  offset="0" style="stop-color:#FFFFFF"/>
				<stop  offset="0.4872" style="stop-color:#FFFFFF;stop-opacity:0.3"/>
				<stop  offset="1" style="stop-color:#FFFFFF"/>
			</linearGradient>
			
				<line fill="none" stroke="url(#SVGID_27_)" stroke-width="0.5" stroke-miterlimit="10" stroke-opacity="0.3" x1="351.288" y1="-346.877" x2="338.794" y2="-406.844"/>
			
				<linearGradient id="SVGID_28_" gradientUnits="userSpaceOnUse" x1="474.9531" y1="700.7095" x2="625.3672" y2="700.7095" gradientTransform="matrix(1 0 0 -1 -76 333.1611)">
				<stop  offset="0" style="stop-color:#FFFFFF"/>
				<stop  offset="0.4872" style="stop-color:#FFFFFF;stop-opacity:0.3"/>
				<stop  offset="1" style="stop-color:#FFFFFF"/>
			</linearGradient>
			<polygon fill="none" stroke="url(#SVGID_28_)" stroke-width="0.5" stroke-miterlimit="10" stroke-opacity="0.3" points="
				399.261,-397.849 452.232,-421.836 548.68,-391.354 497.207,-367.366 507.838,-327.496 473.221,-328.387 426.746,-313.895 
				497.207,-367.366 452.232,-421.836 437.74,-390.853 426.746,-313.895 			"/>
			
				<linearGradient id="SVGID_29_" gradientUnits="userSpaceOnUse" x1="582.3711" y1="615.1685" x2="660.9766" y2="615.1685" gradientTransform="matrix(1 0 0 -1 -76 333.1611)">
				<stop  offset="0" style="stop-color:#FFFFFF"/>
				<stop  offset="0.4872" style="stop-color:#FFFFFF;stop-opacity:0.3"/>
				<stop  offset="1" style="stop-color:#FFFFFF"/>
			</linearGradient>
			<polyline fill="none" stroke="url(#SVGID_29_)" stroke-width="0.5" stroke-miterlimit="10" stroke-opacity="0.3" points="
				570.168,-236.438 550.68,-264.422 562.672,-304.031 584.395,-326.919 507.623,-326.919 562.672,-304.031 536.686,-290.724 
				507.623,-327.565 			"/>
			
				<linearGradient id="SVGID_30_" gradientUnits="userSpaceOnUse" x1="608.8799" y1="605.7729" x2="628.0293" y2="605.7729" gradientTransform="matrix(1 0 0 -1 -76 333.1611)">
				<stop  offset="0" style="stop-color:#FFFFFF"/>
				<stop  offset="0.4872" style="stop-color:#FFFFFF;stop-opacity:0.3"/>
				<stop  offset="1" style="stop-color:#FFFFFF"/>
			</linearGradient>
			<polyline fill="none" stroke="url(#SVGID_30_)" stroke-width="0.5" stroke-miterlimit="10" stroke-opacity="0.3" points="
				533.002,-254.521 550.68,-264.422 538.186,-262.423 536.686,-290.908 			"/>
			
				<linearGradient id="SVGID_31_" gradientUnits="userSpaceOnUse" x1="745.6494" y1="619.4438" x2="782.6396" y2="619.4438" gradientTransform="matrix(1 0 0 -1 -76 333.1611)">
				<stop  offset="0" style="stop-color:#FFFFFF"/>
				<stop  offset="0.4872" style="stop-color:#FFFFFF;stop-opacity:0.3"/>
				<stop  offset="1" style="stop-color:#FFFFFF"/>
			</linearGradient>
			<polyline fill="none" stroke="url(#SVGID_31_)" stroke-width="0.5" stroke-miterlimit="10" stroke-opacity="0.3" points="
				705.584,-324.091 685.105,-339.382 705.096,-273.417 683.107,-240.436 705.584,-216.331 670.064,-212.778 683.107,-240.436 
				670.064,-324.091 685.105,-339.382 706.094,-347.377 687.105,-359.87 			"/>
			
				<linearGradient id="SVGID_32_" gradientUnits="userSpaceOnUse" x1="660.2744" y1="659.3813" x2="738.1318" y2="659.3813" gradientTransform="matrix(1 0 0 -1 -76 333.1611)">
				<stop  offset="0" style="stop-color:#FFFFFF"/>
				<stop  offset="0.4872" style="stop-color:#FFFFFF;stop-opacity:0.3"/>
				<stop  offset="1" style="stop-color:#FFFFFF"/>
			</linearGradient>
			<polyline fill="none" stroke="url(#SVGID_32_)" stroke-width="0.5" stroke-miterlimit="10" stroke-opacity="0.3" points="
				662.07,-324.091 645.127,-328.387 632.135,-306.4 645.127,-328.387 617.643,-345.878 584.395,-327.658 			"/>
			
				<linearGradient id="SVGID_33_" gradientUnits="userSpaceOnUse" x1="620.8838" y1="696.0962" x2="844.9238" y2="696.0962" gradientTransform="matrix(1 0 0 -1 -76 333.1611)">
				<stop  offset="0" style="stop-color:#FFFFFF"/>
				<stop  offset="0.4872" style="stop-color:#FFFFFF;stop-opacity:0.3"/>
				<stop  offset="1" style="stop-color:#FFFFFF"/>
			</linearGradient>
			<polyline fill="none" stroke="url(#SVGID_33_)" stroke-width="0.5" stroke-miterlimit="10" stroke-opacity="0.3" points="
				744.074,-336.383 736.078,-347.876 766.061,-357.372 746.072,-383.857 715.09,-371.864 721.086,-419.337 677.609,-399.349 
				608.148,-388.354 575.414,-418.088 548.68,-391.354 545.182,-360.37 608.148,-388.354 666.115,-372.363 662.07,-324.091 
				632.135,-306.4 584.395,-327.658 608.148,-388.354 617.643,-345.878 666.115,-372.363 677.609,-399.349 715.09,-371.864 
				666.115,-372.363 685.105,-339.382 687.105,-359.87 715.09,-371.864 736.078,-347.876 713.578,-324.091 706.094,-347.377 
				736.078,-347.876 766.061,-357.372 768.641,-326.163 744.074,-336.383 748.572,-319.393 713.578,-324.091 			"/>
			
				<linearGradient id="SVGID_34_" gradientUnits="userSpaceOnUse" x1="512.2061" y1="625.3989" x2="553.5625" y2="625.3989" gradientTransform="matrix(1 0 0 -1 -76 333.1611)">
				<stop  offset="0" style="stop-color:#FFFFFF"/>
				<stop  offset="0.4872" style="stop-color:#FFFFFF;stop-opacity:0.3"/>
				<stop  offset="1" style="stop-color:#FFFFFF"/>
			</linearGradient>
			<polygon fill="none" stroke="url(#SVGID_34_)" stroke-width="0.5" stroke-miterlimit="10" stroke-opacity="0.3" points="
				473.221,-328.387 450.234,-311.896 436.645,-289.75 466.225,-288.908 477.219,-263.923 449.234,-255.927 466.225,-288.908 			"/>
			
				<linearGradient id="SVGID_35_" gradientUnits="userSpaceOnUse" x1="548.9375" y1="628.7407" x2="583.7607" y2="628.7407" gradientTransform="matrix(1 0 0 -1 -76 333.1611)">
				<stop  offset="0" style="stop-color:#FFFFFF"/>
				<stop  offset="0.4872" style="stop-color:#FFFFFF;stop-opacity:0.3"/>
				<stop  offset="1" style="stop-color:#FFFFFF"/>
			</linearGradient>
			<polygon fill="none" stroke="url(#SVGID_35_)" stroke-width="0.5" stroke-miterlimit="10" stroke-opacity="0.3" points="
				477.219,-263.923 473.221,-328.387 489.711,-315.895 507.623,-327.658 489.711,-315.895 			"/>
			
				<linearGradient id="SVGID_36_" gradientUnits="userSpaceOnUse" x1="469.9004" y1="587.5239" x2="532.5303" y2="587.5239" gradientTransform="matrix(1 0 0 -1 -76 333.1611)">
				<stop  offset="0" style="stop-color:#FFFFFF"/>
				<stop  offset="0.4872" style="stop-color:#FFFFFF;stop-opacity:0.3"/>
				<stop  offset="1" style="stop-color:#FFFFFF"/>
			</linearGradient>
			<polyline fill="none" stroke="url(#SVGID_36_)" stroke-width="0.5" stroke-miterlimit="10" stroke-opacity="0.3" points="
				436.645,-289.75 447.734,-276.915 449.234,-255.927 456.23,-241.435 435.46,-219.292 426.246,-247.432 394.052,-272.025 			"/>
			
				<linearGradient id="SVGID_37_" gradientUnits="userSpaceOnUse" x1="475.2158" y1="615.5366" x2="660.4961" y2="615.5366" gradientTransform="matrix(1 0 0 -1 -76 333.1611)">
				<stop  offset="0" style="stop-color:#FFFFFF"/>
				<stop  offset="0.4872" style="stop-color:#FFFFFF;stop-opacity:0.3"/>
				<stop  offset="1" style="stop-color:#FFFFFF"/>
			</linearGradient>
			<polyline fill="none" stroke="url(#SVGID_37_)" stroke-width="0.5" stroke-miterlimit="10" stroke-opacity="0.3" points="
				426.746,-313.895 450.234,-311.896 464.227,-287.91 447.734,-276.915 427.745,-265.921 449.234,-255.927 426.246,-247.432 
				456.23,-241.435 456.623,-217.961 435.46,-219.292 444.236,-191.462 456.623,-217.961 481.715,-171.473 491.711,-188.964 
				501.207,-210.451 539.184,-211.951 533.002,-254.521 463.875,-214.556 491.711,-188.964 553.678,-167.475 501.207,-210.451 
				477.756,-263.312 539.184,-211.951 551.652,-214.556 553.678,-167.475 584.062,-216.331 558.906,-217.961 570.168,-236.438 
				584.062,-327.644 497.207,-367.366 437.74,-390.853 399.261,-397.849 			"/>
			
				<linearGradient id="SVGID_38_" gradientUnits="userSpaceOnUse" x1="532.0479" y1="585.8403" x2="553.4014" y2="585.8403" gradientTransform="matrix(1 0 0 -1 -76 333.1611)">
				<stop  offset="0" style="stop-color:#FFFFFF"/>
				<stop  offset="0.4872" style="stop-color:#FFFFFF;stop-opacity:0.3"/>
				<stop  offset="1" style="stop-color:#FFFFFF"/>
			</linearGradient>
			
				<line fill="none" stroke="url(#SVGID_38_)" stroke-width="0.5" stroke-miterlimit="10" stroke-opacity="0.3" x1="456.23" y1="-241.435" x2="477.219" y2="-263.923"/>
			
				<linearGradient id="SVGID_39_" gradientUnits="userSpaceOnUse" x1="659.9062" y1="642.8579" x2="727.999" y2="642.8579" gradientTransform="matrix(1 0 0 -1 -76 333.1611)">
				<stop  offset="0" style="stop-color:#FFFFFF"/>
				<stop  offset="0.4872" style="stop-color:#FFFFFF;stop-opacity:0.3"/>
				<stop  offset="1" style="stop-color:#FFFFFF"/>
			</linearGradient>
			<polyline fill="none" stroke="url(#SVGID_39_)" stroke-width="0.5" stroke-miterlimit="10" stroke-opacity="0.3" points="
				632.135,-306.4 651.125,-291.906 625.139,-294.905 584.062,-327.644 			"/>
			
				<linearGradient id="SVGID_40_" gradientUnits="userSpaceOnUse" x1="700.9258" y1="611.9409" x2="738.5723" y2="611.9409" gradientTransform="matrix(1 0 0 -1 -76 333.1611)">
				<stop  offset="0" style="stop-color:#FFFFFF"/>
				<stop  offset="0.4872" style="stop-color:#FFFFFF;stop-opacity:0.3"/>
				<stop  offset="1" style="stop-color:#FFFFFF"/>
			</linearGradient>
			<polyline fill="none" stroke="url(#SVGID_40_)" stroke-width="0.5" stroke-miterlimit="10" stroke-opacity="0.3" points="
				625.139,-294.905 662.07,-234.686 651.125,-291.906 662.07,-324.091 			"/>
			
				<linearGradient id="SVGID_41_" gradientUnits="userSpaceOnUse" x1="789.3281" y1="631.5786" x2="824.7764" y2="631.5786" gradientTransform="matrix(1 0 0 -1 -76 333.1611)">
				<stop  offset="0" style="stop-color:#FFFFFF"/>
				<stop  offset="0.4872" style="stop-color:#FFFFFF;stop-opacity:0.3"/>
				<stop  offset="1" style="stop-color:#FFFFFF"/>
			</linearGradient>
			<polyline fill="none" stroke="url(#SVGID_41_)" stroke-width="0.5" stroke-miterlimit="10" stroke-opacity="0.3" points="
				748.572,-319.393 715.945,-273.468 713.578,-324.091 			"/>
			
				<linearGradient id="SVGID_42_" gradientUnits="userSpaceOnUse" x1="573.1709" y1="697.0298" x2="621.2178" y2="697.0298" gradientTransform="matrix(1 0 0 -1 -76 333.1611)">
				<stop  offset="0" style="stop-color:#FFFFFF"/>
				<stop  offset="0.4872" style="stop-color:#FFFFFF;stop-opacity:0.3"/>
				<stop  offset="1" style="stop-color:#FFFFFF"/>
			</linearGradient>
			
				<line fill="none" stroke="url(#SVGID_42_)" stroke-width="0.5" stroke-miterlimit="10" stroke-opacity="0.3" x1="545.182" y1="-360.37" x2="497.207" y2="-367.366"/>
			
				<linearGradient id="SVGID_43_" gradientUnits="userSpaceOnUse" x1="298.3701" y1="684.0005" x2="475.6123" y2="684.0005" gradientTransform="matrix(1 0 0 -1 -76 333.1611)">
				<stop  offset="0" style="stop-color:#FFFFFF"/>
				<stop  offset="0.4872" style="stop-color:#FFFFFF;stop-opacity:0.3"/>
				<stop  offset="1" style="stop-color:#FFFFFF"/>
			</linearGradient>
			<polyline fill="none" stroke="url(#SVGID_43_)" stroke-width="0.5" stroke-miterlimit="10" stroke-opacity="0.3" points="
				262.28,-324.091 222.857,-370.365 274.329,-377.36 272.33,-439.827 338.794,-406.844 399.261,-397.849 369.295,-324.091 
				351.288,-346.877 324.748,-311.981 324.302,-311.396 367.693,-323.639 369.295,-324.091 357.784,-294.406 341.293,-287.91 
				369.271,-262.306 357.784,-294.406 357.784,-294.406 324.748,-311.981 			"/>
			
				<linearGradient id="SVGID_44_" gradientUnits="userSpaceOnUse" x1="405.4067" y1="561.6841" x2="445.6499" y2="561.6841" gradientTransform="matrix(1 0 0 -1 -76 333.1611)">
				<stop  offset="0" style="stop-color:#FFFFFF"/>
				<stop  offset="0.4872" style="stop-color:#FFFFFF;stop-opacity:0.3"/>
				<stop  offset="1" style="stop-color:#FFFFFF"/>
			</linearGradient>
			<polyline fill="none" stroke="url(#SVGID_44_)" stroke-width="0.5" stroke-miterlimit="10" stroke-opacity="0.3" points="
				367.601,-263.14 330.035,-234.758 358.835,-230.584 369.295,-216.331 336.713,-194.271 341.722,-215.557 330.035,-234.758 			"/>
			
				<linearGradient id="SVGID_45_" gradientUnits="userSpaceOnUse" x1="268.1924" y1="529.0063" x2="445.5083" y2="529.0063" gradientTransform="matrix(1 0 0 -1 -76 333.1611)">
				<stop  offset="0" style="stop-color:#FFFFFF"/>
				<stop  offset="0.4872" style="stop-color:#FFFFFF;stop-opacity:0.3"/>
				<stop  offset="1" style="stop-color:#FFFFFF"/>
			</linearGradient>
			<polyline fill="none" stroke="url(#SVGID_45_)" stroke-width="0.5" stroke-miterlimit="10" stroke-opacity="0.3" points="
				298.312,-215.975 286.625,-174.233 265.338,-188.008 262.28,-216.331 192.71,-132.077 276.19,-129.572 246.138,-163.799 
				265.338,-188.008 246.138,-163.799 286.625,-174.233 336.713,-194.271 298.312,-215.975 341.722,-215.557 358.835,-230.584 
				369.271,-262.306 			"/>
			
				<linearGradient id="SVGID_46_" gradientUnits="userSpaceOnUse" x1="351.8486" y1="485.061" x2="418.4321" y2="485.061" gradientTransform="matrix(1 0 0 -1 -76 333.1611)">
				<stop  offset="0" style="stop-color:#FFFFFF"/>
				<stop  offset="0.4872" style="stop-color:#FFFFFF;stop-opacity:0.3"/>
				<stop  offset="1" style="stop-color:#FFFFFF"/>
			</linearGradient>
			<polygon fill="none" stroke="url(#SVGID_46_)" stroke-width="0.5" stroke-miterlimit="10" stroke-opacity="0.3" points="
				341.722,-148.773 276.19,-129.572 286.625,-174.233 			"/>
			
				<linearGradient id="SVGID_47_" gradientUnits="userSpaceOnUse" x1="399.0527" y1="504.6216" x2="433.4878" y2="504.6216" gradientTransform="matrix(1 0 0 -1 -76 333.1611)">
				<stop  offset="0" style="stop-color:#FFFFFF"/>
				<stop  offset="0.4872" style="stop-color:#FFFFFF;stop-opacity:0.3"/>
				<stop  offset="1" style="stop-color:#FFFFFF"/>
			</linearGradient>
			<polygon fill="none" stroke="url(#SVGID_47_)" stroke-width="0.5" stroke-miterlimit="10" stroke-opacity="0.3" points="
				323.356,-171.312 341.722,-148.773 357.166,-182.165 336.713,-194.271 			"/>
			
				<linearGradient id="SVGID_48_" gradientUnits="userSpaceOnUse" x1="362.605" y1="554.7114" x2="470.3008" y2="554.7114" gradientTransform="matrix(1 0 0 -1 -76 333.1611)">
				<stop  offset="0" style="stop-color:#FFFFFF"/>
				<stop  offset="0.4872" style="stop-color:#FFFFFF;stop-opacity:0.3"/>
				<stop  offset="1" style="stop-color:#FFFFFF"/>
			</linearGradient>
			<polyline fill="none" stroke="url(#SVGID_48_)" stroke-width="0.5" stroke-miterlimit="10" stroke-opacity="0.3" points="
				286.625,-174.233 323.356,-171.312 357.166,-182.165 382.21,-191.349 369.295,-216.331 391.81,-205.122 377.289,-216.331 
				390.975,-223.487 394.052,-272.025 			"/>
			
				<linearGradient id="SVGID_49_" gradientUnits="userSpaceOnUse" x1="457.79" y1="536.7554" x2="507.2334" y2="536.7554" gradientTransform="matrix(1 0 0 -1 -76 333.1611)">
				<stop  offset="0" style="stop-color:#FFFFFF"/>
				<stop  offset="0.4872" style="stop-color:#FFFFFF;stop-opacity:0.3"/>
				<stop  offset="1" style="stop-color:#FFFFFF"/>
			</linearGradient>
			<polygon fill="none" stroke="url(#SVGID_49_)" stroke-width="0.5" stroke-miterlimit="10" stroke-opacity="0.3" points="
				390.975,-223.487 429.835,-213.667 401.828,-210.548 391.81,-205.122 416.854,-183.834 382.21,-191.349 391.81,-205.122 			"/>
			
				<linearGradient id="SVGID_50_" gradientUnits="userSpaceOnUse" x1="477.2373" y1="530.4321" x2="521.2852" y2="530.4321" gradientTransform="matrix(1 0 0 -1 -76 333.1611)">
				<stop  offset="0" style="stop-color:#FFFFFF"/>
				<stop  offset="0.4872" style="stop-color:#FFFFFF;stop-opacity:0.3"/>
				<stop  offset="1" style="stop-color:#FFFFFF"/>
			</linearGradient>
			<polygon fill="none" stroke="url(#SVGID_50_)" stroke-width="0.5" stroke-miterlimit="10" stroke-opacity="0.3" points="
				444.236,-191.462 401.828,-210.548 416.854,-183.834 425.202,-190.513 			"/>
			
				<linearGradient id="SVGID_51_" gradientUnits="userSpaceOnUse" x1="501.001" y1="510.3442" x2="558.417" y2="510.3442" gradientTransform="matrix(1 0 0 -1 -76 333.1611)">
				<stop  offset="0" style="stop-color:#FFFFFF"/>
				<stop  offset="0.4872" style="stop-color:#FFFFFF;stop-opacity:0.3"/>
				<stop  offset="1" style="stop-color:#FFFFFF"/>
			</linearGradient>
			<polyline fill="none" stroke="url(#SVGID_51_)" stroke-width="0.5" stroke-miterlimit="10" stroke-opacity="0.3" points="
				425.202,-190.513 445.654,-162.964 481.715,-171.473 444.236,-191.462 			"/>
			
				<linearGradient id="SVGID_52_" gradientUnits="userSpaceOnUse" x1="416.3501" y1="503.063" x2="522.3223" y2="503.063" gradientTransform="matrix(1 0 0 -1 -76 333.1611)">
				<stop  offset="0" style="stop-color:#FFFFFF"/>
				<stop  offset="0.4872" style="stop-color:#FFFFFF;stop-opacity:0.3"/>
				<stop  offset="1" style="stop-color:#FFFFFF"/>
			</linearGradient>
			<polyline fill="none" stroke="url(#SVGID_52_)" stroke-width="0.5" stroke-miterlimit="10" stroke-opacity="0.3" points="
				382.21,-191.349 365.514,-161.295 415.184,-184.252 445.654,-162.964 341.722,-148.773 365.514,-161.295 			"/>
			
				<linearGradient id="SVGID_53_" gradientUnits="userSpaceOnUse" x1="667.7891" y1="536.3101" x2="713.1406" y2="536.3101" gradientTransform="matrix(1 0 0 -1 -76 333.1611)">
				<stop  offset="0" style="stop-color:#FFFFFF"/>
				<stop  offset="0.4872" style="stop-color:#FFFFFF;stop-opacity:0.3"/>
				<stop  offset="1" style="stop-color:#FFFFFF"/>
			</linearGradient>
			<polygon fill="none" stroke="url(#SVGID_53_)" stroke-width="0.5" stroke-miterlimit="10" stroke-opacity="0.3" points="
				592.289,-216.444 628.059,-180.494 636.824,-225.992 			"/>
			
				<linearGradient id="SVGID_54_" gradientUnits="userSpaceOnUse" x1="667.6826" y1="592.6724" x2="745.293" y2="592.6724" gradientTransform="matrix(1 0 0 -1 -76 333.1611)">
				<stop  offset="0" style="stop-color:#FFFFFF"/>
				<stop  offset="0.4872" style="stop-color:#FFFFFF;stop-opacity:0.3"/>
				<stop  offset="1" style="stop-color:#FFFFFF"/>
			</linearGradient>
			<polyline fill="none" stroke="url(#SVGID_54_)" stroke-width="0.5" stroke-miterlimit="10" stroke-opacity="0.3" points="
				624.719,-238.514 636.824,-225.992 668.129,-213.888 614.285,-262.724 624.719,-238.514 592.289,-216.444 614.285,-263.975 
				592.059,-305.736 			"/>
			
				<linearGradient id="SVGID_55_" gradientUnits="userSpaceOnUse" x1="326.314" y1="773.562" x2="362.3452" y2="773.562" gradientTransform="matrix(1 0 0 -1 -76 333.1611)">
				<stop  offset="0" style="stop-color:#FFFFFF"/>
				<stop  offset="0.4872" style="stop-color:#FFFFFF;stop-opacity:0.3"/>
				<stop  offset="1" style="stop-color:#FFFFFF"/>
			</linearGradient>
			<path fill="none" stroke="url(#SVGID_55_)" stroke-width="0.5" stroke-miterlimit="10" stroke-opacity="0.3" d="M286.303-437.336
				l-35.947-6.13L286.303-437.336z"/>
			
				<linearGradient id="SVGID_56_" gradientUnits="userSpaceOnUse" x1="314.022" y1="756.9907" x2="362.4253" y2="756.9907" gradientTransform="matrix(1 0 0 -1 -76 333.1611)">
				<stop  offset="0" style="stop-color:#FFFFFF"/>
				<stop  offset="0.4872" style="stop-color:#FFFFFF;stop-opacity:0.3"/>
				<stop  offset="1" style="stop-color:#FFFFFF"/>
			</linearGradient>
			
				<line fill="none" stroke="url(#SVGID_56_)" stroke-width="0.5" stroke-miterlimit="10" stroke-opacity="0.3" x1="238.144" y1="-410.323" x2="286.303" y2="-437.336"/>
			
				<linearGradient id="SVGID_57_" gradientUnits="userSpaceOnUse" x1="227.0156" y1="622.6948" x2="339.0669" y2="622.6948" gradientTransform="matrix(1 0 0 -1 -76 333.1611)">
				<stop  offset="0" style="stop-color:#FFFFFF"/>
				<stop  offset="0.4872" style="stop-color:#FFFFFF;stop-opacity:0.3"/>
				<stop  offset="1" style="stop-color:#FFFFFF"/>
			</linearGradient>
			<polygon fill="none" stroke="url(#SVGID_57_)" stroke-width="0.5" stroke-miterlimit="10" stroke-opacity="0.3" points="
				223.821,-361.91 262.642,-318.615 262.606,-217.466 224.237,-259.33 189.417,-237.19 179.846,-270.471 152.036,-310.427 
				224.237,-259.33 262.642,-318.615 228.733,-323.109 152.036,-310.427 			"/>
			
				<linearGradient id="SVGID_58_" gradientUnits="userSpaceOnUse" x1="278.4048" y1="565.0767" x2="360.6587" y2="565.0767" gradientTransform="matrix(1 0 0 -1 -76 333.1611)">
				<stop  offset="0" style="stop-color:#FFFFFF"/>
				<stop  offset="0.4872" style="stop-color:#FFFFFF;stop-opacity:0.3"/>
				<stop  offset="1" style="stop-color:#FFFFFF"/>
			</linearGradient>
			<polyline fill="none" stroke="url(#SVGID_58_)" stroke-width="0.5" stroke-miterlimit="10" stroke-opacity="0.3" points="
				202.603,-192.195 221.372,-216.544 258.674,-216.982 284.245,-204.519 263.411,-270.517 258.674,-216.982 240.183,-235.71 
				263.967,-270.691 			"/>
			
				<linearGradient id="SVGID_59_" gradientUnits="userSpaceOnUse" x1="262.0132" y1="633.647" x2="331.9795" y2="633.647" gradientTransform="matrix(1 0 0 -1 -76 333.1611)">
				<stop  offset="0" style="stop-color:#FFFFFF"/>
				<stop  offset="0.4872" style="stop-color:#FFFFFF;stop-opacity:0.3"/>
				<stop  offset="1" style="stop-color:#FFFFFF"/>
			</linearGradient>
			<polygon fill="none" stroke="url(#SVGID_59_)" stroke-width="0.5" stroke-miterlimit="10" stroke-opacity="0.3" points="
				255.338,-300.488 234.923,-315.772 212.199,-321.444 219.503,-295.788 201.006,-279.557 186.54,-301.444 219.503,-295.788 			"/>
			
				<linearGradient id="SVGID_60_" gradientUnits="userSpaceOnUse" x1="275.3608" y1="618.8813" x2="340.2046" y2="618.8813" gradientTransform="matrix(1 0 0 -1 -76 333.1611)">
				<stop  offset="0" style="stop-color:#FFFFFF"/>
				<stop  offset="0.4872" style="stop-color:#FFFFFF;stop-opacity:0.3"/>
				<stop  offset="1" style="stop-color:#FFFFFF"/>
			</linearGradient>
			<polygon fill="none" stroke="url(#SVGID_60_)" stroke-width="0.5" stroke-miterlimit="10" stroke-opacity="0.3" points="
				201.006,-279.557 255.338,-300.488 249.074,-282.921 264.047,-270.716 249.074,-282.921 			"/>
			
				<linearGradient id="SVGID_61_" gradientUnits="userSpaceOnUse" x1="371.1084" y1="602.0366" x2="378.6045" y2="602.0366" gradientTransform="matrix(1 0 0 -1 -76 333.1611)">
				<stop  offset="0" style="stop-color:#FFFFFF"/>
				<stop  offset="0.4872" style="stop-color:#FFFFFF;stop-opacity:0.3"/>
				<stop  offset="1" style="stop-color:#FFFFFF"/>
			</linearGradient>
			
				<line fill="none" stroke="url(#SVGID_61_)" stroke-width="0.5" stroke-miterlimit="10" stroke-opacity="0.3" x1="302.358" y1="-247.306" x2="295.355" y2="-290.445"/>
			
				<linearGradient id="SVGID_62_" gradientUnits="userSpaceOnUse" x1="237.8677" y1="580.4106" x2="270.5913" y2="580.4106" gradientTransform="matrix(1 0 0 -1 -76 333.1611)">
				<stop  offset="0" style="stop-color:#FFFFFF"/>
				<stop  offset="0.4872" style="stop-color:#FFFFFF;stop-opacity:0.3"/>
				<stop  offset="1" style="stop-color:#FFFFFF"/>
			</linearGradient>
			<polygon fill="none" stroke="url(#SVGID_62_)" stroke-width="0.5" stroke-miterlimit="10" stroke-opacity="0.3" points="
				192.158,-265.791 194.261,-229.722 183.98,-252.952 176.597,-260.091 165.094,-232.786 162.151,-264.604 176.597,-260.091 			"/>
			
				<linearGradient id="SVGID_63_" gradientUnits="userSpaceOnUse" x1="240.71" y1="565.1274" x2="260.3169" y2="565.1274" gradientTransform="matrix(1 0 0 -1 -76 333.1611)">
				<stop  offset="0" style="stop-color:#FFFFFF"/>
				<stop  offset="0.4872" style="stop-color:#FFFFFF;stop-opacity:0.3"/>
				<stop  offset="1" style="stop-color:#FFFFFF"/>
			</linearGradient>
			<polygon fill="none" stroke="url(#SVGID_63_)" stroke-width="0.5" stroke-miterlimit="10" stroke-opacity="0.3" points="
				179.082,-211.315 183.98,-252.952 165.094,-232.786 173.1,-227.422 			"/>
		</g>
	</g>
	<g>
		<defs>
			<rect id="SVGID_64_" x="0.217" y="-472.746" width="900" height="401.234"/>
		</defs>
		<clipPath id="SVGID_65_">
			<use xlink:href="#SVGID_64_"  overflow="visible"/>
		</clipPath>
		<rect x="-140.133" y="-452.456" clip-path="url(#SVGID_65_)" fill="none" width="1174" height="247"/>
	</g>
	<g>
		<defs>
			<rect id="SVGID_66_" x="0.217" y="-472.746" width="900" height="401.234"/>
		</defs>
		<clipPath id="SVGID_67_">
			<use xlink:href="#SVGID_66_"  overflow="visible"/>
		</clipPath>
		<g clip-path="url(#SVGID_67_)">
			<text transform="matrix(1 0 0 1 95.3115 -779.0356)" font-family="'MyriadPro-Regular'" font-size="12">Aardbeienfeesten 2014</text>
			<text transform="matrix(1 0 0 1 95.3115 -764.6353)" font-family="'MyriadPro-Regular'" font-size="12">Den Bels</text>
		</g>
	</g>
	<g>
		<defs>
			<rect id="SVGID_68_" x="0.217" y="-472.746" width="900" height="401.234"/>
		</defs>
		<clipPath id="SVGID_69_">
			<use xlink:href="#SVGID_68_"  overflow="visible"/>
		</clipPath>
		<g clip-path="url(#SVGID_69_)">
			<g>
				<g>
					<path fill="#FEFCE7" d="M249.797-343.702h26.745c4.606,0,8.422,0.511,11.449,1.53c3.025,1.021,5.428,2.336,7.204,3.946
						c1.777,1.615,3.011,3.457,3.701,5.527c0.69,2.072,1.037,4.13,1.037,6.169c0,1.908-0.314,3.621-0.938,5.133
						c-0.626,1.514-1.417,2.846-2.368,3.995c-0.956,1.152-1.99,2.123-3.108,2.912c-1.122,0.788-2.172,1.351-3.16,1.678
						c1.249,0.396,2.631,0.986,4.146,1.777c1.512,0.791,2.927,1.843,4.243,3.159c1.316,1.317,2.434,2.894,3.354,4.738
						c0.922,1.841,1.384,3.979,1.384,6.414c0,6.581-2.286,11.364-6.858,14.36c-4.575,2.996-11.271,4.491-20.086,4.491h-26.745
						V-343.702z M274.471-317.251c2.036,0,3.862-0.511,5.476-1.53c1.613-1.021,2.42-2.781,2.42-5.28c0-1.382-0.233-2.55-0.69-3.505
						c-0.464-0.953-1.072-1.694-1.829-2.221c-0.755-0.526-1.611-0.904-2.564-1.136c-0.956-0.228-1.893-0.345-2.812-0.345h-7.6
						v14.016L274.471-317.251L274.471-317.251z M275.753-290.311c0.987,0,2.072-0.082,3.258-0.247
						c1.185-0.163,2.271-0.507,3.256-1.033c0.988-0.527,1.809-1.317,2.468-2.373c0.656-1.049,0.986-2.464,0.986-4.242
						c0-1.644-0.33-2.976-0.986-3.995c-0.659-1.022-1.479-1.794-2.468-2.32c-0.986-0.526-2.072-0.889-3.256-1.088
						c-1.186-0.197-2.271-0.293-3.258-0.293h-8.881v15.591H275.753z"/>
					<path fill="#FEFCE7" d="M355.002-281.231c-0.79,0.464-1.792,0.973-3.008,1.531c-1.218,0.561-2.649,1.086-4.292,1.58
						c-1.647,0.493-3.489,0.922-5.528,1.283c-2.041,0.361-4.211,0.541-6.513,0.541c-8.555,0-15.101-2.153-19.642-6.462
						c-4.539-4.31-6.808-10.346-6.808-18.111c0-3.093,0.494-6.135,1.48-9.13c0.986-2.991,2.483-5.658,4.49-7.993
						c2.005-2.335,4.539-4.227,7.6-5.676c3.061-1.445,6.626-2.172,10.708-2.172c3.157,0,6.136,0.544,8.93,1.629
						c2.797,1.086,5.232,2.731,7.306,4.933c2.072,2.207,3.702,4.972,4.882,8.292c1.185,3.324,1.778,7.222,1.778,11.695v3.156
						h-31.384c0.064,0.791,0.278,1.614,0.641,2.467c0.363,0.859,0.988,1.663,1.875,2.419c0.889,0.758,2.074,1.367,3.555,1.827
						c1.478,0.46,3.303,0.69,5.475,0.69c2.831,0,5.413-0.361,7.748-1.085c2.337-0.724,4.161-1.478,5.479-2.271L355.002-281.231z
						 M341.582-306c0-0.792-0.166-1.614-0.493-2.47c-0.332-0.854-0.84-1.641-1.531-2.367c-0.692-0.723-1.548-1.333-2.567-1.827
						c-1.019-0.491-2.253-0.74-3.7-0.74c-1.38,0-2.599,0.249-3.652,0.74c-1.052,0.495-1.908,1.104-2.564,1.827
						c-0.66,0.726-1.152,1.514-1.482,2.367c-0.329,0.855-0.493,1.678-0.493,2.47H341.582z"/>
					<path fill="#FEFCE7" d="M363.788-343.702h16.678v65.829h-16.678V-343.702z"/>
					<path fill="#FEFCE7" d="M390.14-343.702h16.677v65.829H390.14V-343.702z"/>
					<path fill="#FEFCE7" d="M460.307-281.231c-0.789,0.464-1.794,0.973-3.008,1.531c-1.22,0.561-2.649,1.086-4.295,1.58
						c-1.645,0.493-3.488,0.922-5.528,1.283c-2.036,0.361-4.209,0.541-6.513,0.541c-8.552,0-15.1-2.153-19.639-6.462
						c-4.539-4.31-6.811-10.346-6.811-18.111c0-3.093,0.493-6.135,1.482-9.13c0.986-2.991,2.479-5.658,4.488-7.993
						c2.008-2.335,4.542-4.227,7.602-5.676c3.058-1.445,6.626-2.172,10.708-2.172c3.158,0,6.135,0.544,8.931,1.629
						c2.797,1.086,5.232,2.731,7.307,4.933c2.069,2.207,3.699,4.972,4.882,8.292c1.185,3.324,1.778,7.222,1.778,11.695v3.156
						h-31.384c0.063,0.791,0.277,1.614,0.641,2.467c0.36,0.859,0.986,1.663,1.876,2.419c0.889,0.758,2.073,1.367,3.552,1.827
						c1.48,0.46,3.306,0.69,5.478,0.69c2.83,0,5.412-0.361,7.748-1.085s4.16-1.478,5.479-2.271L460.307-281.231z M446.884-306
						c0-0.792-0.164-1.614-0.491-2.47c-0.332-0.854-0.84-1.641-1.529-2.367c-0.691-0.723-1.547-1.333-2.566-1.827
						c-1.02-0.491-2.253-0.74-3.703-0.74c-1.381,0-2.598,0.249-3.647,0.74c-1.056,0.495-1.912,1.104-2.567,1.827
						c-0.657,0.726-1.153,1.514-1.479,2.367c-0.331,0.855-0.494,1.678-0.494,2.47H446.884z"/>
					<path fill="#FEFCE7" d="M481.032-343.702h19.045l14.806,45.794l13.814-45.794h18.656l-23.984,65.829h-18.453L481.032-343.702z"
						/>
					<path fill="#FEFCE7" d="M548.044-324.26h16.68v25.366c0,2.303,0.477,4.143,1.432,5.524c0.952,1.382,2.646,2.076,5.081,2.076
						c1.316,0,2.419-0.232,3.307-0.694c0.89-0.46,1.612-1.086,2.173-1.874c0.558-0.791,0.952-1.661,1.186-2.615
						c0.23-0.954,0.344-1.925,0.344-2.911v-24.871h16.683v46.387h-16.089l-0.594-4.736c-0.921,1.118-1.974,2.071-3.155,2.86
						c-1.186,0.788-2.405,1.416-3.654,1.876c-1.251,0.46-2.45,0.788-3.604,0.989c-1.15,0.194-2.153,0.292-3.008,0.292
						c-2.437,0-4.673-0.344-6.712-1.035c-2.038-0.688-3.798-1.776-5.281-3.259c-1.479-1.479-2.648-3.37-3.502-5.673
						c-0.856-2.301-1.283-5.099-1.283-8.389v-29.312H548.044z"/>
					<path fill="#FEFCE7" d="M648.416-281.231c-0.79,0.464-1.798,0.973-3.013,1.531c-1.216,0.561-2.647,1.086-4.291,1.58
						c-1.646,0.493-3.491,0.922-5.528,1.283c-2.041,0.361-4.211,0.541-6.512,0.541c-8.554,0-15.104-2.153-19.642-6.462
						c-4.54-4.31-6.811-10.346-6.811-18.111c0-3.093,0.493-6.135,1.479-9.13c0.985-2.991,2.483-5.658,4.491-7.993
						c2.005-2.335,4.538-4.227,7.601-5.676c3.06-1.445,6.628-2.172,10.708-2.172c3.157,0,6.135,0.544,8.933,1.629
						c2.797,1.086,5.229,2.731,7.304,4.933c2.069,2.207,3.702,4.972,4.883,8.292c1.186,3.324,1.778,7.222,1.778,11.695v3.156H618.41
						c0.066,0.791,0.279,1.614,0.641,2.467c0.364,0.859,0.989,1.663,1.877,2.419c0.889,0.758,2.072,1.367,3.556,1.827
						c1.478,0.46,3.305,0.69,5.476,0.69c2.827,0,5.411-0.361,7.749-1.085c2.334-0.724,4.158-1.478,5.478-2.271L648.416-281.231z
						 M634.992-306c0-0.792-0.164-1.614-0.493-2.47c-0.33-0.854-0.842-1.641-1.529-2.367c-0.689-0.723-1.548-1.333-2.565-1.827
						c-1.021-0.491-2.255-0.74-3.7-0.74c-1.383,0-2.603,0.249-3.653,0.74c-1.054,0.495-1.909,1.104-2.564,1.827
						c-0.66,0.726-1.152,1.514-1.481,2.367c-0.328,0.855-0.493,1.678-0.493,2.47H634.992z"/>
				</g>
				<g>
					<g>
						<path fill="#FEFCE7" d="M630.959-230.392h8.075l10.085-17.455l-4.612-7.854h-31.6l-4.13,7.854l10.084,17.455h7.324v19.165
							l-13.562,4.944h32.442l-14.108-5.039L630.959-230.392L630.959-230.392z M612.634-247.517l12.013-1.363l9.62,1.938
							l11.112-0.469l-7.823,14.571h-16.946L612.634-247.517z"/>
					</g>
					<g>
						<path fill="#FEFCE7" d="M644.507-255.701l4.612,7.854l-10.085,17.455h-8.075v19.07l14.108,5.039h-32.442l13.562-4.944v-19.165
							h-7.324l-10.084-17.455l4.13-7.854H644.507 M620.608-232.839h16.946l7.823-14.571l-11.112,0.469l-9.619-1.938l-12.014,1.363
							L620.608-232.839 M645.079-256.701h-0.572h-31.6h-0.604l-0.279,0.534l-4.131,7.854l-0.257,0.488l0.275,0.478l10.084,17.455
							l0.289,0.5h0.577h6.324v17.465l-12.903,4.705l-5.319,1.939h5.662h32.442h5.771l-5.437-1.941l-13.444-4.803v-17.365h7.075
							h0.577l0.289-0.5l10.085-17.455l0.291-0.504l-0.295-0.503l-4.612-7.854L645.079-256.701L645.079-256.701z M614.221-246.69
							l10.383-1.178l9.467,1.907l0.117,0.023l0.121-0.005l9.359-0.395l-6.711,12.498h-15.754L614.221-246.69L614.221-246.69z"/>
					</g>
				</g>
				<g>
					<g>
						<path fill="#FEFCE7" d="M531.443-256.85l-14.914,14.512h-8.907v20.312h8.881l14.32,15.266l4.719-26.205L531.443-256.85z
							 M528.57-212.934l-11.056-11.306h-7.983v-15.906h8.002l11.516-11.571l-6.18,18.692L528.57-212.934z"/>
					</g>
					<g>
						<path fill="#FEFCE7" d="M531.443-256.85l4.099,23.884l-4.719,26.205l-14.32-15.266h-8.881v-20.312h8.907L531.443-256.85
							 M509.531-224.239h7.983l11.056,11.306l-5.701-20.091l6.18-18.692l-11.516,11.571h-8.002V-224.239 M532.107-258.892
							l-1.361,1.325l-14.623,14.229h-8.501h-1v1v20.312v1h1h8.448l14.022,14.95l1.361,1.45l0.353-1.958l4.72-26.205l0.03-0.173
							l-0.029-0.173l-4.1-23.884L532.107-258.892L532.107-258.892z M510.531-239.146h7.002h0.416l0.293-0.295l8.527-8.568
							l-4.851,14.671l-0.097,0.291l0.084,0.296l4.627,16.305l-8.304-8.492l-0.294-0.301h-0.422h-6.983L510.531-239.146
							L510.531-239.146z"/>
					</g>
				</g>
				<path fill="#FEFCE7" d="M550.875-255.705l1.648,21.208h5.3l1.524,28.636h24.557l1.526-28.636h5.298l1.652-21.208H550.875z
					 M588.311-237.029l-5.099,0.208l-1.494,28.324l-20.55-0.05l-1.595-28.382l-4.946-0.049l-0.773-10.916l9.434-0.715l12.768,2.93
					l13.134-2.785L588.311-237.029z"/>
			</g>
		</g>
	</g>
</g>
<g id="Layer_2">
	<rect x="0.217" fill="#DCB43A" width="897.191" height="398.161"/>
	<g>
		<g>
			<g>
				<path fill="#FEFCE7" d="M248.705,128.16h26.745c4.606,0,8.422,0.51,11.45,1.53c3.025,1.021,5.427,2.335,7.203,3.945
					c1.778,1.614,3.012,3.456,3.702,5.528c0.689,2.07,1.036,4.129,1.036,6.168c0,1.909-0.314,3.621-0.937,5.132
					c-0.625,1.514-1.417,2.847-2.368,3.996c-0.956,1.152-1.99,2.124-3.109,2.912c-1.122,0.788-2.172,1.352-3.16,1.679
					c1.249,0.395,2.63,0.986,4.146,1.775c1.512,0.792,2.927,1.844,4.243,3.159c1.316,1.318,2.434,2.895,3.354,4.739
					c0.922,1.841,1.384,3.978,1.384,6.413c0,6.582-2.286,11.364-6.858,14.36c-4.575,2.996-11.271,4.49-20.086,4.49h-26.745V128.16
					L248.705,128.16z M273.378,154.611c2.036,0,3.863-0.512,5.476-1.53c1.613-1.021,2.419-2.781,2.419-5.279
					c0-1.383-0.232-2.551-0.69-3.506c-0.464-0.952-1.072-1.693-1.829-2.219c-0.755-0.527-1.612-0.905-2.564-1.137
					c-0.955-0.229-1.893-0.345-2.812-0.345h-7.6v14.016H273.378L273.378,154.611z M274.66,181.552c0.987,0,2.073-0.082,3.258-0.246
					s2.271-0.508,3.257-1.034c0.988-0.527,1.809-1.317,2.467-2.372c0.657-1.049,0.986-2.465,0.986-4.243
					c0-1.644-0.329-2.976-0.986-3.993c-0.659-1.022-1.479-1.795-2.467-2.32c-0.986-0.527-2.072-0.89-3.257-1.089
					c-1.185-0.197-2.271-0.294-3.258-0.294h-8.881v15.592L274.66,181.552L274.66,181.552z"/>
				<path fill="#FEFCE7" d="M353.909,190.63c-0.79,0.464-1.792,0.974-3.008,1.532c-1.218,0.56-2.649,1.085-4.292,1.579
					c-1.647,0.494-3.489,0.923-5.528,1.282c-2.041,0.361-4.211,0.542-6.513,0.542c-8.555,0-15.1-2.153-19.641-6.462
					c-4.54-4.31-6.809-10.345-6.809-18.11c0-3.093,0.494-6.135,1.48-9.132c0.986-2.989,2.483-5.656,4.49-7.992
					c2.006-2.334,4.54-4.226,7.6-5.676c3.061-1.444,6.627-2.171,10.708-2.171c3.157,0,6.136,0.543,8.93,1.629
					c2.797,1.087,5.232,2.732,7.306,4.934c2.072,2.207,3.701,4.972,4.882,8.291c1.185,3.324,1.778,7.223,1.778,11.697v3.155h-31.384
					c0.064,0.791,0.278,1.613,0.641,2.467c0.362,0.858,0.988,1.664,1.875,2.419c0.889,0.759,2.075,1.367,3.555,1.827
					c1.478,0.459,3.303,0.689,5.475,0.689c2.831,0,5.413-0.361,7.747-1.085c2.337-0.725,4.162-1.479,5.48-2.271L353.909,190.63z
					 M340.489,165.861c0-0.791-0.166-1.613-0.493-2.469c-0.333-0.853-0.841-1.642-1.531-2.367c-0.692-0.723-1.548-1.332-2.567-1.827
					c-1.019-0.493-2.252-0.74-3.699-0.74c-1.38,0-2.599,0.247-3.652,0.74c-1.052,0.495-1.909,1.104-2.564,1.827
					c-0.66,0.726-1.152,1.515-1.482,2.367c-0.329,0.855-0.493,1.678-0.493,2.469H340.489z"/>
				<path fill="#FEFCE7" d="M362.695,128.16h16.678v65.828h-16.678V128.16z"/>
				<path fill="#FEFCE7" d="M389.047,128.16h16.677v65.828h-16.677V128.16z"/>
				<path fill="#FEFCE7" d="M459.216,190.63c-0.79,0.464-1.795,0.974-3.01,1.532c-1.22,0.56-2.649,1.085-4.296,1.579
					c-1.645,0.494-3.488,0.923-5.525,1.282c-2.039,0.361-4.211,0.542-6.515,0.542c-8.551,0-15.101-2.153-19.639-6.462
					c-4.539-4.31-6.811-10.345-6.811-18.11c0-3.093,0.494-6.135,1.482-9.132c0.985-2.989,2.479-5.656,4.487-7.992
					c2.008-2.334,4.542-4.226,7.603-5.676c3.058-1.444,6.626-2.171,10.708-2.171c3.156,0,6.133,0.543,8.931,1.629
					c2.796,1.087,5.231,2.732,7.305,4.934c2.07,2.207,3.698,4.972,4.882,8.291c1.187,3.324,1.778,7.223,1.778,11.697v3.155h-31.383
					c0.063,0.791,0.277,1.613,0.64,2.467c0.362,0.858,0.987,1.664,1.877,2.419c0.889,0.759,2.072,1.367,3.552,1.827
					c1.479,0.459,3.306,0.689,5.477,0.689c2.831,0,5.414-0.361,7.749-1.085c2.334-0.725,4.16-1.479,5.479-2.271L459.216,190.63z
					 M445.79,165.861c0-0.791-0.162-1.613-0.489-2.469c-0.334-0.853-0.841-1.642-1.529-2.367c-0.693-0.723-1.548-1.332-2.566-1.827
					c-1.021-0.493-2.255-0.74-3.703-0.74c-1.382,0-2.6,0.247-3.649,0.74c-1.055,0.495-1.911,1.104-2.566,1.827
					c-0.657,0.726-1.153,1.515-1.481,2.367c-0.331,0.855-0.494,1.678-0.494,2.469H445.79z"/>
				<path fill="#FEFCE7" d="M479.94,128.16h19.046l14.805,45.793l13.814-45.793h18.655l-23.984,65.828h-18.451L479.94,128.16z"/>
				<path fill="#FEFCE7" d="M546.951,147.602h16.681v25.366c0,2.303,0.477,4.143,1.43,5.523c0.952,1.383,2.647,2.076,5.083,2.076
					c1.315,0,2.418-0.231,3.306-0.693c0.891-0.46,1.612-1.086,2.175-1.874c0.555-0.792,0.95-1.662,1.184-2.616
					c0.229-0.953,0.345-1.925,0.345-2.911v-24.871h16.682v46.387h-16.089l-0.593-4.736c-0.921,1.117-1.974,2.072-3.155,2.861
					c-1.188,0.788-2.405,1.416-3.656,1.875c-1.252,0.46-2.448,0.788-3.601,0.988c-1.152,0.196-2.156,0.293-3.009,0.293
					c-2.437,0-4.675-0.344-6.714-1.034s-3.798-1.776-5.279-3.259c-1.479-1.479-2.648-3.371-3.501-5.673
					c-0.858-2.302-1.285-5.099-1.285-8.39v-29.312H546.951z"/>
				<path fill="#FEFCE7" d="M647.322,190.63c-0.789,0.464-1.797,0.974-3.013,1.532c-1.215,0.56-2.646,1.085-4.291,1.579
					c-1.646,0.494-3.488,0.923-5.527,1.282c-2.039,0.361-4.21,0.542-6.513,0.542c-8.552,0-15.102-2.153-19.641-6.462
					c-4.539-4.31-6.81-10.345-6.81-18.11c0-3.093,0.491-6.135,1.478-9.132c0.986-2.989,2.484-5.656,4.494-7.992
					c2.003-2.334,4.537-4.226,7.599-5.676c3.06-1.444,6.627-2.171,10.707-2.171c3.158,0,6.137,0.543,8.936,1.629
					c2.797,1.087,5.228,2.732,7.302,4.934c2.07,2.207,3.701,4.972,4.884,8.291c1.185,3.324,1.778,7.223,1.778,11.697v3.155h-31.388
					c0.067,0.791,0.28,1.613,0.643,2.467c0.362,0.858,0.986,1.664,1.876,2.419c0.887,0.759,2.072,1.367,3.555,1.827
					c1.479,0.459,3.307,0.689,5.477,0.689c2.827,0,5.41-0.361,7.75-1.085c2.333-0.725,4.156-1.479,5.476-2.271L647.322,190.63z
					 M633.9,165.861c0-0.791-0.165-1.613-0.494-2.469c-0.33-0.853-0.842-1.642-1.528-2.367c-0.69-0.723-1.548-1.332-2.567-1.827
					c-1.02-0.493-2.253-0.74-3.698-0.74c-1.386,0-2.604,0.247-3.654,0.74c-1.055,0.495-1.908,1.104-2.564,1.827
					c-0.659,0.726-1.151,1.515-1.48,2.367c-0.329,0.855-0.492,1.678-0.492,2.469H633.9z"/>
			</g>
			<g>
				<g>
					<path fill="#FEFCE7" d="M629.867,241.47h8.074l10.085-17.454l-4.611-7.855h-31.601l-4.13,7.855l10.085,17.454h7.323v19.163
						l-13.561,4.947h32.44l-14.106-5.039L629.867,241.47L629.867,241.47z M611.541,224.344l12.012-1.361l9.62,1.938l11.114-0.469
						l-7.824,14.57h-16.947L611.541,224.344z"/>
				</g>
				<g>
					<path fill="#FEFCE7" d="M643.415,216.161l4.611,7.854l-10.085,17.454h-8.074v19.07l14.106,5.039h-32.44l13.561-4.945V241.47
						h-7.322l-10.086-17.454l4.13-7.855H643.415 M619.516,239.022h16.947l7.824-14.57l-11.114,0.469l-9.62-1.938l-12.012,1.361
						L619.516,239.022 M643.987,215.161h-0.572h-31.601h-0.604l-0.28,0.534l-4.129,7.854l-0.257,0.488l0.275,0.478l10.085,17.454
						l0.289,0.5h0.576h6.323v17.465l-12.903,4.706l-5.316,1.938h5.66h32.44h5.772l-5.438-1.94l-13.442-4.804V242.47h7.073h0.577
						l0.289-0.5l10.085-17.454l0.291-0.504l-0.295-0.502l-4.611-7.855L643.987,215.161L643.987,215.161z M613.128,225.17
						l10.381-1.176l9.467,1.906l0.118,0.023l0.121-0.006l9.361-0.395l-6.711,12.497H620.11L613.128,225.17L613.128,225.17z"/>
				</g>
			</g>
			<g>
				<g>
					<path fill="#FEFCE7" d="M530.352,215.012l-14.914,14.513h-8.906v20.312h8.882l14.317,15.267l4.72-26.205L530.352,215.012z
						 M527.476,258.928l-11.055-11.307h-7.981v-15.904h8.001l11.518-11.571l-6.181,18.692L527.476,258.928z"/>
				</g>
				<g>
					<path fill="#FEFCE7" d="M530.352,215.012l4.099,23.885l-4.719,26.205l-14.318-15.266h-8.882v-20.312h8.907L530.352,215.012
						 M508.438,247.622h7.982l11.055,11.307l-5.698-20.09l6.181-18.692l-11.518,11.571h-8.001L508.438,247.622 M531.016,212.97
						l-1.36,1.325l-14.623,14.229h-8.501h-1v1v20.312v1h1h8.447l14.022,14.949l1.361,1.45l0.353-1.958l4.719-26.205l0.031-0.173
						l-0.03-0.173l-4.098-23.885L531.016,212.97L531.016,212.97z M509.438,232.717h7.002h0.416l0.293-0.295l8.528-8.569
						l-4.851,14.672l-0.098,0.291l0.084,0.295l4.625,16.306l-8.304-8.494l-0.294-0.301h-0.421h-6.982L509.438,232.717
						L509.438,232.717z"/>
				</g>
			</g>
			<path fill="#FEFCE7" d="M549.783,216.157l1.646,21.206h5.302L558.255,266h24.558l1.527-28.638h5.299l1.65-21.206H549.783z
				 M587.219,234.833l-5.1,0.207l-1.493,28.323l-20.551-0.049l-1.595-28.382l-4.944-0.047l-0.774-10.918l9.433-0.715l12.768,2.93
				l13.133-2.785L587.219,234.833z"/>
		</g>
	</g>
</g>
</svg>
