<?xml version="1.0" encoding="utf-8"?>
<!-- Generator: Adobe Illustrator 16.0.0, SVG Export Plug-In . SVG Version: 6.00 Build 0)  -->
<!DOCTYPE svg PUBLIC "-//W3C//DTD SVG 1.1//EN" "http://www.w3.org/Graphics/SVG/1.1/DTD/svg11.dtd">
<svg version="1.1" id="belle-vue-logo" xmlns="http://www.w3.org/2000/svg" xmlns:xlink="http://www.w3.org/1999/xlink" x="0px"
	 y="0px" width="2870px" height="960px" viewBox="5 -310.5 2870 960" enable-background="new 5 -310.5 2870 960"
	 xml:space="preserve">
<g>
	<rect x="958" y="-310.5" fill="none" width="960" height="960"/>
	<g>
		<g id="circles_3_" opacity="0.15">
			<radialGradient id="SVGID_1_" cx="1139.3555" cy="145.8452" r="28.0759" gradientUnits="userSpaceOnUse">
				<stop  offset="0" style="stop-color:#3BB44A"/>
				<stop  offset="0.0793" style="stop-color:#44B248"/>
				<stop  offset="0.2113" style="stop-color:#5EAE42"/>
				<stop  offset="0.3796" style="stop-color:#87A639"/>
				<stop  offset="0.5756" style="stop-color:#C09C2C"/>
				<stop  offset="0.7416" style="stop-color:#F69220"/>
				<stop  offset="0.8652" style="stop-color:#D8DF27"/>
				<stop  offset="1" style="stop-color:#F9EC31;stop-opacity:0.5"/>
			</radialGradient>
			<circle fill="url(#SVGID_1_)" cx="1139.355" cy="145.846" r="28.076"/>
			<radialGradient id="SVGID_2_" cx="1009.9043" cy="267.5273" r="28.0757" gradientUnits="userSpaceOnUse">
				<stop  offset="0" style="stop-color:#3BB44A"/>
				<stop  offset="0.0793" style="stop-color:#44B248"/>
				<stop  offset="0.2113" style="stop-color:#5EAE42"/>
				<stop  offset="0.3796" style="stop-color:#87A639"/>
				<stop  offset="0.5756" style="stop-color:#C09C2C"/>
				<stop  offset="0.7416" style="stop-color:#F69220"/>
				<stop  offset="0.8652" style="stop-color:#D8DF27"/>
				<stop  offset="1" style="stop-color:#F9EC31;stop-opacity:0.5"/>
			</radialGradient>
			<circle fill="url(#SVGID_2_)" cx="1009.904" cy="267.526" r="28.076"/>
			<radialGradient id="SVGID_3_" cx="1113.4004" cy="336.0771" r="66.3613" gradientUnits="userSpaceOnUse">
				<stop  offset="0" style="stop-color:#3BB44A"/>
				<stop  offset="0.0793" style="stop-color:#44B248"/>
				<stop  offset="0.2113" style="stop-color:#5EAE42"/>
				<stop  offset="0.3796" style="stop-color:#87A639"/>
				<stop  offset="0.5756" style="stop-color:#C09C2C"/>
				<stop  offset="0.7416" style="stop-color:#F69220"/>
				<stop  offset="0.8652" style="stop-color:#D8DF27"/>
				<stop  offset="1" style="stop-color:#F9EC31;stop-opacity:0.5"/>
			</radialGradient>
			<circle fill="url(#SVGID_3_)" cx="1113.401" cy="336.077" r="66.361"/>
			<radialGradient id="SVGID_4_" cx="1206.1943" cy="66.7563" r="74.0183" gradientUnits="userSpaceOnUse">
				<stop  offset="0" style="stop-color:#3BB44A"/>
				<stop  offset="0.0793" style="stop-color:#44B248"/>
				<stop  offset="0.2113" style="stop-color:#5EAE42"/>
				<stop  offset="0.3796" style="stop-color:#87A639"/>
				<stop  offset="0.5756" style="stop-color:#C09C2C"/>
				<stop  offset="0.7416" style="stop-color:#F69220"/>
				<stop  offset="0.8652" style="stop-color:#D8DF27"/>
				<stop  offset="1" style="stop-color:#F9EC31;stop-opacity:0.5"/>
			</radialGradient>
			<circle fill="url(#SVGID_4_)" cx="1206.193" cy="66.756" r="74.018"/>
			<radialGradient id="SVGID_5_" cx="1444.1562" cy="232.6133" r="25.0137" gradientUnits="userSpaceOnUse">
				<stop  offset="0" style="stop-color:#3BB44A"/>
				<stop  offset="0.0793" style="stop-color:#44B248"/>
				<stop  offset="0.2113" style="stop-color:#5EAE42"/>
				<stop  offset="0.3796" style="stop-color:#87A639"/>
				<stop  offset="0.5756" style="stop-color:#C09C2C"/>
				<stop  offset="0.7416" style="stop-color:#F69220"/>
				<stop  offset="0.8652" style="stop-color:#D8DF27"/>
				<stop  offset="1" style="stop-color:#F9EC31;stop-opacity:0.5"/>
			</radialGradient>
			<circle fill="url(#SVGID_5_)" cx="1444.156" cy="232.614" r="25.013"/>
			<radialGradient id="SVGID_6_" cx="1509.8828" cy="333.3018" r="50.0259" gradientUnits="userSpaceOnUse">
				<stop  offset="0" style="stop-color:#3BB44A"/>
				<stop  offset="0.0793" style="stop-color:#44B248"/>
				<stop  offset="0.2113" style="stop-color:#5EAE42"/>
				<stop  offset="0.3796" style="stop-color:#87A639"/>
				<stop  offset="0.5756" style="stop-color:#C09C2C"/>
				<stop  offset="0.7416" style="stop-color:#F69220"/>
				<stop  offset="0.8652" style="stop-color:#D8DF27"/>
				<stop  offset="1" style="stop-color:#F9EC31;stop-opacity:0.5"/>
			</radialGradient>
			<circle fill="url(#SVGID_6_)" cx="1509.883" cy="333.302" r="50.026"/>
			<radialGradient id="SVGID_7_" cx="1429.1758" cy="37.4316" r="13.7834" gradientUnits="userSpaceOnUse">
				<stop  offset="0" style="stop-color:#3BB44A"/>
				<stop  offset="0.0793" style="stop-color:#44B248"/>
				<stop  offset="0.2113" style="stop-color:#5EAE42"/>
				<stop  offset="0.3796" style="stop-color:#87A639"/>
				<stop  offset="0.5756" style="stop-color:#C09C2C"/>
				<stop  offset="0.7416" style="stop-color:#F69220"/>
				<stop  offset="0.8652" style="stop-color:#D8DF27"/>
				<stop  offset="1" style="stop-color:#F9EC31;stop-opacity:0.5"/>
			</radialGradient>
			<circle fill="url(#SVGID_7_)" cx="1429.177" cy="37.432" r="13.783"/>
			<radialGradient id="SVGID_8_" cx="1745.2705" cy="261.7373" r="32.1597" gradientUnits="userSpaceOnUse">
				<stop  offset="0" style="stop-color:#3BB44A"/>
				<stop  offset="0.0793" style="stop-color:#44B248"/>
				<stop  offset="0.2113" style="stop-color:#5EAE42"/>
				<stop  offset="0.3796" style="stop-color:#87A639"/>
				<stop  offset="0.5756" style="stop-color:#C09C2C"/>
				<stop  offset="0.7416" style="stop-color:#F69220"/>
				<stop  offset="0.8652" style="stop-color:#D8DF27"/>
				<stop  offset="1" style="stop-color:#F9EC31;stop-opacity:0.5"/>
			</radialGradient>
			<path fill="url(#SVGID_8_)" d="M1745.271,293.897c17.761,0,32.158-14.399,32.158-32.161c0-17.76-14.397-32.159-32.158-32.159
				c-17.764,0-32.16,14.399-32.16,32.159C1713.111,279.498,1727.508,293.897,1745.271,293.897z"/>
			<radialGradient id="SVGID_9_" cx="1585.2852" cy="161.1558" r="13.783" gradientUnits="userSpaceOnUse">
				<stop  offset="0" style="stop-color:#3BB44A"/>
				<stop  offset="0.0793" style="stop-color:#44B248"/>
				<stop  offset="0.2113" style="stop-color:#5EAE42"/>
				<stop  offset="0.3796" style="stop-color:#87A639"/>
				<stop  offset="0.5756" style="stop-color:#C09C2C"/>
				<stop  offset="0.7416" style="stop-color:#F69220"/>
				<stop  offset="0.8652" style="stop-color:#D8DF27"/>
				<stop  offset="1" style="stop-color:#F9EC31;stop-opacity:0.5"/>
			</radialGradient>
			<circle fill="url(#SVGID_9_)" cx="1585.285" cy="161.156" r="13.783"/>
			<radialGradient id="SVGID_10_" cx="1682.123" cy="96.8208" r="46.9631" gradientUnits="userSpaceOnUse">
				<stop  offset="0" style="stop-color:#3BB44A"/>
				<stop  offset="0.0793" style="stop-color:#44B248"/>
				<stop  offset="0.2113" style="stop-color:#5EAE42"/>
				<stop  offset="0.3796" style="stop-color:#87A639"/>
				<stop  offset="0.5756" style="stop-color:#C09C2C"/>
				<stop  offset="0.7416" style="stop-color:#F69220"/>
				<stop  offset="0.8652" style="stop-color:#D8DF27"/>
				<stop  offset="1" style="stop-color:#F9EC31;stop-opacity:0.5"/>
			</radialGradient>
			<circle fill="url(#SVGID_10_)" cx="1682.123" cy="96.821" r="46.963"/>
			<radialGradient id="SVGID_11_" cx="1433.2051" cy="278.2617" r="8.6772" gradientUnits="userSpaceOnUse">
				<stop  offset="0" style="stop-color:#3BB44A"/>
				<stop  offset="0.0793" style="stop-color:#44B248"/>
				<stop  offset="0.2113" style="stop-color:#5EAE42"/>
				<stop  offset="0.3796" style="stop-color:#87A639"/>
				<stop  offset="0.5756" style="stop-color:#C09C2C"/>
				<stop  offset="0.7416" style="stop-color:#F69220"/>
				<stop  offset="0.8652" style="stop-color:#D8DF27"/>
				<stop  offset="1" style="stop-color:#F9EC31;stop-opacity:0.5"/>
			</radialGradient>
			<circle fill="url(#SVGID_11_)" cx="1433.203" cy="278.261" r="8.678"/>
			<radialGradient id="SVGID_12_" cx="1711.5039" cy="229.2754" r="9.189" gradientUnits="userSpaceOnUse">
				<stop  offset="0" style="stop-color:#3BB44A"/>
				<stop  offset="0.0793" style="stop-color:#44B248"/>
				<stop  offset="0.2113" style="stop-color:#5EAE42"/>
				<stop  offset="0.3796" style="stop-color:#87A639"/>
				<stop  offset="0.5756" style="stop-color:#C09C2C"/>
				<stop  offset="0.7416" style="stop-color:#F69220"/>
				<stop  offset="0.8652" style="stop-color:#D8DF27"/>
				<stop  offset="1" style="stop-color:#F9EC31;stop-opacity:0.5"/>
			</radialGradient>
			<circle fill="url(#SVGID_12_)" cx="1711.504" cy="229.275" r="9.189"/>
			<radialGradient id="SVGID_13_" cx="1444.1992" cy="99.7544" r="13.7832" gradientUnits="userSpaceOnUse">
				<stop  offset="0" style="stop-color:#3BB44A"/>
				<stop  offset="0.0793" style="stop-color:#44B248"/>
				<stop  offset="0.2113" style="stop-color:#5EAE42"/>
				<stop  offset="0.3796" style="stop-color:#87A639"/>
				<stop  offset="0.5756" style="stop-color:#C09C2C"/>
				<stop  offset="0.7416" style="stop-color:#F69220"/>
				<stop  offset="0.8652" style="stop-color:#D8DF27"/>
				<stop  offset="1" style="stop-color:#F9EC31;stop-opacity:0.5"/>
			</radialGradient>
			<circle fill="url(#SVGID_13_)" cx="1444.2" cy="99.754" r="13.783"/>
			<radialGradient id="SVGID_14_" cx="1178.4385" cy="127.4644" r="8.678" gradientUnits="userSpaceOnUse">
				<stop  offset="0" style="stop-color:#3BB44A"/>
				<stop  offset="0.0793" style="stop-color:#44B248"/>
				<stop  offset="0.2113" style="stop-color:#5EAE42"/>
				<stop  offset="0.3796" style="stop-color:#87A639"/>
				<stop  offset="0.5756" style="stop-color:#C09C2C"/>
				<stop  offset="0.7416" style="stop-color:#F69220"/>
				<stop  offset="0.8652" style="stop-color:#D8DF27"/>
				<stop  offset="1" style="stop-color:#F9EC31;stop-opacity:0.5"/>
			</radialGradient>
			<circle fill="url(#SVGID_14_)" cx="1178.438" cy="127.464" r="8.678"/>
			<radialGradient id="SVGID_15_" cx="1136.4287" cy="222.0723" r="8.6782" gradientUnits="userSpaceOnUse">
				<stop  offset="0" style="stop-color:#3BB44A"/>
				<stop  offset="0.0793" style="stop-color:#44B248"/>
				<stop  offset="0.2113" style="stop-color:#5EAE42"/>
				<stop  offset="0.3796" style="stop-color:#87A639"/>
				<stop  offset="0.5756" style="stop-color:#C09C2C"/>
				<stop  offset="0.7416" style="stop-color:#F69220"/>
				<stop  offset="0.8652" style="stop-color:#D8DF27"/>
				<stop  offset="1" style="stop-color:#F9EC31;stop-opacity:0.5"/>
			</radialGradient>
			<circle fill="url(#SVGID_15_)" cx="1136.429" cy="222.073" r="8.678"/>
		</g>
		<g id="wires_3_" opacity="0.8">
			<polyline fill="none" stroke="#E63777" stroke-miterlimit="10" stroke-opacity="0.3" points="1237.45,52.199 1288.96,59.477 
				1263.204,112.667 			"/>
			<polyline fill="none" stroke="#E63777" stroke-miterlimit="10" stroke-opacity="0.3" points="1235.21,-17.788 1288.96,59.477 
				1323.673,86.352 1377.423,29.244 			"/>
			<path fill="none" stroke="#E63777" stroke-miterlimit="10" stroke-opacity="0.3" d="M1309.675,19.166l-20.715,40.312
				L1309.675,19.166z"/>
			
				<line fill="none" stroke="#E63777" stroke-miterlimit="10" stroke-opacity="0.3" x1="1323.673" y1="86.352" x2="1309.675" y2="19.166"/>
			<polygon fill="none" stroke="#E63777" stroke-miterlimit="10" stroke-opacity="0.3" points="1377.423,29.244 1436.771,2.369 
				1544.827,36.522 1487.158,63.396 1499.069,108.067 1460.284,107.067 1408.215,123.305 1487.158,63.396 1436.771,2.369 
				1420.533,37.083 1408.215,123.305 			"/>
			<polyline fill="none" stroke="#E63777" stroke-miterlimit="10" stroke-opacity="0.3" points="1568.903,210.086 1547.068,178.734 
				1560.504,134.356 1584.844,108.712 1498.828,108.712 1560.504,134.356 1531.391,149.266 1498.828,107.989 			"/>
			<polyline fill="none" stroke="#E63777" stroke-miterlimit="10" stroke-opacity="0.3" points="1527.264,189.827 1547.068,178.734 
				1533.07,180.973 1531.391,149.059 			"/>
			<polyline fill="none" stroke="#E63777" stroke-miterlimit="10" stroke-opacity="0.3" points="1720.621,111.881 1697.678,94.75 
				1720.074,168.656 1695.438,205.607 1720.621,232.614 1680.824,236.594 1695.438,205.607 1680.824,111.881 1697.678,94.75 
				1721.192,85.792 1699.918,71.795 			"/>
			<polyline fill="none" stroke="#E63777" stroke-miterlimit="10" stroke-opacity="0.3" points="1671.867,111.881 1652.886,107.067 
				1638.329,131.701 1652.886,107.067 1622.093,87.472 1584.844,107.885 			"/>
			<polyline fill="none" stroke="#E63777" stroke-miterlimit="10" stroke-opacity="0.3" points="1763.745,98.11 1754.787,85.232 
				1788.379,74.595 1765.982,44.92 1731.271,58.357 1737.989,5.169 1689.279,27.563 1611.455,39.882 1574.781,6.567 
				1544.827,36.522 1540.909,71.235 1611.455,39.882 1676.4,57.798 1671.867,111.881 1638.329,131.701 1584.844,107.885 
				1611.455,39.882 1622.093,87.472 1676.4,57.798 1689.279,27.563 1731.271,58.357 1676.4,57.798 1697.678,94.75 1699.918,71.795 
				1731.271,58.357 1754.787,85.232 1729.578,111.881 1721.192,85.792 1754.787,85.232 1788.379,74.595 1791.27,109.56 
				1763.745,98.11 1768.783,117.145 1729.578,111.881 			"/>
			<polygon fill="none" stroke="#E63777" stroke-miterlimit="10" stroke-opacity="0.3" points="1460.284,107.067 1434.53,125.545 
				1419.307,150.356 1452.447,151.299 1464.764,179.293 1433.412,188.251 1452.447,151.299 			"/>
			<polygon fill="none" stroke="#E63777" stroke-miterlimit="10" stroke-opacity="0.3" points="1464.764,179.293 1460.284,107.067 
				1478.762,121.064 1498.828,107.885 1478.762,121.064 			"/>
			<polyline fill="none" stroke="#E63777" stroke-miterlimit="10" stroke-opacity="0.3" points="1419.307,150.356 1431.73,164.737 
				1433.412,188.251 1441.248,204.488 1417.979,229.297 1407.656,197.769 1371.586,170.214 			"/>
			<polyline fill="none" stroke="#E63777" stroke-miterlimit="10" stroke-opacity="0.3" points="1408.215,123.305 1434.53,125.545 
				1450.207,152.418 1431.73,164.737 1409.335,177.055 1433.412,188.251 1407.656,197.769 1441.248,204.488 1441.689,230.787 
				1417.979,229.297 1427.812,260.477 1441.689,230.787 1469.803,282.872 1481.002,263.275 1491.64,239.202 1534.189,237.521 
				1527.264,189.827 1449.814,234.604 1481.002,263.275 1550.429,287.353 1491.64,239.202 1465.366,179.979 1534.189,237.521 
				1548.158,234.604 1550.429,287.353 1584.47,232.614 1556.285,230.787 1568.903,210.086 1584.47,107.901 1487.158,63.396 
				1420.533,37.083 1377.423,29.244 			"/>
			
				<line fill="none" stroke="#E63777" stroke-miterlimit="10" stroke-opacity="0.3" x1="1441.248" y1="204.488" x2="1464.764" y2="179.293"/>
			<polyline fill="none" stroke="#E63777" stroke-miterlimit="10" stroke-opacity="0.3" points="1638.329,131.701 1659.605,147.939 
				1630.49,144.58 1584.47,107.901 			"/>
			<polyline fill="none" stroke="#E63777" stroke-miterlimit="10" stroke-opacity="0.3" points="1630.49,144.58 1671.867,212.05 
				1659.605,147.939 1671.867,111.881 			"/>
			<polyline fill="none" stroke="#E63777" stroke-miterlimit="10" stroke-opacity="0.3" points="1768.783,117.145 1732.23,168.599 
				1729.578,111.881 			"/>
			
				<line fill="none" stroke="#E63777" stroke-miterlimit="10" stroke-opacity="0.3" x1="1540.909" y1="71.235" x2="1487.158" y2="63.396"/>
			<polyline fill="none" stroke="#E63777" stroke-miterlimit="10" stroke-opacity="0.3" points="1223.95,111.881 1179.781,60.036 
				1237.45,52.199 1235.21,-17.788 1309.675,19.166 1377.423,29.244 1343.849,111.881 1323.673,86.352 1293.938,125.45 
				1293.439,126.104 1342.054,112.388 1343.849,111.881 1330.951,145.14 1312.475,152.418 1343.821,181.105 1330.951,145.14 
				1330.951,145.14 1293.938,125.45 			"/>
			<polyline fill="none" stroke="#E63777" stroke-miterlimit="10" stroke-opacity="0.3" points="1341.951,180.17 1299.862,211.969 
				1332.13,216.645 1343.849,232.614 1307.344,257.33 1312.956,233.48 1299.862,211.969 			"/>
			<polyline fill="none" stroke="#E63777" stroke-miterlimit="10" stroke-opacity="0.3" points="1264.32,233.013 1251.227,279.78 
				1227.377,264.347 1223.95,232.614 1146.006,327.01 1239.535,329.817 1205.865,291.47 1227.377,264.347 1205.865,291.47 
				1251.227,279.78 1307.344,257.33 1264.32,233.013 1312.956,233.48 1332.13,216.645 1343.821,181.105 			"/>
			<polygon fill="none" stroke="#E63777" stroke-miterlimit="10" stroke-opacity="0.3" points="1312.956,308.305 1239.535,329.817 
				1251.227,279.78 			"/>
			<polygon fill="none" stroke="#E63777" stroke-miterlimit="10" stroke-opacity="0.3" points="1292.38,283.052 1312.956,308.305 
				1330.26,270.893 1307.344,257.33 			"/>
			<polyline fill="none" stroke="#E63777" stroke-miterlimit="10" stroke-opacity="0.3" points="1251.227,279.78 1292.38,283.052 
				1330.26,270.893 1358.318,260.604 1343.849,232.614 1369.074,245.173 1352.805,232.614 1368.139,224.596 1371.586,170.214 			"/>
			<polygon fill="none" stroke="#E63777" stroke-miterlimit="10" stroke-opacity="0.3" points="1368.139,224.596 1411.678,235.6 
				1380.298,239.094 1369.074,245.173 1397.133,269.023 1358.318,260.604 1369.074,245.173 			"/>
			<polygon fill="none" stroke="#E63777" stroke-miterlimit="10" stroke-opacity="0.3" points="1427.812,260.477 1380.298,239.094 
				1397.133,269.023 1406.486,261.54 			"/>
			<polyline fill="none" stroke="#E63777" stroke-miterlimit="10" stroke-opacity="0.3" points="1406.486,261.54 1429.4,292.405 
				1469.803,282.872 1427.812,260.477 			"/>
			<polyline fill="none" stroke="#E63777" stroke-miterlimit="10" stroke-opacity="0.3" points="1358.318,260.604 1339.612,294.275 
				1395.262,268.555 1429.4,292.405 1312.956,308.305 1339.612,294.275 			"/>
			<polygon fill="none" stroke="#E63777" stroke-miterlimit="10" stroke-opacity="0.3" points="1593.687,232.487 1633.762,272.766 
				1643.583,221.789 			"/>
			<polyline fill="none" stroke="#E63777" stroke-miterlimit="10" stroke-opacity="0.3" points="1630.021,207.762 1643.583,221.789 
				1678.656,235.352 1618.331,180.636 1630.021,207.762 1593.687,232.487 1618.331,179.234 1593.428,132.445 			"/>
			<path fill="none" stroke="#E63777" stroke-miterlimit="10" stroke-opacity="0.3" d="M1250.866-14.996l-40.275-6.869
				L1250.866-14.996z"/>
			
				<line fill="none" stroke="#E63777" stroke-miterlimit="10" stroke-opacity="0.3" x1="1196.908" y1="15.269" x2="1250.866" y2="-14.996"/>
			<polygon fill="none" stroke="#E63777" stroke-miterlimit="10" stroke-opacity="0.3" points="1180.861,69.51 1224.356,118.016 
				1224.316,231.343 1181.327,184.439 1142.314,209.243 1131.592,171.956 1100.434,127.189 1181.327,184.439 1224.356,118.016 
				1186.366,112.981 1100.434,127.189 			"/>
			<polyline fill="none" stroke="#E63777" stroke-miterlimit="10" stroke-opacity="0.3" points="1157.09,259.655 1178.117,232.375 
				1219.911,231.884 1248.56,245.848 1225.218,171.905 1219.911,231.884 1199.193,210.902 1225.841,171.709 			"/>
			<polygon fill="none" stroke="#E63777" stroke-miterlimit="10" stroke-opacity="0.3" points="1216.172,138.326 1193.301,121.201 
				1167.841,114.847 1176.024,143.592 1155.301,161.777 1139.093,137.254 1176.024,143.592 			"/>
			<polygon fill="none" stroke="#E63777" stroke-miterlimit="10" stroke-opacity="0.3" points="1155.301,161.777 1216.172,138.326 
				1209.154,158.007 1225.93,171.683 1209.154,158.007 			"/>
			
				<line fill="none" stroke="#E63777" stroke-miterlimit="10" stroke-opacity="0.3" x1="1268.854" y1="197.911" x2="1261.007" y2="149.578"/>
			<polygon fill="none" stroke="#E63777" stroke-miterlimit="10" stroke-opacity="0.3" points="1145.387,177.2 1147.743,217.611 
				1136.225,191.584 1127.952,183.586 1115.064,214.179 1111.768,178.529 1127.952,183.586 			"/>
			<polygon fill="none" stroke="#E63777" stroke-miterlimit="10" stroke-opacity="0.3" points="1130.736,238.233 1136.225,191.584 
				1115.064,214.179 1124.034,220.188 			"/>
		</g>
	</g>
	<g>
		<g id="Effra_Heavy_2_">
			<path fill="#E63777" stroke="#FFFFFF" stroke-miterlimit="10" d="M1102.544,50.729h41.566c7.156,0,13.088,0.793,17.792,2.378
				c4.702,1.586,8.435,3.631,11.197,6.135c2.762,2.507,4.677,5.368,5.751,8.59c1.074,3.221,1.611,6.418,1.611,9.586
				c0,2.967-0.486,5.625-1.458,7.977c-0.973,2.353-2.2,4.423-3.681,6.211c-1.484,1.79-3.094,3.298-4.832,4.525
				c-1.74,1.227-3.373,2.098-4.908,2.606c1.941,0.614,4.088,1.535,6.441,2.762c2.352,1.228,4.55,2.864,6.596,4.908
				c2.046,2.047,3.783,4.501,5.215,7.362c1.432,2.864,2.148,6.188,2.148,9.971c0,10.227-3.555,17.662-10.659,22.314
				c-7.108,4.654-17.513,6.979-31.213,6.979h-41.567V50.729z M1140.89,91.835c3.167,0,6.006-0.791,8.512-2.377
				c2.506-1.585,3.758-4.32,3.758-8.207c0-2.147-0.359-3.961-1.074-5.445c-0.716-1.48-1.662-2.632-2.837-3.451
				c-1.177-0.817-2.507-1.404-3.987-1.764c-1.484-0.357-2.941-0.537-4.371-0.537h-11.811v21.78L1140.89,91.835L1140.89,91.835z
				 M1142.884,133.708c1.533,0,3.221-0.127,5.061-0.385c1.84-0.254,3.527-0.789,5.062-1.609c1.533-0.818,2.811-2.045,3.834-3.682
				c1.021-1.633,1.533-3.836,1.533-6.596c0-2.555-0.513-4.626-1.533-6.211c-1.023-1.584-2.303-2.785-3.834-3.605
				c-1.535-0.816-3.223-1.38-5.062-1.688c-1.84-0.307-3.527-0.46-5.061-0.46h-13.805v24.233h13.805V133.708z"/>
			<path fill="#E63777" stroke="#FFFFFF" stroke-miterlimit="10" d="M1266.048,147.819c-1.227,0.715-2.788,1.508-4.679,2.377
				c-1.894,0.871-4.116,1.686-6.672,2.455c-2.558,0.768-5.422,1.43-8.59,1.992c-3.17,0.561-6.545,0.844-10.124,0.844
				c-13.293,0-23.467-3.346-30.521-10.045c-7.057-6.697-10.584-16.08-10.584-28.145c0-4.806,0.766-9.534,2.301-14.188
				c1.533-4.651,3.857-8.793,6.978-12.423c3.118-3.629,7.056-6.57,11.811-8.819c4.755-2.248,10.3-3.375,16.643-3.375
				c4.907,0,9.532,0.843,13.88,2.53c4.346,1.688,8.129,4.244,11.351,7.669c3.22,3.428,5.752,7.723,7.592,12.884
				c1.84,5.165,2.761,11.224,2.761,18.176v4.908h-48.775c0.1,1.227,0.434,2.506,0.997,3.836c0.562,1.328,1.534,2.582,2.914,3.758
				s3.222,2.123,5.522,2.838c2.3,0.715,5.139,1.072,8.512,1.072c4.395,0,8.41-0.562,12.041-1.689
				c3.628-1.123,6.467-2.301,8.513-3.525L1266.048,147.819z M1245.187,109.32c0-1.228-0.256-2.505-0.767-3.835
				c-0.514-1.327-1.304-2.555-2.378-3.681c-1.074-1.124-2.404-2.071-3.988-2.837c-1.586-0.768-3.503-1.15-5.752-1.15
				c-2.146,0-4.041,0.383-5.674,1.15c-1.637,0.766-2.967,1.713-3.988,2.837c-1.023,1.126-1.791,2.354-2.301,3.681
				c-0.514,1.33-0.767,2.606-0.767,3.835H1245.187z"/>
			<path fill="#E63777" stroke="#FFFFFF" stroke-miterlimit="10" d="M1279.696,50.729h25.922v102.304h-25.922V50.729z"/>
			<path fill="#E63777" stroke="#FFFFFF" stroke-miterlimit="10" d="M1320.649,50.729h25.921v102.304h-25.921V50.729z"/>
			<path fill="#E63777" stroke="#FFFFFF" stroke-miterlimit="10" d="M1429.701,147.819c-1.227,0.715-2.786,1.508-4.678,2.377
				c-1.894,0.871-4.118,1.686-6.671,2.455c-2.558,0.768-5.421,1.43-8.59,1.992c-3.17,0.561-6.544,0.844-10.121,0.844
				c-13.295,0-23.469-3.346-30.524-10.045c-7.056-6.697-10.583-16.08-10.583-28.145c0-4.806,0.767-9.534,2.301-14.188
				c1.534-4.651,3.857-8.793,6.978-12.423c3.119-3.629,7.056-6.57,11.812-8.819c4.754-2.248,10.299-3.375,16.642-3.375
				c4.908,0,9.533,0.843,13.881,2.53c4.344,1.688,8.128,4.244,11.351,7.669c3.219,3.428,5.751,7.723,7.591,12.884
				c1.84,5.165,2.762,11.224,2.762,18.176v4.908h-48.776c0.1,1.227,0.435,2.506,0.998,3.836c0.561,1.328,1.533,2.582,2.914,3.758
				s3.222,2.123,5.521,2.838c2.301,0.715,5.138,1.072,8.513,1.072c4.396,0,8.41-0.562,12.04-1.689
				c3.629-1.123,6.468-2.301,8.514-3.525L1429.701,147.819z M1408.842,109.32c0-1.228-0.256-2.505-0.767-3.835
				c-0.514-1.327-1.304-2.555-2.377-3.681c-1.073-1.124-2.404-2.071-3.988-2.837c-1.587-0.768-3.504-1.15-5.752-1.15
				c-2.146,0-4.041,0.383-5.675,1.15c-1.636,0.766-2.968,1.713-3.987,2.837c-1.024,1.126-1.791,2.354-2.302,3.681
				c-0.514,1.33-0.766,2.606-0.766,3.835H1408.842z"/>
			<path fill="#E63777" stroke="#FFFFFF" stroke-miterlimit="10" d="M1461.909,50.729h29.602l23.007,71.169l21.475-71.169h28.987
				l-37.271,102.304h-28.683L1461.909,50.729z"/>
			<path fill="#E63777" stroke="#FFFFFF" stroke-miterlimit="10" d="M1566.054,80.945h25.922v39.417c0,3.582,0.741,6.443,2.223,8.59
				c1.481,2.148,4.115,3.221,7.899,3.221c2.044,0,3.758-0.355,5.139-1.072c1.381-0.715,2.504-1.688,3.374-2.914
				c0.868-1.227,1.481-2.582,1.839-4.064s0.537-2.992,0.537-4.525V80.945h25.923v72.087h-25.001l-0.922-7.361
				c-1.432,1.74-3.066,3.223-4.908,4.447c-1.84,1.229-3.733,2.201-5.675,2.914c-1.944,0.715-3.81,1.227-5.598,1.537
				c-1.791,0.305-3.352,0.457-4.679,0.457c-3.785,0-7.262-0.537-10.43-1.609c-3.17-1.072-5.905-2.762-8.206-5.062
				c-2.302-2.301-4.117-5.238-5.444-8.818c-1.331-3.578-1.995-7.924-1.995-13.037V80.945H1566.054z"/>
			<path fill="#E63777" stroke="#FFFFFF" stroke-miterlimit="10" d="M1722.041,147.819c-1.227,0.715-2.785,1.508-4.678,2.377
				c-1.893,0.871-4.117,1.686-6.671,2.455c-2.558,0.768-5.422,1.43-8.59,1.992c-3.171,0.561-6.545,0.844-10.123,0.844
				c-13.293,0-23.469-3.346-30.523-10.045c-7.056-6.697-10.583-16.08-10.583-28.145c0-4.806,0.767-9.534,2.301-14.188
				c1.534-4.651,3.858-8.793,6.979-12.423c3.118-3.629,7.056-6.57,11.811-8.819c4.755-2.248,10.3-3.375,16.641-3.375
				c4.909,0,9.534,0.843,13.882,2.53c4.345,1.688,8.129,4.244,11.35,7.669c3.221,3.428,5.752,7.723,7.592,12.884
				c1.84,5.165,2.762,11.224,2.762,18.176v4.908h-48.775c0.1,1.227,0.434,2.506,0.996,3.836c0.562,1.328,1.534,2.582,2.914,3.758
				c1.381,1.176,3.222,2.123,5.522,2.838c2.3,0.715,5.137,1.072,8.513,1.072c4.395,0,8.41-0.562,12.041-1.689
				c3.628-1.123,6.466-2.301,8.513-3.525L1722.041,147.819z M1701.181,109.32c0-1.228-0.257-2.505-0.766-3.835
				c-0.513-1.327-1.304-2.555-2.378-3.681c-1.074-1.124-2.403-2.071-3.988-2.837c-1.587-0.768-3.505-1.15-5.753-1.15
				c-2.146,0-4.041,0.383-5.675,1.15c-1.637,0.766-2.967,1.713-3.987,2.837c-1.024,1.126-1.791,2.354-2.301,3.681
				c-0.513,1.33-0.768,2.606-0.768,3.835H1701.181z"/>
		</g>
		<g id="wine-icon_2_">
			<g>
				<path fill="#E63777" stroke="#FFFFFF" stroke-miterlimit="10" d="M1694.913,226.823h12.549l15.676-27.123l-7.173-12.213h-49.106
					l-6.417,12.213l15.672,27.123h11.384v29.785l-21.077,7.684h50.423l-21.929-7.83L1694.913,226.823L1694.913,226.823z
					 M1666.437,200.21l18.668-2.117l14.947,3.016l17.272-0.734l-12.161,22.65h-26.334L1666.437,200.21z"/>
			</g>
		</g>
		<path id="beer-icon_2_" fill="#E63777" stroke="#FFFFFF" stroke-miterlimit="10" d="M1570.453,186.827l2.56,32.965h8.238
			l2.373,44.5h38.159l2.376-44.5h8.238l2.561-32.965H1570.453z M1628.634,215.853l-7.924,0.32l-2.324,44.023l-31.936-0.078
			l-2.48-44.105l-7.685-0.078l-1.202-16.971l14.658-1.105l19.844,4.549l20.41-4.324L1628.634,215.853z"/>
		<g id="speaker-icon_2_">
			<g>
				<path fill="#E63777" stroke="#FFFFFF" stroke-miterlimit="10" d="M1540.257,186.446l-23.184,22.553h-13.837v31.564h13.801
					l22.254,23.727l7.333-40.723L1540.257,186.446z M1535.789,254.698l-17.18-17.57h-12.407v-24.723h12.436l17.898-17.98
					l-9.604,29.051L1535.789,254.698z"/>
			</g>
		</g>
	</g>
</g>
<g>
	<rect x="1918" y="-310.5" fill="#DCD142" width="960" height="960"/>
	<g>
		<g id="Effra_Heavy_1_">
			<path fill="#FFFFFF" d="M2073.846,50.729h41.566c7.156,0,13.088,0.793,17.793,2.378c4.701,1.585,8.434,3.631,11.197,6.135
				c2.762,2.506,4.676,5.368,5.75,8.589c1.074,3.221,1.611,6.418,1.611,9.586c0,2.967-0.486,5.625-1.457,7.977
				c-0.973,2.353-2.201,4.423-3.682,6.21c-1.484,1.791-3.094,3.298-4.832,4.526c-1.74,1.227-3.373,2.097-4.908,2.606
				c1.941,0.614,4.088,1.535,6.441,2.761c2.352,1.228,4.551,2.864,6.596,4.908c2.047,2.047,3.783,4.501,5.215,7.362
				c1.432,2.864,2.148,6.188,2.148,9.971c0,10.227-3.555,17.662-10.658,22.314c-7.109,4.654-17.514,6.979-31.213,6.979h-41.568
				V50.729z M2112.191,91.835c3.168,0,6.006-0.791,8.512-2.377c2.506-1.585,3.758-4.32,3.758-8.207c0-2.147-0.359-3.961-1.074-5.445
				c-0.715-1.48-1.662-2.631-2.836-3.451c-1.178-0.817-2.508-1.404-3.988-1.764c-1.484-0.357-2.941-0.537-4.371-0.537h-11.811
				v21.781L2112.191,91.835L2112.191,91.835z M2114.186,133.708c1.533,0,3.221-0.127,5.061-0.385
				c1.84-0.254,3.527-0.789,5.062-1.609c1.533-0.818,2.811-2.045,3.834-3.682c1.021-1.633,1.533-3.836,1.533-6.596
				c0-2.555-0.512-4.626-1.533-6.211c-1.023-1.584-2.303-2.785-3.834-3.605c-1.535-0.816-3.223-1.38-5.062-1.688
				c-1.84-0.307-3.527-0.46-5.061-0.46h-13.805v24.234h13.805V133.708z"/>
			<path fill="#FFFFFF" d="M2237.35,147.82c-1.227,0.715-2.787,1.508-4.678,2.377c-1.895,0.871-4.117,1.686-6.672,2.455
				c-2.559,0.768-5.422,1.43-8.59,1.992c-3.17,0.561-6.545,0.844-10.125,0.844c-13.293,0-23.467-3.346-30.521-10.045
				c-7.057-6.697-10.584-16.08-10.584-28.145c0-4.806,0.766-9.534,2.301-14.188c1.533-4.651,3.857-8.793,6.979-12.423
				c3.117-3.629,7.055-6.57,11.811-8.819c4.754-2.248,10.299-3.375,16.643-3.375c4.906,0,9.531,0.843,13.879,2.531
				c4.346,1.688,8.129,4.244,11.352,7.669c3.219,3.428,5.752,7.723,7.592,12.884c1.84,5.165,2.76,11.223,2.76,18.176v4.908h-48.775
				c0.1,1.227,0.434,2.506,0.998,3.836c0.561,1.328,1.533,2.582,2.914,3.758c1.379,1.176,3.221,2.123,5.521,2.838
				s5.139,1.072,8.512,1.072c4.395,0,8.41-0.562,12.041-1.689c3.629-1.123,6.467-2.301,8.514-3.525L2237.35,147.82z
				 M2216.488,109.32c0-1.228-0.256-2.505-0.766-3.835c-0.514-1.327-1.305-2.555-2.379-3.68c-1.074-1.124-2.404-2.071-3.988-2.837
				c-1.586-0.768-3.502-1.15-5.752-1.15c-2.145,0-4.041,0.382-5.674,1.15c-1.637,0.766-2.967,1.713-3.988,2.837
				c-1.023,1.125-1.791,2.353-2.301,3.68c-0.514,1.33-0.766,2.606-0.766,3.835H2216.488z"/>
			<path fill="#FFFFFF" d="M2250.998,50.729h25.922v102.304h-25.922V50.729z"/>
			<path fill="#FFFFFF" d="M2291.951,50.729h25.922v102.304h-25.922V50.729z"/>
			<path fill="#FFFFFF" d="M2401.004,147.82c-1.227,0.715-2.787,1.508-4.678,2.377c-1.895,0.871-4.119,1.686-6.672,2.455
				c-2.557,0.768-5.42,1.43-8.59,1.992c-3.17,0.561-6.543,0.844-10.121,0.844c-13.295,0-23.469-3.346-30.523-10.045
				c-7.057-6.697-10.584-16.08-10.584-28.145c0-4.806,0.768-9.534,2.301-14.188c1.535-4.651,3.857-8.793,6.979-12.423
				c3.119-3.629,7.055-6.57,11.811-8.819c4.754-2.248,10.299-3.375,16.643-3.375c4.908,0,9.533,0.843,13.881,2.531
				c4.344,1.688,8.127,4.244,11.35,7.669c3.219,3.428,5.752,7.723,7.592,12.884c1.84,5.165,2.762,11.223,2.762,18.176v4.908h-48.777
				c0.1,1.227,0.436,2.506,0.998,3.836c0.561,1.328,1.533,2.582,2.914,3.758s3.223,2.123,5.521,2.838
				c2.301,0.715,5.139,1.072,8.514,1.072c4.395,0,8.41-0.562,12.039-1.689c3.629-1.123,6.469-2.301,8.514-3.525L2401.004,147.82z
				 M2380.145,109.32c0-1.228-0.256-2.505-0.768-3.835c-0.514-1.327-1.303-2.555-2.377-3.68c-1.072-1.124-2.404-2.071-3.988-2.837
				c-1.586-0.768-3.504-1.15-5.752-1.15c-2.146,0-4.041,0.382-5.674,1.15c-1.637,0.766-2.969,1.713-3.988,2.837
				c-1.023,1.125-1.791,2.353-2.301,3.68c-0.514,1.33-0.766,2.606-0.766,3.835H2380.145z"/>
			<path fill="#FFFFFF" d="M2433.211,50.729h29.602l23.008,71.169l21.475-71.169h28.986l-37.27,102.304h-28.684L2433.211,50.729z"/>
			<path fill="#FFFFFF" d="M2537.355,80.945h25.922v39.417c0,3.582,0.742,6.443,2.223,8.59c1.482,2.148,4.115,3.221,7.9,3.221
				c2.043,0,3.758-0.355,5.139-1.072c1.381-0.715,2.504-1.688,3.373-2.914s1.482-2.582,1.84-4.064s0.537-2.992,0.537-4.525V80.945
				h25.922v72.087h-25l-0.922-7.361c-1.432,1.74-3.066,3.223-4.908,4.447c-1.84,1.229-3.734,2.201-5.676,2.914
				c-1.943,0.715-3.809,1.227-5.598,1.537c-1.791,0.305-3.352,0.457-4.678,0.457c-3.785,0-7.262-0.537-10.43-1.609
				c-3.17-1.072-5.906-2.762-8.207-5.062s-4.117-5.238-5.443-8.818c-1.332-3.578-1.996-7.924-1.996-13.037V80.945H2537.355z"/>
			<path fill="#FFFFFF" d="M2693.344,147.82c-1.227,0.715-2.785,1.508-4.678,2.377c-1.893,0.871-4.117,1.686-6.672,2.455
				c-2.557,0.768-5.422,1.43-8.59,1.992c-3.17,0.561-6.545,0.844-10.123,0.844c-13.293,0-23.469-3.346-30.523-10.045
				c-7.055-6.697-10.582-16.08-10.582-28.145c0-4.806,0.766-9.534,2.301-14.188c1.533-4.651,3.857-8.793,6.979-12.423
				c3.117-3.629,7.055-6.57,11.811-8.819c4.754-2.248,10.299-3.375,16.641-3.375c4.908,0,9.533,0.843,13.881,2.531
				c4.346,1.688,8.129,4.244,11.35,7.669c3.221,3.428,5.752,7.723,7.592,12.884c1.84,5.165,2.762,11.223,2.762,18.176v4.908h-48.775
				c0.1,1.227,0.434,2.506,0.996,3.836c0.562,1.328,1.535,2.582,2.914,3.758c1.381,1.176,3.223,2.123,5.523,2.838
				c2.299,0.715,5.137,1.072,8.512,1.072c4.395,0,8.41-0.562,12.041-1.689c3.629-1.123,6.467-2.301,8.514-3.525L2693.344,147.82z
				 M2672.482,109.32c0-1.228-0.256-2.505-0.766-3.835c-0.512-1.327-1.303-2.555-2.377-3.68c-1.074-1.124-2.404-2.071-3.988-2.837
				c-1.588-0.768-3.506-1.15-5.754-1.15c-2.146,0-4.041,0.382-5.674,1.15c-1.637,0.766-2.967,1.713-3.988,2.837
				c-1.023,1.125-1.791,2.353-2.301,3.68c-0.512,1.33-0.768,2.606-0.768,3.835H2672.482z"/>
		</g>
		<g id="wine-icon_1_">
			<g>
				<path fill="#FFFFFF" d="M2666.215,226.823h12.549l15.676-27.123l-7.172-12.213h-49.107l-6.416,12.213l15.672,27.123h11.383
					v29.785l-21.076,7.684h50.422l-21.928-7.83v-29.639H2666.215z M2637.738,200.21l18.668-2.117l14.947,3.016l17.273-0.734
					l-12.162,22.65h-26.334L2637.738,200.21z"/>
			</g>
		</g>
		<path id="beer-icon_1_" fill="#FFFFFF" d="M2541.756,186.827l2.559,32.965h8.238l2.373,44.5h38.16l2.375-44.5h8.238l2.561-32.965
			H2541.756z M2599.936,215.853l-7.924,0.32l-2.324,44.023l-31.936-0.078l-2.48-44.105l-7.684-0.078l-1.203-16.971l14.658-1.105
			l19.844,4.549l20.41-4.324L2599.936,215.853z"/>
		<g id="speaker-icon_1_">
			<g>
				<path fill="#FFFFFF" d="M2511.559,186.446l-23.184,22.553h-13.836v31.564h13.801l22.254,23.727l7.332-40.723L2511.559,186.446z
					 M2507.092,254.698l-17.18-17.57h-12.408v-24.723h12.436l17.898-17.98l-9.604,29.051L2507.092,254.698z"/>
			</g>
		</g>
	</g>
</g>
<g>
	<rect y="-310.5" fill="#E63777" width="960" height="960"/>
	<g>
		<g id="Effra_Heavy">
			<path fill="#FFFFFF" d="M165.148,50.729h41.566c7.156,0,13.087,0.793,17.792,2.378c4.702,1.585,8.435,3.631,11.197,6.135
				c2.762,2.506,4.677,5.368,5.751,8.589c1.074,3.221,1.611,6.418,1.611,9.586c0,2.967-0.487,5.625-1.458,7.977
				c-0.973,2.353-2.2,4.423-3.68,6.21c-1.484,1.791-3.094,3.298-4.832,4.526c-1.74,1.227-3.374,2.097-4.909,2.606
				c1.941,0.614,4.088,1.535,6.442,2.761c2.352,1.228,4.549,2.864,6.595,4.908c2.046,2.047,3.784,4.501,5.215,7.362
				c1.431,2.864,2.148,6.188,2.148,9.971c0,10.227-3.554,17.663-10.659,22.315c-7.108,4.654-17.513,6.979-31.213,6.979h-41.567
				V50.729z M203.494,91.835c3.167,0,6.006-0.791,8.513-2.377c2.505-1.585,3.757-4.32,3.757-8.207c0-2.147-0.359-3.961-1.074-5.445
				c-0.716-1.48-1.663-2.631-2.837-3.451c-1.176-0.817-2.507-1.404-3.987-1.764c-1.484-0.357-2.942-0.537-4.372-0.537h-11.811
				v21.781L203.494,91.835L203.494,91.835z M205.488,133.708c1.533,0,3.221-0.127,5.061-0.385c1.84-0.253,3.528-0.789,5.062-1.609
				c1.533-0.817,2.811-2.044,3.833-3.682c1.021-1.633,1.534-3.835,1.534-6.595c0-2.555-0.513-4.627-1.534-6.212
				c-1.023-1.584-2.302-2.785-3.833-3.605c-1.535-0.816-3.222-1.38-5.062-1.688c-1.84-0.307-3.528-0.46-5.061-0.46h-13.805v24.234
				L205.488,133.708L205.488,133.708z"/>
			<path fill="#FFFFFF" d="M328.652,147.819c-1.227,0.716-2.788,1.509-4.679,2.378c-1.894,0.87-4.116,1.686-6.672,2.454
				c-2.558,0.768-5.422,1.43-8.59,1.993c-3.17,0.56-6.545,0.843-10.124,0.843c-13.294,0-23.467-3.346-30.522-10.045
				c-7.056-6.696-10.583-16.079-10.583-28.145c0-4.806,0.766-9.534,2.301-14.188c1.533-4.651,3.857-8.793,6.978-12.423
				c3.119-3.629,7.056-6.57,11.811-8.819c4.755-2.248,10.3-3.375,16.643-3.375c4.907,0,9.533,0.843,13.88,2.531
				c4.345,1.688,8.128,4.244,11.35,7.669c3.22,3.428,5.752,7.723,7.592,12.884c1.84,5.165,2.761,11.223,2.761,18.176v4.908h-48.775
				c0.1,1.227,0.434,2.506,0.997,3.835c0.561,1.329,1.534,2.583,2.914,3.759s3.222,2.122,5.522,2.837
				c2.3,0.716,5.138,1.072,8.512,1.072c4.395,0,8.41-0.562,12.041-1.688c3.628-1.123,6.467-2.301,8.513-3.526L328.652,147.819z
				 M307.791,109.32c0-1.228-0.256-2.505-0.767-3.835c-0.514-1.327-1.303-2.555-2.377-3.68c-1.075-1.124-2.404-2.071-3.989-2.837
				c-1.586-0.768-3.503-1.15-5.752-1.15c-2.146,0-4.041,0.382-5.674,1.15c-1.637,0.766-2.967,1.713-3.988,2.837
				c-1.024,1.125-1.791,2.353-2.301,3.68c-0.513,1.33-0.766,2.606-0.766,3.835H307.791z"/>
			<path fill="#FFFFFF" d="M342.301,50.729h25.922v102.305h-25.922V50.729z"/>
			<path fill="#FFFFFF" d="M383.254,50.729h25.921v102.305h-25.921V50.729z"/>
			<path fill="#FFFFFF" d="M492.306,147.819c-1.227,0.716-2.786,1.509-4.678,2.378c-1.894,0.87-4.118,1.686-6.671,2.454
				c-2.558,0.768-5.421,1.43-8.59,1.993c-3.17,0.56-6.544,0.843-10.121,0.843c-13.295,0-23.469-3.346-30.524-10.045
				c-7.056-6.696-10.583-16.079-10.583-28.145c0-4.806,0.767-9.534,2.301-14.188c1.534-4.651,3.857-8.793,6.978-12.423
				c3.119-3.629,7.056-6.57,11.812-8.819c4.754-2.248,10.299-3.375,16.642-3.375c4.908,0,9.533,0.843,13.881,2.531
				c4.344,1.688,8.128,4.244,11.351,7.669c3.219,3.428,5.751,7.723,7.591,12.884c1.84,5.165,2.762,11.223,2.762,18.176v4.908
				h-48.776c0.1,1.227,0.435,2.506,0.998,3.835c0.561,1.329,1.533,2.583,2.914,3.759s3.222,2.122,5.521,2.837
				c2.301,0.716,5.138,1.072,8.513,1.072c4.396,0,8.41-0.562,12.04-1.688c3.629-1.123,6.468-2.301,8.514-3.526L492.306,147.819z
				 M471.446,109.32c0-1.228-0.256-2.505-0.767-3.835c-0.514-1.327-1.304-2.555-2.377-3.68c-1.073-1.124-2.404-2.071-3.988-2.837
				c-1.587-0.768-3.504-1.15-5.752-1.15c-2.146,0-4.041,0.382-5.675,1.15c-1.636,0.766-2.968,1.713-3.987,2.837
				c-1.024,1.125-1.791,2.353-2.302,3.68c-0.514,1.33-0.766,2.606-0.766,3.835H471.446z"/>
			<path fill="#FFFFFF" d="M524.514,50.729h29.602l23.007,71.17l21.475-71.17h28.987l-37.271,102.305h-28.683L524.514,50.729z"/>
			<path fill="#FFFFFF" d="M628.658,80.945h25.922v39.418c0,3.582,0.741,6.442,2.223,8.59s4.115,3.22,7.899,3.22
				c2.044,0,3.758-0.355,5.139-1.072c1.381-0.715,2.504-1.688,3.374-2.913c0.868-1.228,1.481-2.583,1.839-4.065
				c0.357-1.481,0.537-2.991,0.537-4.524V80.945h25.923v72.088h-25.001l-0.922-7.361c-1.432,1.74-3.066,3.222-4.908,4.447
				c-1.84,1.229-3.733,2.2-5.675,2.914c-1.944,0.715-3.81,1.227-5.598,1.536c-1.791,0.306-3.352,0.458-4.679,0.458
				c-3.785,0-7.262-0.538-10.43-1.609c-3.17-1.073-5.905-2.762-8.206-5.062c-2.302-2.301-4.117-5.238-5.444-8.819
				c-1.331-3.577-1.995-7.923-1.995-13.037V80.945H628.658z"/>
			<path fill="#FFFFFF" d="M784.646,147.819c-1.227,0.716-2.785,1.509-4.678,2.378c-1.893,0.87-4.117,1.686-6.671,2.454
				c-2.558,0.768-5.422,1.43-8.59,1.993c-3.171,0.56-6.545,0.843-10.123,0.843c-13.293,0-23.469-3.346-30.523-10.045
				c-7.056-6.696-10.583-16.079-10.583-28.145c0-4.806,0.767-9.534,2.301-14.188c1.534-4.651,3.858-8.793,6.979-12.423
				c3.118-3.629,7.056-6.57,11.811-8.819c4.755-2.248,10.3-3.375,16.641-3.375c4.909,0,9.534,0.843,13.882,2.531
				c4.345,1.688,8.129,4.244,11.35,7.669c3.221,3.428,5.752,7.723,7.592,12.884c1.84,5.165,2.762,11.223,2.762,18.176v4.908h-48.775
				c0.1,1.227,0.434,2.506,0.996,3.835c0.562,1.329,1.534,2.583,2.914,3.759c1.381,1.176,3.222,2.122,5.522,2.837
				c2.3,0.716,5.137,1.072,8.513,1.072c4.395,0,8.41-0.562,12.041-1.688c3.628-1.123,6.466-2.301,8.513-3.526L784.646,147.819z
				 M763.785,109.32c0-1.228-0.257-2.505-0.766-3.835c-0.513-1.327-1.304-2.555-2.378-3.68c-1.074-1.124-2.403-2.071-3.988-2.837
				c-1.587-0.768-3.505-1.15-5.753-1.15c-2.146,0-4.041,0.382-5.675,1.15c-1.637,0.766-2.967,1.713-3.987,2.837
				c-1.024,1.125-1.791,2.353-2.301,3.68c-0.513,1.33-0.768,2.606-0.768,3.835H763.785z"/>
		</g>
		<g id="wine-icon">
			<g>
				<path fill="#FFFFFF" d="M757.518,226.824h12.549l15.676-27.123l-7.173-12.213h-49.106l-6.417,12.213l15.672,27.123h11.384
					v29.785l-21.077,7.684h50.423l-21.929-7.83L757.518,226.824L757.518,226.824z M729.041,200.211l18.668-2.117l14.947,3.016
					l17.272-0.734l-12.161,22.65h-26.334L729.041,200.211z"/>
			</g>
		</g>
		<path id="beer-icon" fill="#FFFFFF" d="M633.058,186.828l2.56,32.965h8.238l2.373,44.5h38.159l2.376-44.5h8.238l2.561-32.965
			H633.058z M691.238,215.854l-7.924,0.32l-2.324,44.023l-31.936-0.078l-2.48-44.105l-7.685-0.078l-1.202-16.971l14.658-1.105
			l19.844,4.549l20.41-4.324L691.238,215.854z"/>
		<g id="speaker-icon">
			<g>
				<path fill="#FFFFFF" d="M602.861,186.447L579.678,209h-13.837v31.564h13.801l22.254,23.727l7.333-40.723L602.861,186.447z
					 M598.394,254.699l-17.18-17.57h-12.407v-24.723h12.436l17.898-17.98l-9.604,29.051L598.394,254.699z"/>
			</g>
		</g>
	</g>
</g>
</svg>
