<?xml version="1.0" encoding="utf-8"?>
<!-- Generator: Adobe Illustrator 16.0.0, SVG Export Plug-In . SVG Version: 6.00 Build 0)  -->
<!DOCTYPE svg PUBLIC "-//W3C//DTD SVG 1.1//EN" "http://www.w3.org/Graphics/SVG/1.1/DTD/svg11.dtd">
<svg version="1.1" xmlns="http://www.w3.org/2000/svg" xmlns:xlink="http://www.w3.org/1999/xlink" x="0px" y="0px" width="1200px"
	 height="146.59px" viewBox="0 0 1200 146.59" enable-background="new 0 0 1200 146.59" xml:space="preserve">
<g id="colors">
	<g>
		<path fill="#E63976" d="M290.944,73.198c0,37.944-30.76,68.702-68.704,68.702c-37.946,0-68.706-30.758-68.706-68.702
			c0-37.946,30.759-68.706,68.706-68.706C260.184,4.492,290.944,35.252,290.944,73.198z"/>
		<path fill="#FEFCE7" d="M1048.376,73.198c0,37.944-30.762,68.702-68.705,68.702s-68.702-30.758-68.702-68.702
			c0-37.946,30.759-68.706,68.702-68.706S1048.376,35.252,1048.376,73.198z"/>
		<path fill="#1B0E0E" d="M795.9,73.198c0,37.944-30.762,68.702-68.704,68.702c-37.946,0-68.706-30.758-68.706-68.702
			c0-37.946,30.76-68.706,68.706-68.706C765.139,4.492,795.9,35.252,795.9,73.198z"/>
		<path fill="#DCB43A" d="M543.421,73.198c0,37.944-30.76,68.702-68.703,68.702c-37.946,0-68.705-30.758-68.705-68.702
			c0-37.946,30.759-68.706,68.705-68.706C512.662,4.492,543.421,35.252,543.421,73.198z"/>
	</g>
</g>
<g id="guides">
</g>
</svg>
