<?xml version="1.0" encoding="utf-8"?>
<!-- Generator: Adobe Illustrator 16.0.0, SVG Export Plug-In . SVG Version: 6.00 Build 0)  -->
<!DOCTYPE svg PUBLIC "-//W3C//DTD SVG 1.1//EN" "http://www.w3.org/Graphics/SVG/1.1/DTD/svg11.dtd">
<svg version="1.1" id="logo" xmlns="http://www.w3.org/2000/svg" xmlns:xlink="http://www.w3.org/1999/xlink" x="0px" y="0px"
	 width="800px" height="643.095px" viewBox="0 0 800 643.095" enable-background="new 0 0 800 643.095" xml:space="preserve">
<rect x="-2.5" y="-4.5" fill="#C26558" width="804.023" height="649.82"/>
<g id="head_2_">
	<polygon id="beard_2_" fill="#E7E2D8" points="286.487,355.037 302.673,433.912 346.126,479.697 387.407,498.221 432.038,486.517 
		475.276,438.206 500.657,361.145 447.478,426.913 423.451,455.441 401.168,454.525 394.898,436.976 386.051,454.444 
		366.95,454.342 332.695,425.504 	"/>
	<polygon id="mustache_2_" fill="#E7E2D8" points="342.495,413.619 366.501,389.08 410.262,390.114 438.814,410.946 
		391.934,395.588 	"/>
	<polygon id="hear_2_" fill="#E7E2D8" points="279.631,421.183 266.1,412.421 235.027,319.365 236.87,221.255 288.677,145.115 
		365.977,120.078 426.028,120.397 505.405,158.223 558.344,232.521 565.899,308.164 522.367,412.198 507.129,433.595 
		488.218,433.802 479.463,423.974 503.351,317.51 457.793,268.812 400.681,246.799 314.661,259.877 278.511,322.556 292.97,406.197 
			"/>
</g>
</svg>
