<?xml version="1.0" encoding="utf-8"?>
<!-- Generator: Adobe Illustrator 16.0.0, SVG Export Plug-In . SVG Version: 6.00 Build 0)  -->
<!DOCTYPE svg PUBLIC "-//W3C//DTD SVG 1.1//EN" "http://www.w3.org/Graphics/SVG/1.1/DTD/svg11.dtd">
<svg version="1.1" id="Layer_1" xmlns="http://www.w3.org/2000/svg" xmlns:xlink="http://www.w3.org/1999/xlink" x="0px" y="0px"
	 width="1200px" height="146.59px" viewBox="0 0 1200 146.59" enable-background="new 0 0 1200 146.59" xml:space="preserve">
<g id="colors">
	<g>
		<path fill="#1A7339" d="M416.227,73.198c0,37.944-30.76,68.702-68.704,68.702c-37.946,0-68.706-30.758-68.706-68.702
			c0-37.946,30.759-68.706,68.706-68.706C385.467,4.492,416.227,35.252,416.227,73.198z"/>
		<path fill="#4D4D4D" d="M921.184,73.198c0,37.944-30.764,68.702-68.705,68.702c-37.945,0-68.705-30.758-68.705-68.702
			c0-37.946,30.76-68.706,68.705-68.706C890.422,4.492,921.184,35.252,921.184,73.198z"/>
		<path fill="#EDF5E7" d="M668.703,73.198c0,37.944-30.76,68.702-68.703,68.702c-37.945,0-68.705-30.758-68.705-68.702
			c0-37.946,30.76-68.706,68.705-68.706C637.945,4.492,668.703,35.252,668.703,73.198z"/>
	</g>
</g>
<g id="guides">
</g>
</svg>
