<?xml version="1.0" encoding="utf-8"?>
<!-- Generator: Adobe Illustrator 16.0.0, SVG Export Plug-In . SVG Version: 6.00 Build 0)  -->
<!DOCTYPE svg PUBLIC "-//W3C//DTD SVG 1.1//EN" "http://www.w3.org/Graphics/SVG/1.1/DTD/svg11.dtd">
<svg version="1.1" id="About_Plants_logo" xmlns="http://www.w3.org/2000/svg" xmlns:xlink="http://www.w3.org/1999/xlink" x="0px"
	 y="0px" width="960px" height="339px" viewBox="0 0 960 339" style="enable-background:new 0 0 960 339;" xml:space="preserve">
<style type="text/css">
<![CDATA[
	.st0{fill:#497B52;}
	.st1{opacity:0.55;}
	.st2{fill:#92C83E;}
	.st3{fill:url(#SVGID_1_);}
	.st4{fill:url(#SVGID_2_);}
	.st5{fill:url(#SVGID_3_);}
	.st6{fill:url(#SVGID_4_);}
	.st7{fill:url(#SVGID_5_);}
	.st8{fill:url(#SVGID_6_);}
	.st9{fill:url(#SVGID_7_);}
	.st10{opacity:0.5;}
	.st11{fill:#FFFFFF;}
]]>
</style>
<g id="white_x5F_background">
	<g class="st1">
		<path d="M381.28,32.734l-12.878-21.59c-7.196-9.09-21.214-4.952-21.214-4.952c-10.756,1.025-18.633,7.667-25.494,17.174
			l-34.531,56.573c-7.662-4.465-19.76-10.816-28.001-12.72c-9.068-2.092-18.235-2.906-27.525-2.919h-0.028
			c-3.329,0-6.639,0.114-9.945,0.307h-0.026l-63.041,3.757c-16.995,1.016-30.293,15.244-30.156,32.27l1.416,172.581
			c0.073,8.807,3.735,17.148,10.17,23.166c6.438,6.012,15.003,9.104,23.796,8.58l47.757-2.844
			c16.998-1.016,30.295-15.244,30.159-32.27l-0.261-31.768c6.253-0.891,12.403-2.174,18.423-3.996l0.254,30.885
			c0.072,8.805,3.736,17.152,10.17,23.166c6.438,6.012,15.008,9.104,23.8,8.576l78.162-4.658c5.063-0.301,9.723-1.889,13.87-4.258
			c1.142,0.414,2.275,0.871,3.426,1.227c7.911,2.469,16.02,3.564,24.017,3.564h0.127h0.009c1.864,0,3.727-0.057,5.589-0.176
			c0.036,0,0.072-0.006,0.108-0.012c-0.773,2.867-1.168,5.83-1.122,8.842l0.053,3.412c0.133,8.688,3.887,17.098,10.253,23.01
			c6.37,5.904,15.041,9.01,23.71,8.498l31.885-1.898c5.588-0.334,10.685-2.18,15.115-4.965c0.036,0.012,0.07,0.035,0.108,0.053
			c6.318,2.807,12.456,3.648,17.681,3.648c1.013,0,1.988-0.033,2.93-0.09l-0.034,0.008c2.836-0.133,5.771-0.711,8.692-1.48
			c0.58-0.006,1.144,0.109,1.725,0.068l3.752-0.225c5.064-0.307,9.851-1.922,14.146-4.42c4.57,1.98,9.531,3.016,14.62,2.711
			l3.751-0.225c2.999-0.18,5.82-0.902,8.533-1.85c2.848,0.621,5.75,0.998,8.717,0.822l3.751-0.227
			c6.721-0.4,12.808-2.926,17.769-6.812c1.452,0.756,2.941,1.451,4.465,2.033c5.704,2.23,11.635,3.152,17.045,3.141
			c1.025,0,2.029-0.033,3.01-0.088h0.046c3.194-0.182,6.345-0.766,9.387-1.578c0.772,0.006,1.525,0.137,2.301,0.094l3.75-0.225
			c6.495-0.391,12.431-2.73,17.3-6.402c1.123,0.57,2.254,1.121,3.419,1.586c5.771,2.322,11.773,3.262,17.205,3.246
			c1.031,0,2.032-0.027,3.007-0.084h-0.013c6.866-0.375,14.269-2.299,20.818-5.949c0.751-0.412,1.418-0.934,2.143-1.385
			c5.296,2.98,11.338,4.496,17.533,4.133l3.75-0.219c7.887-0.457,14.869-3.801,20.176-8.859c2.794,1.971,5.753,3.562,8.623,4.59
			c5.222,1.914,9.964,2.424,13.969,2.436c0.929,0,1.777-0.031,2.561-0.076l0.186-0.012c3.743-0.244,6.588-0.889,9.022-1.561
			l0.235-0.068c2.176-0.625,4.401-1.414,6.691-2.43c12.557-5.604,20.177-18.699,18.844-32.381l-0.339-3.516
			c-0.29-3.004-1.038-5.885-2.105-8.615c1.332-3.564,2.098-7.396,2.068-11.404l-0.026-3.531c-0.023-2.316-0.32-4.59-0.82-6.807
			c4.93-4.879,9.341-10.453,12.768-16.859c5.969-11.104,8.52-23.264,8.502-34.906v-0.049v-0.004v-0.402v-0.031v-0.232
			c-0.064-11.104-2.393-23.133-8.648-34.303c-1.07-1.932-2.359-3.666-3.607-5.438l2.014-2.225
			c11.309-12.468,11.033-31.611-0.629-43.747l-4.664-4.853l0.043,0.043c-9.693-10.164-22.113-17.209-35.267-20.703l0.056,0.013
			c-8.888-2.405-18.056-3.558-27.23-3.558h-0.091c-2.176,0-4.438,0.063-6.773,0.208c-9.229,0.537-18.408,2.196-27.27,5.29
			c-2.379,0.827-4.726,1.785-7.05,2.831c-2.833-1.19-5.797-1.991-8.874-2.324c-0.343-8.417-3.879-16.35-10.057-22.129
			c-6.438-6.011-15.009-9.106-23.8-8.581l-20.954,1.247c-0.25-7.966-3.456-15.618-9.076-21.383c-2.465-2.53-5.311-4.598-8.396-6.171
			c-1.459-2.919-3.353-5.632-5.675-8.016c-6.475-6.644-15.538-10.167-24.803-9.635l-6.979,0.4
			c-11.277,0.648-20.91,7.161-26.105,16.511l-5.259,0.305c-5.812,0.333-11.195,2.242-15.774,5.264
			c-4.996-2.525-10.625-3.743-16.324-3.411l-6.979,0.407c-5.975,0.349-11.51,2.324-16.166,5.494
			c-0.583-0.24-1.145-0.537-1.731-0.757c-7.047-2.664-14.287-3.723-21.138-3.716c-1.345,0-2.701,0.04-4.062,0.122
			c-7.437,0.414-15.026,2.063-22.13,5.103c-4.405,1.874-8.543,4.322-12.384,7.122c-2.973-1.847-6.102-3.445-9.325-4.647
			c-3.433-1.296-6.914-2.198-10.366-2.796C408.387,20.476,381.28,32.734,381.28,32.734z M410.697,36.037
			c-0.005,0-0.012,0.004-0.018,0.004c-0.012,0-0.023,0-0.035,0L410.697,36.037z M650.044,320.602c0.01-0.004,0.016-0.012,0.024-0.02
			c0.004,0,0.004,0,0.005,0L650.044,320.602z M776.171,314.121c0.016,0,0.03-0.006,0.054-0.006c0.049-0.004,0.109,0,0.164-0.004
			L776.171,314.121z"/>
	</g>
	<g>
		<path class="st11" d="M377.028,28.482L364.15,6.892c-7.196-9.09-21.214-4.952-21.214-4.952
			c-10.756,1.025-18.633,7.667-25.494,17.174l-34.531,56.573c-7.662-4.465-19.76-10.816-28.001-12.72
			c-9.068-2.092-18.235-2.906-27.525-2.919h-0.028c-3.329,0-6.639,0.114-9.945,0.307h-0.026l-63.041,3.757
			c-16.995,1.016-30.293,15.244-30.156,32.27l1.416,172.581c0.073,8.807,3.735,17.148,10.17,23.166
			c6.438,6.012,15.003,9.104,23.796,8.58l47.757-2.844c16.998-1.016,30.295-15.244,30.159-32.27l-0.261-31.768
			c6.253-0.891,12.403-2.174,18.423-3.996l0.254,30.885c0.072,8.805,3.736,17.152,10.17,23.166c6.438,6.012,15.008,9.104,23.8,8.576
			l78.162-4.658c5.063-0.301,9.723-1.889,13.87-4.258c1.142,0.414,2.275,0.871,3.426,1.227c7.911,2.469,16.02,3.564,24.017,3.564
			h0.127h0.009c1.864,0,3.727-0.057,5.589-0.176c0.036,0,0.072-0.006,0.108-0.012c-0.773,2.867-1.168,5.83-1.122,8.842l0.053,3.412
			c0.133,8.688,3.887,17.098,10.253,23.01c6.37,5.904,15.041,9.01,23.71,8.498l31.885-1.898c5.588-0.334,10.685-2.18,15.115-4.965
			c0.036,0.012,0.07,0.035,0.108,0.053c6.318,2.807,12.456,3.648,17.681,3.648c1.013,0,1.988-0.033,2.93-0.09l-0.034,0.008
			c2.836-0.133,5.771-0.711,8.692-1.48c0.58-0.006,1.144,0.109,1.725,0.068l3.752-0.225c5.064-0.307,9.851-1.922,14.146-4.42
			c4.57,1.98,9.531,3.016,14.62,2.711l3.751-0.225c2.999-0.18,5.82-0.902,8.533-1.85c2.848,0.621,5.75,0.998,8.717,0.822
			l3.751-0.227c6.721-0.4,12.808-2.926,17.769-6.812c1.452,0.756,2.941,1.451,4.465,2.033c5.704,2.23,11.635,3.152,17.045,3.141
			c1.025,0,2.029-0.033,3.01-0.088h0.046c3.194-0.182,6.345-0.766,9.387-1.578c0.772,0.006,1.525,0.137,2.301,0.094l3.75-0.225
			c6.495-0.391,12.431-2.73,17.3-6.402c1.123,0.57,2.254,1.121,3.419,1.586c5.771,2.322,11.773,3.262,17.205,3.246
			c1.031,0,2.032-0.027,3.007-0.084h-0.013c6.866-0.375,14.269-2.299,20.818-5.949c0.751-0.412,1.418-0.934,2.143-1.385
			c5.296,2.98,11.338,4.496,17.533,4.133l3.75-0.219c7.887-0.457,14.869-3.801,20.176-8.859c2.794,1.971,5.753,3.562,8.623,4.59
			c5.222,1.914,9.964,2.424,13.969,2.436c0.929,0,1.777-0.031,2.561-0.076l0.186-0.012c3.743-0.244,6.588-0.889,9.022-1.561
			l0.235-0.068c2.176-0.625,4.401-1.414,6.691-2.43c12.557-5.604,20.177-18.699,18.844-32.381l-0.339-3.516
			c-0.29-3.004-1.038-5.885-2.105-8.615c1.332-3.564,2.098-7.396,2.068-11.404l-0.026-3.531c-0.023-2.316-0.32-4.59-0.82-6.807
			c4.93-4.879,9.341-10.453,12.768-16.859c5.969-11.104,8.52-23.264,8.502-34.906v-0.049v-0.004v-0.402v-0.031v-0.232
			c-0.064-11.104-2.393-23.133-8.648-34.303c-1.07-1.932-2.359-3.666-3.607-5.438l2.014-2.224
			c11.309-12.469,11.033-31.612-0.629-43.748l-4.664-4.853l0.043,0.043c-9.693-10.164-22.113-17.209-35.267-20.703l0.056,0.013
			c-8.888-2.405-18.056-3.558-27.23-3.558h-0.091c-2.176,0-4.438,0.063-6.773,0.208c-9.229,0.537-18.408,2.196-27.27,5.29
			c-2.379,0.827-4.726,1.785-7.05,2.831c-2.833-1.19-5.797-1.991-8.874-2.324c-0.343-8.417-3.879-16.35-10.057-22.129
			c-6.438-6.011-15.009-9.106-23.8-8.581l-20.954,1.247c-0.25-7.966-3.456-15.618-9.076-21.383c-2.465-2.53-5.311-4.598-8.396-6.171
			c-1.459-2.919-3.353-5.632-5.675-8.016c-6.475-6.644-15.538-10.167-24.803-9.635l-6.979,0.4
			c-11.277,0.648-20.91,7.161-26.105,16.511l-5.259,0.305c-5.812,0.333-11.195,2.242-15.774,5.264
			c-4.996-2.525-10.625-3.743-16.324-3.411l-6.979,0.407c-5.975,0.349-11.51,2.324-16.166,5.494
			c-0.583-0.24-1.145-0.537-1.731-0.757c-7.047-2.664-14.287-3.723-21.138-3.716c-1.345,0-2.701,0.04-4.062,0.122
			c-7.436,0.414-15.026,2.063-22.13,5.103c-4.405,1.874-8.543,4.322-12.384,7.122c-2.973-1.847-6.102-3.445-9.325-4.647
			c-3.433-1.296-6.914-2.198-10.366-2.796C404.135,16.224,377.028,28.482,377.028,28.482z M406.445,31.785
			c-0.005,0-0.012,0.004-0.018,0.004c-0.012,0-0.023,0-0.035,0L406.445,31.785z M645.792,316.35c0.01-0.004,0.016-0.012,0.024-0.02
			c0.004,0,0.004,0,0.005,0L645.792,316.35z M771.919,309.869c0.016,0,0.03-0.006,0.054-0.006c0.049-0.004,0.109,0,0.164-0.004
			L771.919,309.869z"/>
	</g>
</g>
<g id="Zundert">
	<path class="st0" d="M446.947,307.859l-0.053-3.412l25.553-40.404l-25.475,1.514l-0.031-3.918l30.826-1.836l0.026,3.465
		l-25.756,40.371l26.759-1.596l0.034,3.918L446.947,307.859z"/>
	<path class="st0" d="M528.221,272.816l0.179,21.693c0.008,1.088,0.052,2.434,0.13,4.045c0.075,1.609,0.159,3.088,0.254,4.424
		l-3.753,0.227c-0.009-1.176-0.044-2.246-0.104-3.225c-0.062-0.977-0.143-1.66-0.251-2.047c-0.897,1.842-2.221,3.375-3.954,4.615
		c-1.736,1.232-3.748,1.93-6.031,2.059c-4.114,0.246-7.077-0.904-8.885-3.455c-1.432-2.047-2.164-5.016-2.195-8.893l-0.147-17.967
		l3.754-0.225l0.146,17.764c0.024,2.881,0.496,5.082,1.432,6.588c1.182,1.938,3.147,2.82,5.896,2.658
		c2.92-0.178,5.268-1.314,7.042-3.428c1.941-2.336,2.894-5.51,2.863-9.518l-0.125-15.092L528.221,272.816z"/>
	<path class="st0" d="M557.547,301.271l-0.179-21.691c-0.009-1.092-0.062-2.436-0.159-4.047c-0.096-1.604-0.171-3.08-0.225-4.426
		l3.753-0.225c0.008,1.168,0.041,2.254,0.104,3.225c0.061,0.975,0.14,1.658,0.252,2.041c0.897-1.844,2.215-3.369,3.953-4.615
		c1.735-1.229,3.748-1.918,6.029-2.055c4.114-0.244,7.081,0.906,8.888,3.457c1.428,2.047,2.158,5.016,2.192,8.893l0.146,17.965
		l-3.75,0.225l-0.145-17.77c-0.026-2.875-0.502-5.07-1.431-6.582c-1.184-1.936-3.151-2.824-5.901-2.662
		c-2.916,0.176-5.27,1.32-7.043,3.432c-1.941,2.338-2.891,5.51-2.859,9.518l0.125,15.094L557.547,301.271z"/>
	<path class="st0" d="M636.32,296.582l-0.044-5.301c-1.109,2.037-2.754,3.633-4.934,4.811c-2.178,1.178-4.417,1.834-6.709,1.973
		c-4.457,0.266-8.118-1.002-10.977-3.795c-2.859-2.793-4.307-6.523-4.341-11.184c-0.042-4.615,1.353-8.498,4.185-11.66
		c2.832-3.148,6.453-4.861,10.874-5.123c2.335-0.137,4.567,0.238,6.701,1.141c2.136,0.895,3.772,2.311,4.916,4.244l-0.076-24.51
		l3.751-0.219l0.406,49.396L636.32,296.582z M636.57,281.463c-0.027-3.443-1.218-6.293-3.573-8.547s-5.219-3.287-8.595-3.086
		c-3.459,0.205-6.22,1.553-8.285,4.025c-2.066,2.473-3.085,5.479-3.051,9.01c0.028,3.482,1.102,6.354,3.226,8.6
		c2.124,2.248,4.896,3.27,8.312,3.062c3.378-0.201,6.221-1.566,8.536-4.096C635.456,287.896,636.599,284.908,636.57,281.463z"/>
	<path class="st0" d="M690.712,285.234l2.77,2.254c-1.399,2.305-3.156,4.045-5.273,5.217s-4.509,1.84-7.176,1.998
		c-4.379,0.262-7.92-1.002-10.633-3.777c-2.715-2.785-4.089-6.543-4.127-11.297c-0.038-4.529,1.284-8.379,3.972-11.549
		c2.683-3.16,6.125-4.871,10.338-5.129c4.212-0.25,7.6,1.029,10.167,3.84c2.314,2.523,3.485,5.68,3.517,9.469l0.021,2.75
		l-24.256,1.441c0.025,3.441,1.239,6.23,3.635,8.346c1.973,1.758,4.436,2.551,7.398,2.375c1.918-0.121,3.771-0.703,5.55-1.768
		C688.4,288.334,689.765,286.949,690.712,285.234z M670.002,276.924l20.507-1.221c-0.022-2.699-0.999-4.953-2.931-6.75
		c-1.933-1.811-4.32-2.631-7.151-2.463c-3.503,0.213-6.264,1.816-8.284,4.809C670.704,273.436,669.988,275.316,670.002,276.924z"/>
	<path class="st0" d="M721.537,291.502l-0.175-21.691c-0.011-1.082-0.064-2.438-0.161-4.037c-0.101-1.613-0.172-3.09-0.225-4.434
		l3.753-0.227c0.011,1.17,0.043,2.254,0.103,3.23c0.062,0.977,0.144,1.654,0.252,2.041c0.984-1.973,2.161-3.508,3.527-4.592
		c1.578-1.221,3.43-1.902,5.551-2.027c0.25-0.014,0.49-0.031,0.719-0.047c0.23-0.01,0.719,0.072,1.471,0.242l-0.399,3.883
		c-0.505-0.146-0.984-0.201-1.446-0.176c-3.084,0.186-5.418,1.303-7.007,3.355c-1.589,2.061-2.369,4.652-2.344,7.791l0.132,16.467
		L721.537,291.502z"/>
	<path class="st0" d="M774.995,258.117l0.03,3.531l-8.253,0.49l0.161,19.67c0.024,2.83,1.367,4.164,4.036,4.002
		c0.58-0.031,1.178-0.119,1.779-0.266c0.604-0.143,1.428-0.486,2.462-1.029l0.343,3.51c-0.786,0.352-1.625,0.652-2.494,0.902
		c-0.873,0.246-1.664,0.395-2.372,0.439c-2.587,0.15-4.477-0.445-5.679-1.793c-1.2-1.338-1.808-3.191-1.829-5.541l-0.157-19.668
		l-6.256,0.369l-0.025-3.525l6.252-0.375l-0.071-8.693l3.75-0.219l0.071,8.691L774.995,258.117z"/>
</g>
<g id="Plants">
	<g class="st10">
		<polygon points="294.865,134.479 335.199,132.079 335.913,219.191 366.313,217.375 366.638,256.549 295.899,260.766 		"/>
		<path d="M331.729,135.792l0.714,87.115l30.401-1.818l0.267,32.164l-63.742,3.801l-0.977-119.277L331.729,135.792 M338.669,128.366
			l-7.355,0.438l-33.337,1.984l-6.638,0.395l0.054,6.65l0.977,119.279l0.061,7.367l7.356-0.438l63.742-3.801l6.638-0.396
			l-0.055-6.648l-0.267-32.164l-0.061-7.371l-7.356,0.441l-23.044,1.377l-0.653-79.745L338.669,128.366L338.669,128.366z"/>
		<path d="M164.247,103.87l59.521-3.547c2.693-0.161,5.333-0.242,7.844-0.242c14.593,0,26.342,2.757,34.92,8.194
			c12.335,7.87,18.664,21.362,18.819,40.107c0.152,18.458-5.567,32.554-16.998,41.897c-9.601,7.826-23.691,12.346-41.884,13.432
			l-21.042,1.256l0.505,61.646l-40.33,2.398L164.247,103.87z M205.13,168.475l18.542-1.104c6.28-0.377,11.115-1.758,14.37-4.107
			c3.883-2.758,5.737-6.926,5.691-12.762c-0.047-5.884-2.388-9.583-7.364-11.639c-3.044-1.248-7.352-1.882-12.795-1.882
			c-1.543,0-3.199,0.052-4.921,0.154l-13.777,0.82L205.13,168.475z"/>
		<path d="M231.612,103.581c13.984,0,25.001,2.551,33.047,7.65c11.319,7.221,17.047,19.621,17.192,37.18
			c0.144,17.42-5.094,30.479-15.713,39.158c-9.061,7.387-22.352,11.602-39.877,12.648L201.9,201.67l0.505,61.646l-33.333,1.982
			l-1.297-158.133l56.201-3.349C226.612,103.659,229.158,103.581,231.612,103.581 M201.661,172.188l22.22-1.322
			c6.98-0.418,12.387-2.004,16.21-4.764c4.819-3.422,7.198-8.623,7.143-15.627c-0.059-7.294-3.239-12.249-9.528-14.846
			c-3.483-1.428-8.195-2.147-14.131-2.147c-1.619,0-3.329,0.053-5.129,0.161l-17.096,1.017L201.661,172.188 M231.612,96.581
			c-2.581,0-5.29,0.083-8.052,0.248l-56.202,3.349l-6.638,0.396l0.054,6.649l1.297,158.134l0.061,7.367l7.355-0.438l33.333-1.982
			l6.639-0.395l-0.054-6.65l-0.451-54.998l17.724-1.057c18.941-1.131,33.705-5.912,43.884-14.211
			c12.299-10.053,18.451-25.07,18.289-44.641c-0.165-20.007-7.038-34.482-20.427-43.024
			C259.258,99.521,246.879,96.581,231.612,96.581L231.612,96.581z M208.404,141.252l10.457-0.622
			c1.653-0.099,3.239-0.148,4.714-0.148c6.21,0,9.669,0.883,11.477,1.624c2.657,1.098,5.139,2.884,5.183,8.426
			c0.048,6.135-2.371,8.566-4.195,9.861l-0.022,0.016l-0.022,0.018c-2.708,1.955-6.924,3.115-12.533,3.453l-14.862,0.883
			L208.404,141.252L208.404,141.252z"/>
		<path d="M413.74,256.807c-9.719,0-18.066-2.611-24.811-7.76c-8.326-6.318-12.6-15.441-12.694-27.107
			c-0.149-17.887,8.911-30.611,26.928-37.822c9.644-3.891,24.019-6.527,42.758-7.84c-0.603-3.184-2.1-5.744-4.532-7.768
			c-3.017-2.508-6.543-3.729-10.779-3.729c-0.444,0-0.894,0.014-1.35,0.041c-4.587,0.273-8.854,1.5-12.682,3.643
			c-3.897,2.176-7.505,5.377-10.727,9.518l-2.438,3.133l-22.446-22.512l2.331-2.469c5.824-6.17,13.114-11.178,21.668-14.883
			c8.518-3.689,17.352-5.827,26.255-6.354c1.923-0.115,3.818-0.174,5.63-0.174c15.999,0,27.785,4.55,35.031,13.522
			c7.201,8.969,10.78,23.146,10.948,43.35l0.479,58.496l-36.484,2.17l-0.062-7.525c-2.655,2.547-5.653,4.689-8.973,6.412
			c-6.211,3.24-13.146,5.111-20.603,5.555C416.023,256.771,414.864,256.807,413.74,256.807z M442.203,204.945
			c-7.745,0.459-13.944,1.529-18.426,3.178c-8.816,3.285-9.806,7.746-9.781,10.816c0.021,2.525,0.947,4.217,3,5.48
			c2.2,1.361,4.638,2.021,7.458,2.021c0.363,0,0.731-0.012,1.104-0.035c5.996-0.354,10.954-2.189,15.158-5.609
			c3.91-3.18,5.789-7.316,5.744-12.646l-0.028-3.457L442.203,204.945z"/>
		<path d="M436.851,138.224c14.963,0,25.734,4.081,32.308,12.222c6.622,8.246,10.012,21.973,10.171,41.18l0.451,55.17l-29.487,1.754
			l-0.113-13.619c-3.52,5.717-8.186,10.096-14.003,13.111c-5.823,3.039-12.222,4.754-19.2,5.168c-1.1,0.064-2.179,0.098-3.239,0.098
			c-8.97,0-16.533-2.344-22.687-7.043c-7.461-5.662-11.232-13.777-11.318-24.354c-0.137-16.369,8.108-27.893,24.729-34.543
			c9.944-4.014,25.033-6.627,45.263-7.828c-0.045-5.811-2.082-10.377-6.098-13.719c-3.646-3.031-7.989-4.539-13.018-4.539
			c-0.512,0-1.031,0.016-1.557,0.047c-5.13,0.307-9.857,1.66-14.185,4.084c-4.33,2.416-8.256,5.893-11.779,10.42l-17.246-17.295
			c5.511-5.838,12.345-10.535,20.514-14.074c8.167-3.537,16.526-5.565,25.071-6.072
			C433.293,138.279,435.101,138.224,436.851,138.224 M424.455,229.941c0.432,0,0.87-0.014,1.312-0.041
			c6.695-0.396,12.415-2.529,17.158-6.389c4.741-3.855,7.089-8.986,7.035-15.391l-0.059-7.141l-7.907,0.471
			c-8.12,0.482-14.596,1.609-19.427,3.389c-8.099,3.018-12.123,7.727-12.072,14.127c0.032,3.725,1.585,6.537,4.666,8.434
			C417.897,229.094,420.997,229.941,424.455,229.941 M436.851,131.224c-1.881,0-3.847,0.061-5.841,0.18
			c-9.309,0.551-18.541,2.784-27.435,6.636c-8.993,3.896-16.671,9.175-22.823,15.691l-4.662,4.939l4.795,4.809l17.246,17.297
			l1.174,1.178c-17.545,7.895-26.725,21.682-26.572,40.016c0.104,12.807,4.844,22.857,14.087,29.871
			c7.353,5.613,16.415,8.467,26.918,8.467c1.193,0,2.423-0.037,3.655-0.111c7.952-0.471,15.361-2.473,22.022-5.949
			c1.351-0.699,2.653-1.465,3.905-2.293l0.033,4.021l7.354-0.438l29.488-1.754l6.638-0.395l-0.054-6.65l-0.451-55.17
			c-0.175-21.023-4.006-35.908-11.713-45.506C466.662,136.211,453.96,131.224,436.851,131.224L436.851,131.224z M410.345,178.049
			c2.463-2.768,5.124-4.957,7.934-6.525c3.418-1.914,7.076-2.961,11.19-3.207c0.384-0.023,0.768-0.035,1.14-0.035
			c3.385,0,6.179,0.955,8.543,2.922c0.707,0.588,1.304,1.232,1.796,1.945C428.656,174.188,418.527,175.809,410.345,178.049
			L410.345,178.049z M424.455,222.941c-2.151,0-3.987-0.49-5.612-1.494c-0.907-0.559-1.335-1.078-1.347-2.541
			c-0.011-1.4-0.037-4.693,7.516-7.508c4.133-1.521,9.996-2.52,17.398-2.961l0.551-0.031c-0.016,4.141-1.435,7.221-4.453,9.676
			c-3.615,2.941-7.918,4.521-13.155,4.832C425.048,222.932,424.747,222.941,424.455,222.941L424.455,222.941z"/>
		<path d="M495.449,133.752l37.771-2.25l0.064,7.909c1.739-1.752,3.685-3.372,5.825-4.852c6.318-4.413,13.448-6.89,21.178-7.353
			c1.35-0.081,2.686-0.121,3.969-0.121c14.182,0,24.52,4.913,30.726,14.602c5.175,8.107,7.76,20.556,7.904,38.064l0.519,63.184
			l-39.055,2.326l-0.464-56.838c-0.089-10.543-1.16-15.381-2.044-17.584c-1.802-4.561-4.879-6.586-9.984-6.586
			c-0.381,0-0.771,0.012-1.17,0.037c-6.268,0.367-10.462,2.824-12.824,7.506c-1.979,3.938-2.952,9.932-2.889,17.816l0.471,57.373
			l-39.049,2.326L495.449,133.752z"/>
		<path d="M564.256,130.586c12.974,0,22.231,4.329,27.778,12.99c4.761,7.458,7.214,19.532,7.352,36.206l0.491,59.859l-32.058,1.908
			l-0.434-53.154c-0.075-8.938-0.839-15.227-2.296-18.857c-2.312-5.852-6.723-8.783-13.232-8.783c-0.449,0-0.909,0.014-1.378,0.043
			c-7.548,0.443-12.797,3.588-15.741,9.424c-2.246,4.467-3.332,10.934-3.264,19.42l0.443,54.049l-32.052,1.91l-0.89-108.551
			l30.773-1.833l0.12,14.742c2.523-4.917,6.264-9.086,11.229-12.518c5.809-4.057,12.27-6.312,19.396-6.738
			C561.782,130.624,563.035,130.586,564.256,130.586 M564.256,123.586c-1.353,0-2.758,0.042-4.176,0.127
			c-8.385,0.501-16.119,3.189-22.989,7.987c-0.122,0.085-0.245,0.171-0.367,0.257l-0.034-4.167l-7.355,0.438l-30.773,1.833
			l-6.639,0.396l0.055,6.65l0.89,108.552l0.061,7.367l7.355-0.438l32.052-1.91l6.639-0.396l-0.055-6.648l-0.443-54.049
			c-0.073-9.121,1.328-13.854,2.518-16.219c1.208-2.395,3.429-5.199,9.898-5.58c0.334-0.021,0.657-0.031,0.967-0.031
			c3.646,0,5.468,1.182,6.723,4.355c0.645,1.607,1.718,5.82,1.806,16.344l0.434,53.152l0.061,7.369l7.355-0.439l32.058-1.908
			l6.639-0.395l-0.055-6.65l-0.491-59.857c-0.15-18.186-2.915-31.242-8.451-39.916C591.037,129.041,579.708,123.586,564.256,123.586
			L564.256,123.586z"/>
		<path d="M666.398,241.729c-10.123,0-18.385-2.199-24.555-6.535c-8.265-5.902-12.494-15.201-12.592-27.652l-0.393-47.91
			l-20.516,1.221l-0.277-33.805l20.515-1.22l-0.266-32.163l39.05-2.327l0.263,32.163l28.209-1.679l0.277,33.807l-28.209,1.678
			l0.27,32.865c0.063,7.543,1.12,10.912,1.996,12.41c0.486,0.844,1.942,3.365,8.11,3.365c0.491,0,0.999-0.018,1.521-0.049
			c2.46-0.141,4.796-0.482,6.95-1.018c1.707-0.43,2.988-1.057,3.8-1.863l5.899-5.867l0.317,38.578l-2.159,0.91
			c-3.498,1.477-7.202,2.615-11.007,3.383c-3.726,0.764-7.953,1.291-12.553,1.566C669.464,241.68,667.898,241.729,666.398,241.729z"
			/>
		<path d="M663.896,95.049l0.263,32.163l28.209-1.679l0.22,26.797l-28.209,1.678l0.297,36.189
			c0.057,6.693,0.878,11.418,2.474,14.148c1.965,3.402,5.676,5.1,11.133,5.1c0.559,0,1.136-0.02,1.73-0.055
			c2.705-0.154,5.235-0.531,7.584-1.115c2.344-0.588,4.155-1.516,5.425-2.777l0.229,27.914c-3.266,1.379-6.714,2.445-10.339,3.176
			c-3.632,0.746-7.656,1.24-12.068,1.504c-1.526,0.09-3.007,0.137-4.444,0.137c-9.429,0-16.944-1.965-22.542-5.898
			c-7.314-5.223-11.016-13.496-11.104-24.816l-0.423-51.596l-20.516,1.221l-0.22-26.796l20.515-1.22l-0.266-32.163L663.896,95.049
			 M670.835,87.624l-7.355,0.438l-32.053,1.91l-6.639,0.396l0.055,6.649l0.211,25.513l-13.876,0.825l-6.639,0.395l0.055,6.65
			l0.22,26.795l0.061,7.367l7.354-0.438l13.161-0.781l0.362,44.227c0.107,13.635,4.83,23.881,14.036,30.457l0.021,0.016l0.022,0.016
			c6.771,4.758,15.709,7.17,26.566,7.17c1.569,0,3.205-0.051,4.862-0.15c4.764-0.283,9.157-0.832,13.058-1.633
			c4.011-0.809,7.939-2.016,11.653-3.584l4.316-1.82l-0.038-4.686l-0.229-27.916l-0.137-16.641l-11.8,11.736
			c-0.09,0.09-0.619,0.557-2.194,0.951c-1.924,0.479-4.043,0.787-6.279,0.916c-0.47,0.029-0.912,0.043-1.329,0.043
			c-2.752,0-4.458-0.539-5.071-1.6c-0.357-0.611-1.471-3.102-1.535-10.707l-0.242-29.539l21.57-1.283l6.639-0.395l-0.055-6.65
			l-0.22-26.796l-0.061-7.368l-7.355,0.438l-20.854,1.242l-0.202-24.794L670.835,87.624L670.835,87.624z"/>
		<path d="M738.947,237.383c-6.563,0-12.815-0.756-18.582-2.246c-7.591-1.982-14.198-5.766-19.646-11.248l-2.218-2.232
			l23.891-29.408l2.729,3.18c2.837,3.307,5.9,5.781,9.105,7.354c2.646,1.303,5.711,1.963,9.112,1.963
			c0.548,0,1.104-0.018,1.67-0.051c3.907-0.23,6.992-0.914,9.167-2.029c1.674-0.859,2.011-1.869,2.002-3.123
			c-0.019-2.242-4.166-4.332-11.093-5.586c-13.886-2.564-22.738-4.861-27.076-7.023c-10.688-5.428-16.15-14.902-16.257-28.174
			c-0.109-13.136,4.788-23.731,14.556-31.488c8.317-6.7,19.1-10.493,32.03-11.26c1.555-0.093,3.117-0.14,4.643-0.14
			c6.224,0,12.274,0.783,17.984,2.328c7.367,1.986,13.655,5.649,18.686,10.886l2.264,2.356l-24.423,26.932l-2.572-3.154
			c-3.738-4.584-8.414-6.812-14.293-6.812c-0.478,0-0.961,0.014-1.451,0.043c-2.5,0.148-4.597,0.838-6.413,2.105
			c-1.381,0.959-1.986,2.191-1.972,4.002c0.009,1.082,2.354,3.336,11.086,4.922c14.033,2.553,22.906,4.857,27.128,7.041
			c10.653,5.588,16.101,15.207,16.208,28.6c0.113,13.699-5.583,24.471-16.932,32.014c-9.016,5.896-20.427,9.287-33.937,10.09
			C742.523,237.328,740.709,237.383,738.947,237.383C738.948,237.383,738.948,237.383,738.947,237.383z"/>
		<path d="M752.98,119.37c5.935,0,11.625,0.733,17.07,2.206c6.781,1.829,12.475,5.143,17.076,9.932l-19.495,21.498
			c-4.402-5.398-10.071-8.102-17.006-8.102c-0.546,0-1.099,0.017-1.659,0.05c-3.135,0.186-5.868,1.095-8.209,2.729
			c-2.336,1.622-3.492,3.926-3.468,6.9c0.032,3.883,4.681,6.65,13.961,8.336c13.561,2.467,22.274,4.703,26.144,6.707
			c9.443,4.953,14.221,13.457,14.317,25.518c0.104,12.508-5.021,22.193-15.369,29.07c-8.507,5.564-19.243,8.742-32.207,9.512
			c-1.758,0.104-3.487,0.156-5.188,0.156c-6.294,0-12.196-0.711-17.707-2.135c-6.996-1.826-13.012-5.268-18.04-10.326l19.264-23.715
			c3.159,3.682,6.566,6.424,10.22,8.217c3.156,1.553,6.707,2.32,10.654,2.32c0.615,0,1.24-0.02,1.874-0.057
			c4.408-0.26,7.935-1.062,10.561-2.41c2.626-1.346,3.925-3.438,3.904-6.262c-0.036-4.32-4.695-7.326-13.97-9.004
			c-13.42-2.48-22.133-4.717-26.138-6.713c-9.447-4.797-14.223-13.158-14.318-25.068c-0.101-12.068,4.312-21.636,13.232-28.72
			c7.788-6.273,17.812-9.78,30.061-10.507C750.038,119.415,751.517,119.37,752.98,119.37 M752.98,112.37L752.98,112.37
			c-1.595,0-3.228,0.049-4.853,0.146c-13.669,0.811-25.121,4.863-34.035,12.043c-10.617,8.432-15.96,19.958-15.841,34.23
			c0.116,14.475,6.393,25.281,18.149,31.25l0.023,0.012l0.023,0.012c0.618,0.309,1.375,0.656,2.359,1.045l-1.776,2.186
			l-19.264,23.715l-3.968,4.885l4.437,4.463c5.896,5.932,13.04,10.025,21.236,12.166c6.069,1.568,12.616,2.361,19.476,2.361
			c1.829,0,3.713-0.057,5.6-0.168c14.13-0.84,26.115-4.42,35.627-10.641l0.021-0.016l0.021-0.014
			c12.396-8.238,18.618-20,18.494-34.957c-0.117-14.574-6.364-25.523-18.066-31.66c-1.664-0.861-4.341-2.008-9.863-3.477
			l2.035-2.244l19.495-21.497l4.39-4.84l-4.527-4.712c-5.478-5.702-12.309-9.686-20.302-11.841
			C765.871,113.194,759.513,112.37,752.98,112.37L752.98,112.37z M744.501,153.627c0.065-0.066,0.147-0.123,0.249-0.193
			c1.287-0.898,2.797-1.383,4.632-1.492c0.422-0.025,0.84-0.037,1.244-0.037c4.827,0,8.507,1.756,11.581,5.525l0.495,0.607
			c-2.907-0.623-6.279-1.291-10.198-2.004C747.755,155.17,745.487,154.188,744.501,153.627L744.501,153.627z M743.339,201.244
			c-2.901,0-5.375-0.523-7.562-1.602c-2.488-1.221-4.9-3.094-7.188-5.58c3.935,0.973,9.07,2.08,15.848,3.332
			c4.465,0.809,6.672,1.768,7.693,2.367c-1.297,0.572-3.549,1.215-7.33,1.439C744.308,201.229,743.814,201.244,743.339,201.244
			L743.339,201.244z"/>
	</g>
	<g>
		<g>
			<g>
				<linearGradient id="SVGID_1_" gradientUnits="userSpaceOnUse" x1="322.9082" y1="7.5137" x2="330.2239" y2="428.8599">
					<stop  offset="0" style="stop-color:#20AC4B"/>
					<stop  offset="0.1235" style="stop-color:#22A549"/>
					<stop  offset="0.2865" style="stop-color:#289845"/>
					<stop  offset="0.4716" style="stop-color:#2A833E"/>
					<stop  offset="0.6731" style="stop-color:#286633"/>
					<stop  offset="0.8854" style="stop-color:#1F4524"/>
					<stop  offset="0.9831" style="stop-color:#19361A"/>
				</linearGradient>
				<polygon class="st3" points="290.613,130.227 330.947,127.827 331.661,214.939 362.062,213.123 362.386,252.297 
					291.647,256.514 				"/>
				<path class="st11" d="M327.478,131.54l0.714,87.115l30.401-1.818L358.859,249l-63.742,3.801l-0.977-119.277L327.478,131.54
					 M334.417,124.114l-7.355,0.438l-33.337,1.984l-6.638,0.395l0.054,6.65l0.977,119.279l0.061,7.367l7.356-0.438l63.742-3.801
					l6.638-0.396l-0.055-6.648l-0.267-32.164l-0.061-7.371l-7.356,0.441l-23.044,1.377l-0.653-79.745L334.417,124.114
					L334.417,124.114z"/>
			</g>
			<g>
				<linearGradient id="SVGID_2_" gradientUnits="userSpaceOnUse" x1="217.8994" y1="12.8208" x2="225.1046" y2="427.8025">
					<stop  offset="0" style="stop-color:#20AC4B"/>
					<stop  offset="0.1235" style="stop-color:#22A549"/>
					<stop  offset="0.2865" style="stop-color:#289845"/>
					<stop  offset="0.4716" style="stop-color:#2A833E"/>
					<stop  offset="0.6731" style="stop-color:#286633"/>
					<stop  offset="0.8854" style="stop-color:#1F4524"/>
					<stop  offset="0.9831" style="stop-color:#19361A"/>
				</linearGradient>
				<path class="st4" d="M159.995,99.618l59.521-3.547c2.693-0.161,5.333-0.242,7.844-0.242c14.593,0,26.342,2.757,34.92,8.194
					c12.335,7.87,18.664,21.362,18.819,40.107c0.152,18.458-5.567,32.554-16.998,41.897c-9.601,7.826-23.691,12.346-41.884,13.432
					l-21.042,1.256l0.505,61.646l-40.33,2.398L159.995,99.618z M200.878,164.223l18.542-1.104c6.28-0.377,11.115-1.758,14.37-4.107
					c3.883-2.758,5.737-6.926,5.691-12.761c-0.047-5.885-2.388-9.584-7.364-11.64c-3.044-1.248-7.352-1.882-12.795-1.882
					c-1.543,0-3.199,0.052-4.921,0.154l-13.777,0.82L200.878,164.223z"/>
				<path class="st11" d="M227.36,99.329c13.984,0,25.001,2.551,33.047,7.65c11.319,7.221,17.047,19.621,17.192,37.18
					c0.144,17.419-5.094,30.478-15.713,39.158c-9.061,7.387-22.352,11.602-39.877,12.648l-24.361,1.453l0.505,61.646l-33.333,1.982
					l-1.297-158.133l56.201-3.349C222.36,99.407,224.906,99.329,227.36,99.329 M197.409,167.936l22.22-1.322
					c6.98-0.418,12.387-2.004,16.21-4.764c4.819-3.422,7.198-8.623,7.143-15.626c-0.059-7.295-3.239-12.25-9.528-14.847
					c-3.483-1.428-8.195-2.147-14.131-2.147c-1.619,0-3.329,0.053-5.129,0.161l-17.096,1.017L197.409,167.936 M227.36,92.329
					c-2.581,0-5.29,0.083-8.052,0.248l-56.202,3.349l-6.638,0.396l0.054,6.649l1.297,158.134l0.061,7.367l7.355-0.438l33.333-1.982
					l6.639-0.395l-0.054-6.65l-0.451-54.998l17.724-1.057c18.941-1.131,33.705-5.912,43.884-14.211
					c12.299-10.053,18.451-25.07,18.289-44.641c-0.165-20.006-7.038-34.482-20.427-43.024
					C255.006,95.269,242.627,92.329,227.36,92.329L227.36,92.329z M204.152,137l10.457-0.622c1.653-0.099,3.239-0.148,4.714-0.148
					c6.21,0,9.669,0.883,11.477,1.624c2.657,1.098,5.139,2.884,5.183,8.427c0.048,6.134-2.371,8.565-4.195,9.86l-0.022,0.016
					l-0.022,0.018c-2.708,1.955-6.924,3.115-12.533,3.453l-14.862,0.883L204.152,137L204.152,137z"/>
			</g>
			<g>
				<linearGradient id="SVGID_3_" gradientUnits="userSpaceOnUse" x1="421.8652" y1="5.646" x2="429.1838" y2="427.1599">
					<stop  offset="0" style="stop-color:#20AC4B"/>
					<stop  offset="0.1235" style="stop-color:#22A549"/>
					<stop  offset="0.2865" style="stop-color:#289845"/>
					<stop  offset="0.4716" style="stop-color:#2A833E"/>
					<stop  offset="0.6731" style="stop-color:#286633"/>
					<stop  offset="0.8854" style="stop-color:#1F4524"/>
					<stop  offset="0.9831" style="stop-color:#19361A"/>
				</linearGradient>
				<path class="st5" d="M409.488,252.555c-9.719,0-18.066-2.611-24.811-7.76c-8.326-6.318-12.6-15.441-12.694-27.107
					c-0.149-17.887,8.911-30.611,26.928-37.822c9.644-3.891,24.019-6.527,42.758-7.84c-0.603-3.184-2.1-5.744-4.532-7.768
					c-3.017-2.508-6.543-3.729-10.779-3.729c-0.444,0-0.894,0.014-1.35,0.041c-4.587,0.273-8.854,1.5-12.682,3.643
					c-3.897,2.176-7.505,5.377-10.727,9.518l-2.438,3.133l-22.446-22.512l2.331-2.469c5.824-6.17,13.114-11.178,21.668-14.883
					c8.518-3.689,17.352-5.827,26.255-6.354c1.923-0.115,3.818-0.174,5.63-0.174c15.999,0,27.785,4.55,35.031,13.522
					c7.201,8.969,10.78,23.146,10.948,43.35l0.479,58.496l-36.484,2.17l-0.062-7.525c-2.655,2.547-5.653,4.689-8.973,6.412
					c-6.211,3.24-13.146,5.111-20.603,5.555C411.771,252.52,410.612,252.555,409.488,252.555z M437.951,200.693
					c-7.745,0.459-13.944,1.529-18.426,3.178c-8.816,3.285-9.806,7.746-9.781,10.816c0.021,2.525,0.947,4.217,3,5.48
					c2.2,1.361,4.638,2.021,7.458,2.021c0.363,0,0.731-0.012,1.104-0.035c5.996-0.354,10.954-2.189,15.158-5.609
					c3.91-3.18,5.789-7.316,5.744-12.646l-0.028-3.457L437.951,200.693z"/>
				<path class="st11" d="M432.599,133.972c14.963,0,25.734,4.081,32.308,12.221c6.622,8.247,10.012,21.973,10.171,41.18
					l0.451,55.17l-29.487,1.754l-0.113-13.619c-3.52,5.717-8.186,10.096-14.003,13.111c-5.823,3.039-12.222,4.754-19.2,5.168
					c-1.1,0.064-2.179,0.098-3.239,0.098c-8.97,0-16.533-2.344-22.687-7.043c-7.461-5.662-11.232-13.777-11.318-24.354
					c-0.137-16.369,8.108-27.893,24.729-34.543c9.944-4.014,25.033-6.627,45.263-7.828c-0.045-5.811-2.082-10.377-6.098-13.719
					c-3.646-3.031-7.989-4.539-13.018-4.539c-0.512,0-1.031,0.016-1.557,0.047c-5.13,0.307-9.857,1.66-14.185,4.084
					c-4.33,2.416-8.256,5.893-11.779,10.42l-17.246-17.295c5.511-5.838,12.345-10.535,20.514-14.074
					c8.167-3.537,16.526-5.565,25.071-6.072C429.042,134.027,430.849,133.972,432.599,133.972 M420.203,225.689
					c0.432,0,0.87-0.014,1.312-0.041c6.695-0.396,12.415-2.529,17.158-6.389c4.741-3.855,7.089-8.986,7.035-15.391l-0.059-7.141
					l-7.907,0.471c-8.12,0.482-14.596,1.609-19.427,3.389c-8.099,3.018-12.123,7.727-12.072,14.127
					c0.032,3.725,1.585,6.537,4.666,8.434C413.646,224.842,416.745,225.689,420.203,225.689 M432.599,126.972
					c-1.881,0-3.847,0.061-5.841,0.18c-9.309,0.551-18.541,2.784-27.435,6.636c-8.993,3.896-16.671,9.175-22.823,15.692
					l-4.662,4.938l4.795,4.809l17.246,17.297l1.174,1.178c-17.545,7.895-26.725,21.682-26.572,40.016
					c0.104,12.807,4.844,22.857,14.087,29.871c7.353,5.613,16.415,8.467,26.918,8.467c1.193,0,2.423-0.037,3.655-0.111
					c7.952-0.471,15.361-2.473,22.022-5.949c1.351-0.699,2.653-1.465,3.905-2.293l0.033,4.021l7.354-0.438l29.488-1.754l6.638-0.395
					l-0.054-6.65l-0.451-55.17c-0.175-21.023-4.006-35.908-11.713-45.506C462.41,131.959,449.708,126.972,432.599,126.972
					L432.599,126.972z M406.093,173.797c2.463-2.768,5.124-4.957,7.934-6.525c3.418-1.914,7.076-2.961,11.19-3.207
					c0.384-0.023,0.768-0.035,1.14-0.035c3.385,0,6.179,0.955,8.543,2.922c0.707,0.588,1.304,1.232,1.796,1.945
					C424.404,169.936,414.275,171.557,406.093,173.797L406.093,173.797z M420.203,218.689c-2.151,0-3.987-0.49-5.612-1.494
					c-0.907-0.559-1.335-1.078-1.347-2.541c-0.011-1.4-0.037-4.693,7.516-7.508c4.133-1.521,9.996-2.52,17.398-2.961l0.551-0.031
					c-0.016,4.141-1.435,7.221-4.453,9.676c-3.615,2.941-7.918,4.521-13.155,4.832C420.796,218.68,420.495,218.689,420.203,218.689
					L420.203,218.689z"/>
			</g>
			<g>
				<linearGradient id="SVGID_4_" gradientUnits="userSpaceOnUse" x1="541.8057" y1="3.6807" x2="549.1371" y2="425.9332">
					<stop  offset="0" style="stop-color:#20AC4B"/>
					<stop  offset="0.1235" style="stop-color:#22A549"/>
					<stop  offset="0.2865" style="stop-color:#289845"/>
					<stop  offset="0.4716" style="stop-color:#2A833E"/>
					<stop  offset="0.6731" style="stop-color:#286633"/>
					<stop  offset="0.8854" style="stop-color:#1F4524"/>
					<stop  offset="0.9831" style="stop-color:#19361A"/>
				</linearGradient>
				<path class="st6" d="M491.197,129.5l37.771-2.25l0.064,7.909c1.739-1.752,3.685-3.372,5.825-4.852
					c6.318-4.413,13.448-6.89,21.178-7.353c1.35-0.081,2.686-0.121,3.969-0.121c14.182,0,24.52,4.913,30.726,14.602
					c5.175,8.107,7.76,20.556,7.904,38.064l0.519,63.184l-39.055,2.326l-0.464-56.838c-0.089-10.543-1.16-15.381-2.044-17.584
					c-1.802-4.561-4.879-6.586-9.984-6.586c-0.381,0-0.771,0.012-1.17,0.037c-6.268,0.367-10.462,2.824-12.824,7.506
					c-1.979,3.938-2.952,9.932-2.889,17.816l0.471,57.373l-39.049,2.326L491.197,129.5z"/>
				<path class="st11" d="M560.004,126.334c12.974,0,22.231,4.329,27.778,12.99c4.761,7.458,7.214,19.532,7.352,36.206l0.491,59.859
					l-32.058,1.908l-0.434-53.154c-0.075-8.938-0.839-15.227-2.296-18.857c-2.312-5.852-6.723-8.783-13.232-8.783
					c-0.449,0-0.909,0.014-1.378,0.043c-7.548,0.443-12.797,3.588-15.741,9.424c-2.246,4.467-3.332,10.934-3.264,19.42l0.443,54.049
					l-32.052,1.91l-0.89-108.551l30.773-1.833l0.12,14.741c2.523-4.917,6.264-9.085,11.229-12.518
					c5.809-4.057,12.27-6.312,19.396-6.738C557.53,126.372,558.783,126.334,560.004,126.334 M560.004,119.334
					c-1.353,0-2.758,0.042-4.176,0.127c-8.385,0.501-16.119,3.189-22.989,7.987c-0.122,0.085-0.245,0.171-0.367,0.257l-0.034-4.167
					l-7.355,0.438l-30.773,1.833l-6.639,0.396l0.055,6.65l0.89,108.552l0.061,7.367l7.355-0.438l32.052-1.91l6.639-0.396
					l-0.055-6.648l-0.443-54.049c-0.073-9.121,1.328-13.854,2.518-16.219c1.208-2.395,3.429-5.199,9.898-5.58
					c0.334-0.021,0.657-0.031,0.967-0.031c3.646,0,5.468,1.182,6.723,4.355c0.645,1.607,1.718,5.82,1.806,16.344l0.434,53.152
					l0.061,7.369l7.355-0.439l32.058-1.908l6.639-0.395l-0.055-6.65l-0.491-59.857c-0.15-18.186-2.915-31.242-8.451-39.916
					C586.785,124.789,575.456,119.334,560.004,119.334L560.004,119.334z"/>
			</g>
			<g>
				<linearGradient id="SVGID_5_" gradientUnits="userSpaceOnUse" x1="645.543" y1="4.8623" x2="652.7855" y2="421.9962">
					<stop  offset="0" style="stop-color:#20AC4B"/>
					<stop  offset="0.1235" style="stop-color:#22A549"/>
					<stop  offset="0.2865" style="stop-color:#289845"/>
					<stop  offset="0.4716" style="stop-color:#2A833E"/>
					<stop  offset="0.6731" style="stop-color:#286633"/>
					<stop  offset="0.8854" style="stop-color:#1F4524"/>
					<stop  offset="0.9831" style="stop-color:#19361A"/>
				</linearGradient>
				<path class="st7" d="M662.146,237.477c-10.123,0-18.385-2.199-24.555-6.535c-8.265-5.902-12.494-15.201-12.592-27.652
					l-0.393-47.91l-20.516,1.221l-0.277-33.805l20.515-1.22l-0.266-32.163l39.05-2.327l0.263,32.163l28.209-1.679l0.277,33.807
					l-28.209,1.678l0.27,32.865c0.063,7.543,1.12,10.912,1.996,12.41c0.486,0.844,1.942,3.365,8.11,3.365
					c0.491,0,0.999-0.018,1.521-0.049c2.46-0.141,4.796-0.482,6.95-1.018c1.707-0.43,2.988-1.057,3.8-1.863l5.899-5.867
					l0.317,38.578l-2.159,0.91c-3.498,1.477-7.202,2.615-11.007,3.383c-3.726,0.764-7.953,1.291-12.553,1.566
					C665.212,237.428,663.646,237.477,662.146,237.477z"/>
				<path class="st11" d="M659.644,90.797l0.263,32.163l28.209-1.679l0.22,26.797l-28.209,1.678l0.297,36.189
					c0.057,6.693,0.878,11.418,2.474,14.148c1.965,3.402,5.676,5.1,11.133,5.1c0.559,0,1.136-0.02,1.73-0.055
					c2.705-0.154,5.235-0.531,7.584-1.115c2.344-0.588,4.155-1.516,5.425-2.777l0.229,27.914c-3.266,1.379-6.714,2.445-10.339,3.176
					c-3.632,0.746-7.656,1.24-12.068,1.504c-1.526,0.09-3.007,0.137-4.444,0.137c-9.429,0-16.944-1.965-22.542-5.898
					c-7.314-5.223-11.016-13.496-11.104-24.816l-0.423-51.596l-20.516,1.221l-0.22-26.796l20.515-1.22l-0.266-32.163L659.644,90.797
					 M666.583,83.372l-7.355,0.438l-32.053,1.91l-6.639,0.396l0.055,6.649l0.211,25.513l-13.876,0.825l-6.639,0.395l0.055,6.65
					l0.22,26.795l0.061,7.367l7.354-0.438l13.161-0.781l0.362,44.227c0.107,13.635,4.83,23.881,14.036,30.457l0.021,0.016
					l0.022,0.016c6.771,4.758,15.709,7.17,26.566,7.17c1.569,0,3.205-0.051,4.862-0.15c4.764-0.283,9.157-0.832,13.058-1.633
					c4.011-0.809,7.939-2.016,11.653-3.584l4.316-1.82l-0.038-4.686l-0.229-27.916l-0.137-16.641l-11.8,11.736
					c-0.09,0.09-0.619,0.557-2.194,0.951c-1.924,0.479-4.043,0.787-6.279,0.916c-0.47,0.029-0.912,0.043-1.329,0.043
					c-2.752,0-4.458-0.539-5.071-1.6c-0.357-0.611-1.471-3.102-1.535-10.707l-0.242-29.539l21.57-1.283l6.639-0.395l-0.055-6.65
					l-0.22-26.796l-0.061-7.368l-7.355,0.438l-20.854,1.242l-0.202-24.794L666.583,83.372L666.583,83.372z"/>
			</g>
			<g>
				<linearGradient id="SVGID_6_" gradientUnits="userSpaceOnUse" x1="739.0771" y1="0.9224" x2="746.3975" y2="422.5382">
					<stop  offset="0" style="stop-color:#20AC4B"/>
					<stop  offset="0.1235" style="stop-color:#22A549"/>
					<stop  offset="0.2865" style="stop-color:#289845"/>
					<stop  offset="0.4716" style="stop-color:#2A833E"/>
					<stop  offset="0.6731" style="stop-color:#286633"/>
					<stop  offset="0.8854" style="stop-color:#1F4524"/>
					<stop  offset="0.9831" style="stop-color:#19361A"/>
				</linearGradient>
				<path class="st8" d="M734.695,233.131c-6.563,0-12.815-0.756-18.582-2.246c-7.591-1.982-14.198-5.766-19.646-11.248
					l-2.218-2.232l23.891-29.408l2.729,3.18c2.837,3.307,5.9,5.781,9.105,7.354c2.646,1.303,5.711,1.963,9.112,1.963
					c0.548,0,1.104-0.018,1.67-0.051c3.907-0.23,6.992-0.914,9.167-2.029c1.674-0.859,2.011-1.869,2.002-3.123
					c-0.019-2.242-4.166-4.332-11.093-5.586c-13.886-2.564-22.738-4.861-27.076-7.023c-10.688-5.428-16.15-14.902-16.257-28.174
					c-0.109-13.136,4.788-23.731,14.556-31.488c8.317-6.7,19.1-10.493,32.03-11.26c1.555-0.093,3.117-0.14,4.643-0.14
					c6.224,0,12.274,0.783,17.984,2.328c7.367,1.986,13.655,5.649,18.686,10.886l2.264,2.356l-24.423,26.932l-2.572-3.154
					c-3.738-4.584-8.414-6.813-14.293-6.813c-0.478,0-0.961,0.015-1.451,0.044c-2.5,0.148-4.597,0.837-6.413,2.105
					c-1.381,0.958-1.986,2.191-1.972,4.001c0.009,1.082,2.354,3.336,11.086,4.922c14.033,2.553,22.906,4.857,27.128,7.041
					c10.653,5.588,16.101,15.207,16.208,28.6c0.113,13.699-5.583,24.471-16.932,32.014c-9.016,5.896-20.427,9.287-33.937,10.09
					C738.271,233.076,736.457,233.131,734.695,233.131C734.696,233.131,734.696,233.131,734.695,233.131z"/>
				<path class="st11" d="M748.729,115.118c5.935,0,11.625,0.733,17.07,2.206c6.781,1.829,12.475,5.143,17.076,9.932l-19.495,21.498
					c-4.402-5.398-10.071-8.102-17.006-8.102c-0.546,0-1.099,0.017-1.659,0.05c-3.135,0.186-5.868,1.095-8.209,2.73
					c-2.336,1.622-3.492,3.925-3.468,6.9c0.032,3.883,4.681,6.65,13.961,8.336c13.561,2.467,22.274,4.703,26.144,6.707
					c9.443,4.953,14.221,13.457,14.317,25.518c0.104,12.508-5.021,22.193-15.369,29.07c-8.507,5.564-19.243,8.742-32.207,9.512
					c-1.758,0.104-3.487,0.156-5.188,0.156c-6.294,0-12.196-0.711-17.707-2.135c-6.996-1.826-13.012-5.268-18.04-10.326
					l19.264-23.715c3.159,3.682,6.566,6.424,10.22,8.217c3.156,1.553,6.707,2.32,10.654,2.32c0.615,0,1.24-0.02,1.874-0.057
					c4.408-0.26,7.935-1.062,10.561-2.41c2.626-1.346,3.925-3.438,3.904-6.262c-0.036-4.32-4.695-7.326-13.97-9.004
					c-13.42-2.48-22.133-4.717-26.138-6.713c-9.447-4.797-14.223-13.158-14.318-25.068c-0.101-12.068,4.312-21.636,13.232-28.72
					c7.788-6.273,17.812-9.78,30.061-10.507C745.786,115.163,747.265,115.118,748.729,115.118 M748.729,108.118L748.729,108.118
					c-1.595,0-3.228,0.049-4.853,0.146c-13.669,0.811-25.121,4.863-34.035,12.043c-10.617,8.432-15.96,19.958-15.841,34.23
					c0.116,14.475,6.393,25.281,18.149,31.25l0.023,0.012l0.023,0.012c0.618,0.309,1.375,0.656,2.359,1.045l-1.776,2.186
					l-19.264,23.715l-3.968,4.885l4.437,4.463c5.896,5.932,13.04,10.025,21.236,12.166c6.069,1.568,12.616,2.361,19.476,2.361
					c1.829,0,3.713-0.057,5.6-0.168c14.13-0.84,26.115-4.42,35.627-10.641l0.021-0.016l0.021-0.014
					c12.396-8.238,18.618-20,18.494-34.957c-0.117-14.574-6.364-25.523-18.066-31.66c-1.664-0.861-4.341-2.008-9.863-3.477
					l2.035-2.244l19.495-21.497l4.39-4.84l-4.527-4.712c-5.478-5.702-12.309-9.686-20.302-11.841
					C761.619,108.942,755.261,108.118,748.729,108.118L748.729,108.118z M740.249,149.375c0.065-0.065,0.147-0.123,0.249-0.192
					c1.287-0.899,2.797-1.384,4.632-1.493c0.422-0.025,0.84-0.037,1.244-0.037c4.827,0,8.507,1.756,11.581,5.525l0.495,0.607
					c-2.907-0.623-6.279-1.291-10.198-2.004C743.503,150.918,741.235,149.936,740.249,149.375L740.249,149.375z M739.087,196.992
					c-2.901,0-5.375-0.523-7.562-1.602c-2.488-1.221-4.9-3.094-7.188-5.58c3.935,0.973,9.07,2.08,15.848,3.332
					c4.465,0.809,6.672,1.768,7.693,2.367c-1.297,0.572-3.549,1.215-7.33,1.439C740.056,196.977,739.562,196.992,739.087,196.992
					L739.087,196.992z"/>
			</g>
		</g>
	</g>
</g>
<g id="About">
	<linearGradient id="SVGID_7_" gradientUnits="userSpaceOnUse" x1="336.1206" y1="106.4238" x2="398.5172" y2="37.428">
		<stop  offset="0" style="stop-color:#20AC4B"/>
		<stop  offset="0.0648" style="stop-color:#43B049"/>
		<stop  offset="0.2104" style="stop-color:#6BBA45"/>
		<stop  offset="0.3554" style="stop-color:#81C141"/>
		<stop  offset="0.4982" style="stop-color:#8EC63F"/>
		<stop  offset="0.6364" style="stop-color:#92C83E"/>
		<stop  offset="0.8424" style="stop-color:#92C83E"/>
	</linearGradient>
	<path class="st9" d="M346.193,18.132l-8.992,0.543l-48.485,98.614l9.1-0.569l12.603-26.19l49.642-3.024l18.103,54.713l8.124-4.712
		L346.193,18.132z M314.534,82.157l25.982-53.991l16.852,51.386L314.534,82.157z"/>
	<path class="st2" d="M430.01,63.912c-4.741-4.745-11.171-6.875-19.3-6.405c-4.178,0.237-8.335,1.359-12.473,3.363
		c-4.132,2.015-7.364,4.745-9.695,8.197l2.547-31.516l-6.83,0.393l-4.721,60.491l5.463,12.978l0.981-9.017
		c1.773,3.293,4.622,5.749,8.572,7.364c3.51,1.415,7.384,2.004,11.639,1.76c8.048-0.471,14.891-3.389,20.516-8.767
		c5.63-5.375,8.77-11.993,9.421-19.839C436.792,74.978,434.754,68.646,430.01,63.912z M429.299,83.307
		c-0.498,5.994-2.817,11.11-6.95,15.323c-4.133,4.228-9.348,6.512-15.654,6.877c-6.15,0.356-11.185-1.377-15.092-5.211
		c-3.917-3.827-5.625-8.66-5.138-14.517c0.491-5.847,3.028-10.946,7.625-15.266c4.593-4.315,9.97-6.652,16.12-7.008
		c6.228-0.363,11.14,1.416,14.747,5.341C428.347,72.554,429.798,77.378,429.299,83.307z"/>
	<path class="st2" d="M497.681,60c-4.741-4.74-11.172-6.877-19.301-6.401c-8.054,0.458-14.89,3.382-20.518,8.755
		c-5.624,5.38-8.764,11.993-9.426,19.844c-0.661,7.93,1.378,14.26,6.123,19.001c4.747,4.745,11.18,6.875,19.306,6.406
		c8.048-0.464,14.887-3.389,20.511-8.76c5.631-5.375,8.768-11.999,9.426-19.839C504.462,71.065,502.423,64.739,497.681,60z
		 M496.97,79.4c-0.501,5.987-2.818,11.109-6.949,15.322c-4.137,4.223-9.348,6.513-15.65,6.878
		c-6.229,0.362-11.099-1.367-14.589-5.18c-3.502-3.812-5.001-8.686-4.507-14.609c0.504-6.006,2.82-11.116,6.955-15.337
		c4.124-4.226,9.341-6.519,15.647-6.881c6.229-0.358,11.144,1.421,14.749,5.34C496.019,68.64,497.468,73.47,496.97,79.4z"/>
	<path class="st2" d="M565.752,49.874l-3.081,36.897c-0.158,1.854-0.296,4.138-0.405,6.888c-0.117,2.723-0.2,5.241-0.234,7.526
		l-6.839,0.395c0.172-2.009,0.278-3.833,0.319-5.491c0.044-1.668,0-2.826-0.134-3.482c-1.923,3.137-4.551,5.762-7.895,7.866
		c-3.341,2.109-7.095,3.287-11.256,3.524c-7.496,0.438-12.68-1.515-15.56-5.844c-2.272-3.481-3.131-8.522-2.58-15.115l2.552-30.56
		l6.841-0.396l-2.529,30.229c-0.408,4.89,0.11,8.617,1.556,11.19c1.844,3.289,5.27,4.784,10.28,4.491
		c5.313-0.308,9.755-2.249,13.305-5.856c3.886-3.982,6.108-9.38,6.679-16.194l2.143-25.675L565.752,49.874z"/>
	<path class="st2" d="M610.293,47.299l-0.503,6l-15.036,0.864l-2.792,33.453c-0.405,4.822,1.824,7.083,6.685,6.802
		c1.065-0.063,2.157-0.207,3.271-0.457c1.121-0.257,2.658-0.842,4.628-1.76l0.065,5.969c-1.486,0.593-3.046,1.107-4.659,1.539
		c-1.63,0.42-3.081,0.676-4.379,0.751c-4.706,0.27-8.039-0.737-10-3.024c-1.97-2.272-2.78-5.422-2.445-9.418l2.792-33.452
		l-11.388,0.656l0.502-5.998l11.385-0.666l1.234-14.771l6.843-0.393l-1.236,14.771L610.293,47.299z"/>
</g>
</svg>
